<svg width="42" height="41" viewBox="0 0 42 41" fill="none" xmlns="http://www.w3.org/2000/svg">
<g clip-path="url(#clip0_401_394)">
<path d="M29.6147 8.26745C29.5669 8.4211 29.4709 8.55555 29.3408 8.65119C29.2107 8.74683 29.0533 8.79867 28.8915 8.79914H27.1211V10.2969H28.8915C29.0533 10.2973 29.2107 10.3492 29.3408 10.4448C29.4709 10.5404 29.5669 10.6749 29.6147 10.8285C29.6477 10.9346 29.6906 11.0374 29.7428 11.1356C29.817 11.2769 29.8438 11.4382 29.8194 11.5957C29.795 11.7533 29.7207 11.8991 29.6072 12.0117L29.0648 12.5434H33.148C32.552 12.5434 31.9694 12.3678 31.4738 12.0386C30.9783 11.7095 30.592 11.2416 30.3639 10.6943C30.1359 10.147 30.0762 9.54467 30.1924 8.96362C30.3087 8.38256 30.5957 7.84882 31.0172 7.4299C31.4386 7.01099 31.9756 6.7257 32.5601 6.61012C33.1447 6.49454 33.7506 6.55386 34.3012 6.78058C34.8518 7.00729 35.3225 7.39123 35.6536 7.88382C35.9847 8.37642 36.1615 8.95556 36.1615 9.548C36.1615 10.3424 35.844 11.1043 35.2788 11.6661C34.7137 12.2278 33.9472 12.5434 33.148 12.5434H37.2312L36.6888 12.0117C36.5753 11.8991 36.501 11.7533 36.4766 11.5957C36.4522 11.4382 36.479 11.2769 36.5532 11.1356C36.6054 11.0374 36.6483 10.9346 36.6813 10.8285C36.7291 10.6749 36.8251 10.5404 36.9552 10.4448C37.0853 10.3492 37.2427 10.2973 37.4045 10.2969H39.1749V8.79914H37.4045C37.2427 8.79867 37.0853 8.74683 36.9552 8.65119C36.8251 8.55555 36.7291 8.4211 36.6813 8.26745C36.6483 8.16135 36.6054 8.05856 36.5532 7.96042C36.479 7.81905 36.4522 7.65783 36.4766 7.50025C36.501 7.34266 36.5753 7.19692 36.6888 7.08425L37.9469 5.84115L36.8771 4.77777L35.6266 6.02836C35.5132 6.14118 35.3666 6.21509 35.2081 6.23933C35.0495 6.26357 34.8873 6.23689 34.7451 6.16316C34.6464 6.11123 34.543 6.0686 34.4363 6.03585C34.2817 5.9883 34.1464 5.89291 34.0502 5.76359C33.954 5.63428 33.9018 5.47779 33.9014 5.31695V3.55713H32.3946V5.31695C32.3942 5.47779 32.342 5.63428 32.2458 5.76359C32.1496 5.89291 32.0143 5.9883 31.8597 6.03585C31.753 6.0686 31.6496 6.11123 31.5509 6.16316C31.4087 6.23689 31.2465 6.26357 31.0879 6.23933C30.9294 6.21509 30.7828 6.14118 30.6694 6.02836L29.4189 4.77777L28.3491 5.84115L29.6072 7.08425C29.7207 7.19692 29.795 7.34266 29.8194 7.50025C29.8438 7.65783 29.817 7.81905 29.7428 7.96042C29.6906 8.05856 29.6477 8.16135 29.6147 8.26745Z" fill="white"/>
<path d="M39.175 28.4791V20.032H30.1346C29.9951 20.0336 29.8579 19.9957 29.7392 19.9228C29.6205 19.8498 29.5251 19.7449 29.4641 19.6201L27.8745 16.4674V31.0552L29.8935 31.5869C30.5904 31.7766 31.195 32.2101 31.5961 32.8075L38.9414 28.5914C39.0168 28.554 39.0996 28.5165 39.175 28.4791Z" fill="white"/>
<path d="M25.9007 14.0411H14.7811L12.521 18.5343H23.6406L25.9007 14.0411Z" fill="white"/>
<path d="M33.1481 11.0456C33.9802 11.0456 34.6548 10.3751 34.6548 9.54789C34.6548 8.72072 33.9802 8.05017 33.1481 8.05017C32.3159 8.05017 31.6414 8.72072 31.6414 9.54789C31.6414 10.3751 32.3159 11.0456 33.1481 11.0456Z" fill="white"/>
<path d="M13.5606 4.30594C13.5598 5.04506 13.7173 5.77588 14.0225 6.44985C14.3278 7.12382 14.7738 7.72552 15.331 8.21498C15.7242 8.56424 16.0383 8.9925 16.2526 9.47144C16.4669 9.95038 16.5764 10.4691 16.574 10.9932V12.5434H18.0807V10.2968C18.0807 10.0982 18.1601 9.90772 18.3014 9.76728C18.4427 9.62684 18.6343 9.54795 18.8341 9.54795C19.0339 9.54795 19.2255 9.62684 19.3668 9.76728C19.5081 9.90772 19.5875 10.0982 19.5875 10.2968V12.5434H21.0942V10.9932C21.0915 10.4683 21.2016 9.94887 21.4173 9.46971C21.633 8.99056 21.9492 8.56276 22.3448 8.21498C22.9395 7.68787 23.4062 7.03367 23.7101 6.30151C24.0139 5.56936 24.1469 4.77828 24.0991 3.98771C24.0512 3.19713 23.8238 2.42761 23.4338 1.73695C23.0439 1.04628 22.5015 0.452432 21.8476 0V4.30594C21.8469 4.42928 21.8156 4.55055 21.7565 4.65899C21.6973 4.76742 21.6122 4.85965 21.5085 4.92749L19.2485 6.42521C19.1268 6.50931 18.9822 6.55439 18.8341 6.55439C18.686 6.55439 18.5414 6.50931 18.4198 6.42521L16.1597 4.92749C16.056 4.85965 15.9709 4.76742 15.9117 4.65899C15.8526 4.55055 15.8213 4.42928 15.8206 4.30594V0C15.1216 0.482406 14.5507 1.12624 14.157 1.87624C13.7634 2.62624 13.5587 3.46 13.5606 4.30594Z" fill="white"/>
<path d="M28.3416 14.0411L30.6016 18.5343H41.7213L39.4612 14.0411H28.3416Z" fill="white"/>
<path d="M18.6534 28.5989L26.3678 30.6508V16.4674L24.7782 19.6201C24.7173 19.7449 24.6218 19.8498 24.5031 19.9228C24.3844 19.9957 24.2473 20.0336 24.1077 20.032H15.0674V28.8086L16.0091 28.5764C16.878 28.3592 17.7884 28.3669 18.6534 28.5989Z" fill="white"/>
<path d="M6.02686 29.0183H10.547V41H6.02686V29.0183Z" fill="white"/>
<path d="M15.3836 40.2511H26.6614C27.3227 40.2517 27.9725 40.0787 28.5448 39.7494L41.2013 32.4855C41.5454 32.2854 41.7958 31.9579 41.8974 31.5747C41.9991 31.1915 41.9438 30.7839 41.7438 30.4411C41.5403 30.1035 41.2128 29.8577 40.8304 29.7557C40.4481 29.6537 40.0408 29.7034 39.6946 29.8944L32.1082 34.2453C32.1369 34.5845 32.1089 34.9261 32.0254 35.2563C31.9235 35.6372 31.7464 35.9942 31.5046 36.3066C31.2628 36.619 30.9609 36.8805 30.6166 37.076C30.1622 37.3415 29.6445 37.4811 29.1174 37.4804C28.8528 37.4792 28.5894 37.4439 28.3339 37.3755L19.3463 34.9867C19.1525 34.935 18.9872 34.809 18.8869 34.6362C18.7866 34.4635 18.7594 34.2582 18.8114 34.0656C18.8633 33.8729 18.9901 33.7087 19.1639 33.609C19.3377 33.5092 19.5442 33.4822 19.738 33.5339L28.7256 35.9302C28.9157 35.9824 29.1143 35.996 29.3097 35.9703C29.5052 35.9446 29.6934 35.88 29.8632 35.7805C30.1233 35.6342 30.3334 35.4141 30.4668 35.1484C30.6002 34.8826 30.6507 34.5833 30.6119 34.2889C30.573 33.9944 30.4466 33.7182 30.2488 33.4956C30.051 33.2731 29.7908 33.1143 29.5016 33.0396L18.2614 30.0442C17.6428 29.8783 16.9917 29.8731 16.3705 30.0292L12.0537 31.1001V39.038L13.696 39.8542C14.2194 40.1164 14.7975 40.2523 15.3836 40.2511Z" fill="white"/>
<path d="M0 30.516H4.52018V39.5023H0V30.516Z" fill="white"/>
</g>
<defs>
<clipPath id="clip0_401_394">
<rect width="42" height="41" fill="white"/>
</clipPath>
</defs>
</svg>
