<svg width="53" height="45" viewBox="0 0 53 45" fill="none" xmlns="http://www.w3.org/2000/svg">
<g clip-path="url(#clip0_401_510)">
<path fill-rule="evenodd" clip-rule="evenodd" d="M0.0866699 14.3286V28.9289H4.0634C4.4456 28.9289 4.75621 29.2385 4.75621 29.6194C4.75621 31.0776 5.94669 32.2642 7.41083 32.2642C8.87382 32.2642 10.0654 31.0776 10.0654 29.6194C10.0654 29.2373 10.3749 28.9289 10.7583 28.9289H14.735V25.6062C12.8055 25.3035 11.3252 23.6359 11.3252 21.6287C11.3252 19.6216 12.8055 17.9539 14.735 17.6512V14.3286H0.0866699ZM40.3678 23.4598L42.7834 21.0521L41.8874 20.1602C41.5433 20.6056 41.1657 21.0326 40.757 21.4411C40.3482 21.8486 39.9187 22.2238 39.4729 22.5679L40.3678 23.4598ZM41.2696 25.9181L40.5641 25.2161L44.5455 21.2478L45.2498 21.9498L41.2696 25.9181ZM45.8376 23.3183L52.3119 29.7713C52.7414 30.1949 52.9724 30.7599 52.9724 31.3642C52.9724 31.9684 52.7414 32.5335 52.3119 32.957C51.8881 33.3805 51.3223 33.613 50.7138 33.613C50.1099 33.613 49.5441 33.3794 49.1157 32.957L42.6425 26.5028L45.8376 23.3183ZM38.7697 4.56672C42.8885 8.67196 42.8885 15.3529 38.7697 19.4593C36.7744 21.4481 34.121 22.5437 31.2989 22.5437C28.4769 22.5437 25.8246 21.4481 23.8293 19.4593C21.8328 17.4706 20.7347 14.8258 20.7347 12.013C20.7347 9.20022 21.8328 6.55662 23.8293 4.56672C25.8246 2.57797 28.4769 1.48232 31.2989 1.48232C34.121 1.48232 36.7744 2.57797 38.7697 4.56672ZM22.8212 20.4629C18.1459 15.8041 18.1459 8.22196 22.8212 3.56199C25.1583 1.23258 28.2286 0.0678711 31.2989 0.0678711C34.3692 0.0678711 37.4395 1.23258 39.7778 3.56199C44.4519 8.22196 44.4519 15.8029 39.7778 20.4629C35.1025 25.1229 27.4966 25.1229 22.8212 20.4629ZM24.8085 18.4822C23.0741 16.7547 22.1204 14.4564 22.1204 12.013C22.1204 9.56966 23.0741 7.27132 24.8085 5.54383C26.5416 3.81634 28.8475 2.86455 31.2989 2.86455C33.7515 2.86455 36.0562 3.81634 37.7906 5.54383C41.3689 9.1116 41.3689 14.9156 37.7906 18.4833C36.0562 20.212 33.7515 21.1638 31.2989 21.1638C28.8475 21.1626 26.5416 20.2108 24.8085 18.4822ZM30.3694 18.2163C30.3694 18.5984 30.6789 18.9069 31.0622 18.9069C31.4444 18.9069 31.755 18.5973 31.755 18.2163V18.2129C31.755 17.8319 31.4444 17.5246 31.0622 17.5246C30.6789 17.5235 30.3694 17.8342 30.3694 18.2163ZM35.7191 8.90099C35.7191 6.74536 33.8138 5.11915 31.2874 5.11915C28.8025 5.11915 26.9481 6.72925 26.88 8.94703C26.8673 9.32797 27.1686 9.64677 27.5508 9.65828C27.9284 9.66864 28.2529 9.37056 28.2644 8.98961C28.3175 7.27938 29.8683 6.50022 31.2874 6.50022C33.0529 6.50022 34.3334 7.50956 34.3334 8.90099C34.3334 10.0496 33.7238 10.5284 32.6441 11.2741C32.3416 11.4836 32.0299 11.7 31.7215 11.9509C30.8371 12.6725 30.3694 13.6565 30.3694 14.7959V14.8799C30.3694 15.262 30.6789 15.5704 31.0622 15.5704C31.4444 15.5704 31.755 15.262 31.755 14.8799V14.7959C31.755 14.0743 32.0391 13.477 32.5991 13.02C32.8647 12.8025 33.1545 12.6023 33.4351 12.4089C34.5055 11.6677 35.7191 10.8276 35.7191 8.90099ZM16.1206 33.6314C18.0489 33.9341 19.5292 35.6029 19.5292 37.6089C19.5292 39.6149 18.0489 41.2837 16.1206 41.5864V44.9079H30.7678V30.3088H26.791C26.4088 30.3088 26.0982 29.9992 26.0982 29.6183C26.0982 28.1589 24.9078 26.9723 23.4436 26.9723C21.9806 26.9723 20.7902 28.1589 20.7902 29.6183C20.7902 29.9992 20.4795 30.3088 20.0973 30.3088H16.1206V33.6314ZM7.41083 33.6452C9.40266 33.6452 11.0619 32.202 11.391 30.3088H14.735V34.2736C14.735 34.4589 14.8089 34.6373 14.9428 34.7674C15.0745 34.8974 15.2546 34.9676 15.4405 34.9642L15.489 34.963C16.9531 34.963 18.1436 36.1496 18.1436 37.6089C18.1436 39.0671 16.9531 40.2548 15.489 40.2548H15.4405C15.2569 40.2525 15.0745 40.3216 14.9428 40.4516C14.8089 40.5817 14.735 40.7589 14.735 40.9442V44.909H0.0866699V30.3088H3.43063C3.75972 32.2009 5.419 33.6452 7.41083 33.6452Z" fill="white"/>
</g>
<defs>
<clipPath id="clip0_401_510">
<rect width="53" height="45" fill="white"/>
</clipPath>
</defs>
</svg>
