<svg width="42" height="42" viewBox="0 0 42 42" fill="none" xmlns="http://www.w3.org/2000/svg">
<g clip-path="url(#clip0_401_761)">
<path d="M35.9651 34.5347C32.1218 39.2059 26.4598 41.9006 20.4309 41.9278C14.8933 41.9528 9.64627 39.7233 5.8171 35.7672V37.1588C5.8171 37.4862 5.55279 37.7515 5.22674 37.7515C4.90069 37.7515 4.63638 37.4862 4.63638 37.1588V34.2257C4.63638 33.8983 4.90069 33.6329 5.22674 33.6329H8.14574C8.47179 33.6329 8.7361 33.8983 8.7361 34.2257C8.7361 34.553 8.47179 34.8184 8.14574 34.8184H6.54569C10.1616 38.6204 15.154 40.7662 20.4256 40.7424C26.1031 40.7167 31.4352 38.1789 35.0548 33.7798C35.2624 33.5273 35.6345 33.4918 35.8859 33.7002C36.1372 33.9087 36.1727 34.2824 35.965 34.5347H35.9651ZM1.26491 21.6766C1.22477 12.7228 7.28188 5.04455 15.83 2.97817L15.0287 4.37213C14.8657 4.65563 14.9626 5.01814 15.2449 5.18182C15.3379 5.23567 15.4393 5.26124 15.5395 5.26124C15.7435 5.26124 15.9421 5.15489 16.0514 4.9647L17.5097 2.4276C17.6726 2.14418 17.576 1.78193 17.2938 1.61817L14.7669 0.151555C14.4845 -0.0123807 14.1235 0.0846596 13.9603 0.368075C13.7971 0.65149 13.8937 1.01408 14.1759 1.17785L15.3723 1.87212C11.2892 2.90755 7.59468 5.21882 4.85195 8.48237C1.75575 12.1666 0.062598 16.8543 0.0841883 21.682C0.0950679 24.1026 0.524092 26.4666 1.35954 28.708C1.4486 28.947 1.67496 29.0942 1.91515 29.0932C1.98304 29.0929 2.05203 29.0807 2.11933 29.0554C2.42472 28.9407 2.57965 28.5992 2.46537 28.2926C1.67901 26.1828 1.2752 23.9569 1.26491 21.6767V21.6766ZM41.8371 26.6542C41.6741 26.3706 41.3132 26.2733 41.0307 26.4368L39.8347 27.1291C40.3479 25.3076 40.6041 23.4201 40.5955 21.4989C40.5738 16.6712 38.8386 11.999 35.7096 8.34299C32.6161 4.72845 28.348 2.30947 23.6916 1.53163C23.3707 1.47777 23.0659 1.69607 23.0124 2.01903C22.9589 2.34199 23.1763 2.64734 23.4979 2.70102C32.6788 4.2347 39.3729 12.1426 39.4148 21.5042C39.4232 23.3731 39.1664 25.2079 38.651 26.9746L37.8495 25.5788C37.6867 25.2952 37.3256 25.1979 37.0432 25.3614C36.7607 25.5249 36.6637 25.8873 36.8266 26.171L38.2849 28.7105C38.3631 28.8466 38.492 28.946 38.6432 28.9868C38.6937 29.0004 38.7451 29.0072 38.7964 29.0072C38.899 29.0072 39.0008 28.9803 39.0913 28.9279L41.6207 27.4637C41.9031 27.3002 42.0001 26.9378 41.8373 26.6541L41.8371 26.6542ZM15.0881 21.5904C15.0881 18.6826 17.4443 16.3169 20.3404 16.3169C23.2366 16.3169 25.5928 18.6826 25.5928 21.5904C25.5928 24.4983 23.2366 26.8641 20.3404 26.8641C17.4443 26.8641 15.0881 24.4983 15.0881 21.5904ZM21.0935 24.1275C21.0935 23.7099 20.7564 23.3739 20.3404 23.3739C19.9245 23.3739 19.5897 23.71 19.5897 24.1275C19.5897 24.5451 19.9244 24.8836 20.3404 24.8836C20.7565 24.8836 21.0935 24.5452 21.0935 24.1275ZM19.4535 19.1878L19.5898 22.2049C19.609 22.6177 19.9269 22.9562 20.3405 22.9562C20.7541 22.9562 21.0697 22.6177 21.0912 22.2049L21.2275 19.1878C21.2513 18.7006 20.8282 18.2997 20.3406 18.2997C19.8529 18.2997 19.4297 18.7006 19.4537 19.1878H19.4535ZM17.0156 10.6543L18.2844 7.89217H22.3966L23.6653 10.6543L25.6913 11.4969L28.5329 10.445L31.4412 13.365L30.3934 16.218L31.2327 18.2521L33.9838 19.526V23.6548L31.2327 24.9287L30.3934 26.9628L31.4412 29.8158L28.5329 32.7358L25.6913 31.6838L23.6653 32.5264L22.3966 35.2886H18.2844L17.0156 32.5264L14.9896 31.6838L12.1481 32.7358L9.23977 29.8157L10.2875 26.9627L9.44825 24.9286L6.69716 23.6547V19.5259L9.44825 18.252L10.2875 16.2179L9.23977 13.3649L12.1481 10.4449L14.9896 11.4967L17.0156 10.6542V10.6543ZM13.9073 21.5904C13.9073 25.152 16.7932 28.0495 20.3404 28.0495C23.8876 28.0495 26.7735 25.152 26.7735 21.5904C26.7735 18.0289 23.8876 15.1314 20.3404 15.1314C16.7932 15.1314 13.9073 18.0289 13.9073 21.5904Z" fill="white"/>
</g>
<defs>
<clipPath id="clip0_401_761">
<rect width="42" height="42" fill="white"/>
</clipPath>
</defs>
</svg>
