<svg width="42" height="41" viewBox="0 0 42 41" fill="none" xmlns="http://www.w3.org/2000/svg">
<path fill-rule="evenodd" clip-rule="evenodd" d="M21.8975 3.06805C23.5098 3.44895 25.0498 4.08358 26.461 4.94623L29.4265 3.63875L32.9216 7.10846L31.6049 10.0514C32.4742 11.4527 33.1135 12.982 33.4972 14.5831L36.5227 15.739V20.6459L35.499 21.0371C34.9247 20.4802 34.1401 20.1361 33.277 20.1361H29.1251C29.2389 19.5053 29.2983 18.8558 29.2983 18.1925C29.2983 12.1412 24.3568 7.23563 18.2612 7.23563C12.1656 7.23563 7.22417 12.1412 7.22417 18.1925C7.22417 24.1004 11.9345 28.9154 17.8301 29.1403V29.9469C17.8301 30.9264 18.2129 31.759 18.8449 32.4418V36.3211H15.7899L14.6251 33.3169C13.0127 32.936 11.4728 32.3014 10.0615 31.4387L7.09608 32.7463L3.60097 29.2766L4.91768 26.3335C4.04836 24.9323 3.40917 23.4029 3.0254 21.8019L0 20.646V15.7391L3.02592 14.5829C3.40961 12.9821 4.04889 11.4532 4.91803 10.0521L3.60106 7.10855L7.09608 3.63875L10.0615 4.94623C11.4728 4.08358 13.0127 3.44895 14.6251 3.06805L15.79 0.0638428H20.7326L21.8975 3.06805ZM24.6699 25.0666V27.8229C24.6699 28.4074 25.1516 28.8856 25.7404 28.8856H35.4897C36.0785 28.8856 36.5602 28.4074 36.5602 27.8229V25.0666H24.6699ZM28.5167 34.1096C28.5167 35.2601 29.4562 36.1927 30.6151 36.1927C31.774 36.1927 32.7135 35.2601 32.7135 34.1096C32.7135 32.9627 31.7777 32.0264 30.6151 32.0264C29.4525 32.0265 28.5167 32.9627 28.5167 34.1096ZM40.9851 31.8462C41.5845 31.3577 42 30.7477 42 29.9469V25.9143C42 25.4474 41.6164 25.0666 41.1462 25.0666H37.9603V27.8229C37.9603 29.1744 36.8512 30.2755 35.4898 30.2755H25.7404C24.379 30.2755 23.2699 29.1745 23.2699 27.8229V25.0666H20.084C19.6137 25.0666 19.2302 25.4474 19.2302 25.9143V29.947C19.2302 30.7477 19.6457 31.3577 20.245 31.8461C21.8728 33.1725 25.1193 33.5421 27.1403 33.7061C27.3418 31.9787 28.8207 30.6366 30.6151 30.6366C32.4089 30.6366 33.8874 31.9778 34.0896 33.7043C36.107 33.54 39.36 33.1704 40.9851 31.8462ZM20.245 33.5243V39.2819C20.245 40.1917 20.9948 40.9362 21.9113 40.9362H39.3186C40.2352 40.9362 40.985 40.1917 40.985 39.2819V33.5244C39.4883 34.3566 36.8779 34.8858 33.965 35.1122C33.5315 36.5412 32.1955 37.5826 30.615 37.5826C29.0345 37.5826 27.6986 36.5412 27.2649 35.1123C24.3524 34.886 21.742 34.3568 20.245 33.5243ZM35.0602 23.6768V23.2962C35.0602 22.3226 34.2578 21.526 33.277 21.526H27.9534C26.9726 21.526 26.1701 22.3226 26.1701 23.2962V23.6768H27.7488V23.2962C27.7488 23.1877 27.8441 23.0932 27.9534 23.0932H33.2771C33.3865 23.0932 33.4817 23.1877 33.4817 23.2962V23.6768H35.0602ZM11.8523 16.8541C11.0951 17.6058 11.095 18.836 11.8523 19.5877L14.8809 22.5943C15.737 23.4442 17.0284 23.8337 17.9938 22.8753L24.6705 16.247C25.4278 15.4952 25.4278 14.2651 24.6705 13.5134V13.5133C23.9133 12.7616 22.6741 12.7616 21.9168 13.5133L16.5789 18.8126L14.606 16.854C13.8486 16.1022 12.6095 16.1023 11.8523 16.8541Z" fill="white"/>
</svg>
