<svg width="42" height="42" viewBox="0 0 42 42" fill="none" xmlns="http://www.w3.org/2000/svg">
<path fill-rule="evenodd" clip-rule="evenodd" d="M9.57403 19.7259C9.56917 19.5813 9.5667 19.4363 9.5667 19.2909V6.16207C9.5667 5.94993 9.72786 5.77254 9.93901 5.7522C14.1025 5.33483 17.733 3.49655 20.4955 1.52362H29.5504C32.3129 3.49655 35.9433 5.33483 40.1068 5.75286C40.3176 5.77312 40.4785 5.95026 40.4785 6.16207C40.4792 8.34417 40.4792 19.2909 40.4792 19.2909C40.4792 28.0054 31.6344 35.327 25.0229 37.1001C22.0416 36.3003 18.6049 34.3715 15.7304 31.6952C15.424 30.6449 15.3261 29.7227 15.2996 28.8902C17.9342 31.917 21.4925 34.284 24.8507 35.3351C24.9628 35.3702 25.083 35.3702 25.1951 35.3351C29.0584 34.1259 33.1862 31.176 35.8683 27.4832C37.6817 24.9865 38.8329 22.1524 38.8329 19.2909V7.73386C38.8329 7.45534 38.6337 7.21668 38.3598 7.16669C35.0602 6.56552 31.9568 5.15506 29.1785 3.27131C29.0829 3.20659 28.9703 3.172 28.8549 3.172H21.193C21.0777 3.172 20.9651 3.20659 20.8696 3.27123C18.0892 5.15497 14.9857 6.56552 11.686 7.16669C11.4121 7.21668 11.2129 7.45534 11.2129 7.73386V19.2909C11.2129 19.5683 11.2238 19.8455 11.245 20.1222C10.6807 19.8959 10.1166 19.7745 9.57403 19.7259ZM12.4827 20.8048C12.406 20.3026 12.3659 19.7973 12.3659 19.2909V8.20928C15.5888 7.54724 18.6276 6.15902 21.369 4.32494C21.3689 4.32494 28.6788 4.32494 28.6788 4.32494C31.4183 6.15902 34.4571 7.54724 37.6799 8.20928V19.2909C37.6799 21.9185 36.6006 24.513 34.9355 26.8056C32.4398 30.2418 28.6248 33.0038 25.0229 34.1797C21.5122 33.0335 17.7991 30.3799 15.3025 27.0646C15.3055 25.2132 15.1165 23.6615 13.7837 22.0391C13.3675 21.5323 12.9302 21.1266 12.4827 20.8048ZM17.0564 14.8454V20.9478H15.9715C15.6532 20.9478 15.3951 21.2059 15.3951 21.5243V23.3749C15.3951 23.6933 15.6532 23.9514 15.9715 23.9514H34.0743C34.3927 23.9514 34.6507 23.6933 34.6507 23.3749V21.5243C34.6507 21.2059 34.3927 20.9478 34.0743 20.9478H32.9895V14.8454H34.5347C34.7819 14.8454 35.0017 14.6877 35.0808 14.4534C35.16 14.2192 35.0809 13.9605 34.8843 13.8105L25.3725 6.55514C25.1661 6.39768 24.8798 6.39768 24.6733 6.55514L15.1615 13.8105C14.9649 13.9605 14.8859 14.2192 14.965 14.4534C15.0442 14.6877 15.2639 14.8454 15.5112 14.8454H17.0564ZM24.4465 14.8454V20.9478H21.5962V14.8454H24.4465ZM28.4496 14.8454V20.9478H25.5994V14.8454H28.4496ZM16.548 22.7984V22.1007H33.4978V22.7984H16.548ZM17.2174 13.6924L25.0229 7.73855L32.8284 13.6924H17.2174ZM18.2093 14.8454H20.4433V20.9478H18.2093V14.8454ZM31.8366 20.9478H29.6025V14.8454H31.8366V20.9478ZM11.5661 36.4051L3.75258 36.4391C3.70778 35.8436 3.78791 34.9134 4.42598 33.9114L4.42614 33.9111C5.02888 32.9632 5.91945 32.211 6.56337 31.4284C7.28824 30.5474 7.72883 29.6304 7.45023 28.4859C7.49783 28.416 7.54131 28.3422 7.58026 28.2642C7.79817 27.8281 7.88554 27.2485 7.70486 26.4776C7.63223 26.1678 7.32184 25.9753 7.01203 26.0479C6.7023 26.1205 6.50976 26.4309 6.58231 26.7408C6.6841 27.1749 6.67166 27.5032 6.54887 27.7488C6.51461 27.8174 6.47253 27.8782 6.42419 27.9322C6.40673 27.9481 6.39043 27.965 6.37519 27.9827C6.17491 28.1733 5.88923 28.27 5.60256 28.3321C4.7773 28.5112 3.8738 28.3544 3.8738 28.3544C3.70737 28.3258 3.53681 28.3716 3.40711 28.4797C3.27748 28.5878 3.20172 28.7474 3.19983 28.9162C3.19513 29.3513 2.94601 29.6682 2.64197 29.7856C2.48648 29.8456 2.3156 29.8557 2.17898 29.7709C2.08419 29.7102 1.97063 29.5915 1.79604 29.4335L1.79563 29.4331C1.25696 28.9466 1.60976 28.3036 2.01921 27.7977C2.02127 27.7951 5.03671 24.2354 5.03671 24.2354C5.20108 24.0413 5.21887 23.7625 5.08044 23.5491L3.99651 21.8781C4.52439 21.9224 5.22826 22.0895 5.94267 22.5784C6.12459 22.7029 6.36168 22.7127 6.55332 22.6037C6.55332 22.6037 9.75701 20.7692 12.0018 23.5027C12.9959 24.7126 13.009 25.8919 12.9953 27.2932C12.9809 28.7725 12.9187 30.4755 13.6097 32.6462C13.6097 32.6462 12.6295 33.0429 11.947 33.3191C11.7249 31.8401 11.8707 29.9531 12.0205 28.9633C12.3948 26.4938 11.5566 25.0084 10.7637 24.1713C10.5449 23.9403 10.1797 23.9305 9.94873 24.1492C9.71773 24.368 9.70785 24.7332 9.92666 24.9642C10.5578 25.6305 11.1785 26.8248 10.8806 28.7907C10.6916 30.0387 10.5276 32.592 10.9615 34.2593C10.9624 34.263 10.9635 34.2668 10.9646 34.2705L11.5661 36.4051ZM3.25566 37.5942H3.25813L12.0304 37.556C12.8333 37.5566 13.4897 38.2141 13.4897 39.0163V40.4766H1.79192V39.0163C1.79192 38.2165 2.45494 37.5942 3.25566 37.5942Z" fill="white"/>
</svg>
