<svg width="42" height="42" viewBox="0 0 42 42" fill="none" xmlns="http://www.w3.org/2000/svg">
<g clip-path="url(#clip0_401_715)">
<path fill-rule="evenodd" clip-rule="evenodd" d="M32.164 21.8503H36.4487C36.8101 23.0036 37.8872 23.8404 39.1596 23.8404C40.7283 23.8404 42 22.5688 42 21C42 19.4312 40.7283 18.1596 39.1596 18.1596C37.8872 18.1596 36.8101 18.9964 36.4487 20.1497H32.164C31.9798 17.6985 31.0064 15.4675 29.4971 13.7101L32.5284 10.6788C32.9209 10.8837 33.3673 10.9996 33.8407 10.9996C35.4094 10.9996 36.6811 9.72795 36.6811 8.15927C36.6811 6.59059 35.4094 5.31889 33.8407 5.31889C32.272 5.31889 31.0004 6.59059 31.0004 8.15927C31.0004 8.63279 31.1164 9.07909 31.3212 9.47168L28.2899 12.503C26.5323 10.9938 24.3015 10.0202 21.8503 9.83611V5.55126C23.0036 5.18982 23.8404 4.11284 23.8404 2.84038C23.8404 1.2717 22.5688 0 21 0C19.4312 0 18.1596 1.2717 18.1596 2.84038C18.1596 4.11284 18.9964 5.1899 20.1497 5.55126V9.83594C17.6985 10.0201 15.4675 10.9936 13.7101 12.5029L10.6788 9.47151C10.8837 9.079 10.9996 8.63262 10.9996 8.1591C10.9996 6.59042 9.72795 5.31872 8.15927 5.31872C6.59059 5.31872 5.31889 6.59042 5.31889 8.1591C5.31889 9.72787 6.59059 10.9995 8.15927 10.9995C8.63271 10.9995 9.07909 10.8835 9.4716 10.6786L12.503 13.7099C10.9938 15.4674 10.0202 17.6983 9.83611 20.1495H5.55126C5.18982 18.9962 4.11284 18.1595 2.84038 18.1595C1.2717 18.1596 0 19.4312 0 21C0 22.5688 1.2717 23.8404 2.84038 23.8404C4.11293 23.8404 5.1899 23.0036 5.55126 21.8503H9.83594C10.0201 24.3015 10.9936 26.5325 12.5029 28.2899L9.47143 31.3212C9.07891 31.1164 8.63254 31.0004 8.1591 31.0004C6.59042 31.0004 5.31872 32.272 5.31872 33.8407C5.31872 35.4094 6.59042 36.6811 8.1591 36.6811C9.72778 36.6811 10.9995 35.4094 10.9995 33.8407C10.9995 33.3672 10.8835 32.9209 10.6786 32.5283L13.7099 29.497C15.4674 31.0062 17.6982 31.9798 20.1495 32.164V36.4487C18.9962 36.8101 18.1595 37.8872 18.1595 39.1596C18.1596 40.7283 19.4312 42 21 42C22.5688 42 23.8404 40.7283 23.8404 39.1596C23.8404 37.8872 23.0036 36.8101 21.8503 36.4487V32.164C24.3015 31.9798 26.5325 31.0064 28.2899 29.4971L31.3212 32.5284C31.1164 32.9209 31.0004 33.3673 31.0004 33.8407C31.0004 35.4094 32.272 36.6811 33.8407 36.6811C35.4094 36.6811 36.6811 35.4094 36.6811 33.8407C36.6811 32.272 35.4094 31.0004 33.8407 31.0004C33.3672 31.0004 32.9209 31.1164 32.5283 31.3212L29.497 28.2899C31.0062 26.5324 31.9798 24.3016 32.164 21.8503ZM21.0002 20.4881C23.7847 20.4881 26.0421 22.7455 26.0421 25.53C26.0421 28.3146 15.9579 28.3146 15.9579 25.53C15.9579 22.7455 18.2155 20.4881 21.0002 20.4881ZM23.3306 16.7116C23.3306 17.9987 22.2873 19.042 21.0002 19.042C19.713 19.042 18.6698 17.9987 18.6698 16.7116C18.6698 15.4249 19.7131 14.3817 21.0002 14.3817C22.2872 14.3816 23.3306 15.4249 23.3306 16.7116Z" fill="white"/>
</g>
<defs>
<clipPath id="clip0_401_715">
<rect width="42" height="42" fill="white"/>
</clipPath>
</defs>
</svg>
