<svg width="42" height="42" viewBox="0 0 42 42" fill="none" xmlns="http://www.w3.org/2000/svg">
<g clip-path="url(#clip0_401_537)">
<path d="M6 25.5C3.04541 25.5 1.5 29.6506 1.5 33.75C1.5 37.8494 3.04541 42 6 42C8.95459 42 10.5 37.8494 10.5 33.75C10.5 29.6506 8.95459 25.5 6 25.5Z" fill="white"/>
<path d="M41.5285 10.3114L38.6308 9.46152C38.4483 8.84024 38.2051 8.24533 37.9002 7.68777L39.3459 5.04208C39.4667 4.76019 39.4037 4.43317 39.1869 4.21628L37.7836 2.81305C37.5668 2.59625 37.2398 2.53326 36.9579 2.65402L34.3122 4.09973C33.7547 3.79477 33.1598 3.5517 32.5385 3.36923L31.6886 0.471405C31.5747 0.186676 31.2989 0 30.9922 0H29.0078C28.7011 0 28.4253 0.186676 28.3114 0.471405L27.4615 3.36923C26.8402 3.5517 26.2453 3.79477 25.6878 4.09973L23.0421 2.65402C22.7602 2.53326 22.4332 2.59625 22.2164 2.81305L20.8131 4.21628C20.5963 4.43317 20.5333 4.76019 20.6541 5.04208L22.0998 7.68777C21.7949 8.24533 21.5517 8.84024 21.3692 9.46152L18.4715 10.3114C18.1867 10.4253 18 10.701 18 11.0078V12.9922C18 13.2989 18.1867 13.5747 18.4715 13.6886L21.3692 14.5385C21.5517 15.1598 21.7949 15.7547 22.0998 16.3122L20.6541 18.9579C20.5333 19.2398 20.5963 19.5668 20.8131 19.7836L22.2164 21.1869C22.4332 21.4037 22.7602 21.4667 23.0421 21.3459L25.6878 19.9002C26.2453 20.2051 26.8402 20.4483 27.4615 20.6308L28.3114 23.5285C28.4253 23.8132 28.7011 24 29.0078 24H30.9922C31.2989 24 31.5747 23.8132 31.6886 23.5285L32.5385 20.6308C33.1598 20.4483 33.7547 20.2051 34.3122 19.9002L36.9579 21.3459C37.2398 21.4667 37.5668 21.4037 37.7836 21.1869L39.1869 19.7836C39.4037 19.5668 39.4667 19.2398 39.3459 18.9579L37.9002 16.3122C38.2051 15.7547 38.4483 15.1598 38.6308 14.5385L41.5285 13.6886C41.8133 13.5747 42 13.2989 42 12.9922V11.0078C42 10.701 41.8133 10.4253 41.5285 10.3114ZM30 16.5C27.5147 16.5 25.5 14.4853 25.5 12C25.5 9.51471 27.5147 7.5 30 7.5C32.4853 7.5 34.5 9.51471 34.5 12C34.5 14.4853 32.4853 16.5 30 16.5Z" fill="white"/>
<path d="M30 15C31.6569 15 33 13.6569 33 12C33 10.3431 31.6569 9 30 9C28.3431 9 27 10.3431 27 12C27 13.6569 28.3431 15 30 15Z" fill="white"/>
<path d="M4.5 4.5V0L0 4.5H4.5Z" fill="white"/>
<path d="M15 0H6V4.5C6 5.32846 5.32837 6 4.5 6H0V21C0 21.8285 0.671539 22.5 1.5 22.5H15C15.8284 22.5 16.5 21.8285 16.5 21V1.5C16.5 0.671539 15.8284 0 15 0ZM12.75 18H3.75C3.33545 18 3 17.6646 3 17.25C3 16.8354 3.33545 16.5 3.75 16.5H12.75C13.1646 16.5 13.5 16.8354 13.5 17.25C13.5 17.6646 13.1646 18 12.75 18ZM12.75 15H3.75C3.33545 15 3 14.6646 3 14.25C3 13.8354 3.33545 13.5 3.75 13.5H12.75C13.1646 13.5 13.5 13.8354 13.5 14.25C13.5 14.6646 13.1646 15 12.75 15ZM12.75 12H3.75C3.33545 12 3 11.6646 3 11.25C3 10.8354 3.33545 10.5 3.75 10.5H12.75C13.1646 10.5 13.5 10.8354 13.5 11.25C13.5 11.6646 13.1646 12 12.75 12Z" fill="white"/>
<path d="M22.5 33.75C22.5 37.2686 21.4052 40.2885 19.7305 42H27C29.439 42 31.5 38.2222 31.5 33.75C31.5 29.2778 29.439 25.5 27 25.5H19.7305C21.4052 27.2115 22.5 30.2314 22.5 33.75Z" fill="white"/>
<path d="M21.0001 33.75C21.0001 29.2778 18.9391 25.5 16.5001 25.5H9.38892C11.1619 27.3467 12.0001 30.6237 12.0001 33.75C12.0001 36.8763 11.1619 40.1533 9.38892 42H16.5001C18.9391 42 21.0001 38.2222 21.0001 33.75Z" fill="white"/>
<path d="M37.5 25.5H30.2305C31.9052 27.2115 33 30.2314 33 33.75C33 37.2686 31.9052 40.2885 30.2305 42H37.5C40.4546 42 42 37.8494 42 33.75C42 29.6506 40.4546 25.5 37.5 25.5Z" fill="white"/>
</g>
<defs>
<clipPath id="clip0_401_537">
<rect width="42" height="42" fill="white"/>
</clipPath>
</defs>
</svg>
