<svg width="42" height="38" viewBox="0 0 42 38" fill="none" xmlns="http://www.w3.org/2000/svg">
<g clip-path="url(#clip0_401_734)">
<path fill-rule="evenodd" clip-rule="evenodd" d="M21.0003 17.7661H19.9141C19.8533 17.7661 19.8017 17.7285 19.7829 17.6704L19.2932 16.1579C19.2851 16.1326 19.2677 16.1142 19.2431 16.1047C18.7609 15.9187 18.3157 15.658 17.921 15.3373C17.9004 15.3206 17.8759 15.3146 17.8501 15.3202L16.2985 15.6512C16.2391 15.6639 16.1808 15.6378 16.1503 15.585L15.0642 13.6967C15.0337 13.6438 15.0404 13.5801 15.0811 13.5349L16.1418 12.3525C16.1594 12.3328 16.1666 12.3086 16.1625 12.2824C16.0832 11.7748 16.0832 11.2565 16.1625 10.749C16.1665 10.7228 16.1594 10.6985 16.1418 10.6788L15.0811 9.49648C15.0404 9.45115 15.0338 9.38742 15.0642 9.33458L16.1503 7.44626C16.1807 7.39341 16.2391 7.36739 16.2985 7.38005L17.8501 7.71107C17.876 7.71661 17.9005 7.71067 17.921 7.69395C18.3157 7.37323 18.7609 7.11257 19.2431 6.92653C19.2677 6.91703 19.2851 6.89862 19.2932 6.87339L19.7829 5.36081C19.8017 5.30282 19.8532 5.26512 19.9141 5.26512H22.0864C22.1472 5.26512 22.1988 5.30272 22.2177 5.36081L22.7073 6.87339C22.7155 6.89862 22.7328 6.91703 22.7575 6.92653C23.2396 7.11257 23.6848 7.37323 24.0795 7.69395C24.1 7.71067 24.1245 7.71661 24.1505 7.71107L25.702 7.38005C25.7614 7.36739 25.8197 7.39341 25.8501 7.44626L26.9363 9.33458C26.9666 9.38742 26.96 9.45115 26.9193 9.49648L25.8587 10.6788C25.841 10.6985 25.8338 10.7228 25.8379 10.749C25.9173 11.257 25.9171 11.7741 25.8379 12.2822C25.8338 12.3084 25.8409 12.3326 25.8586 12.3523L26.9193 13.5349C26.96 13.5802 26.9666 13.6439 26.9363 13.6967L25.8501 15.585C25.8197 15.6378 25.7613 15.6639 25.702 15.6512L24.1509 15.3203C24.125 15.3147 24.1005 15.3207 24.08 15.3374C23.6852 15.6582 23.2397 15.9188 22.7574 16.1049C22.7326 16.1144 22.7154 16.1328 22.7072 16.1581L22.2177 17.6703C22.1988 17.7283 22.1473 17.766 22.0864 17.766H21.0003V17.7661ZM18.9825 13.5411C20.097 14.6598 21.9036 14.6597 23.018 13.5411C24.1326 12.4225 24.1325 10.6092 23.018 9.49044C21.9036 8.37182 20.0969 8.37182 18.9825 9.49044C17.868 10.6091 17.8679 12.4225 18.9825 13.5411ZM1.4531 26.8692C0.654808 26.8692 0.00390625 27.5225 0.00390625 28.3238V33.5712C0.00390625 34.3725 0.654808 35.0257 1.4531 35.0257H4.39557C4.42603 35.0257 4.45216 35.0405 4.46803 35.0666C4.48391 35.0927 4.48489 35.1228 4.47099 35.1499C4.38936 35.3086 4.30132 35.4628 4.20637 35.6124C3.97508 35.9763 3.69961 36.3171 3.3712 36.6297C3.35484 36.6453 3.33541 36.653 3.31284 36.653H2.38558C2.0342 36.653 1.74927 36.939 1.74927 37.2917C1.74927 37.6444 2.0342 37.9304 2.38558 37.9304H10.5869C10.9383 37.9304 11.2232 37.6444 11.2232 37.2917C11.2232 36.939 10.9383 36.653 10.5869 36.653H9.65967C9.63709 36.653 9.61767 36.6452 9.6013 36.6297C9.27289 36.3171 8.99743 35.9763 8.76613 35.6124C8.67119 35.4629 8.58305 35.3086 8.50141 35.1499C8.48741 35.1228 8.4885 35.0926 8.50437 35.0666C8.52024 35.0405 8.54637 35.0257 8.57684 35.0257H11.5194C12.3178 35.0257 12.9686 34.3724 12.9686 33.5712V28.3239C12.9686 27.5225 12.3177 26.8693 11.5194 26.8693H7.2075C7.16077 26.8693 7.12271 26.8311 7.12271 26.7842V12.4638C7.12271 12.4169 7.16077 12.3787 7.2075 12.3787H11.7902C11.837 12.3787 11.875 12.4169 11.875 12.4638V13.9574C11.875 16.13 12.7525 18.0866 14.4655 19.3963L19.3532 23.1332C19.65 23.3601 19.971 23.5202 20.3022 23.613C20.3394 23.6234 20.3642 23.6562 20.3642 23.6949V26.784C20.3642 26.8309 20.3262 26.8691 20.2795 26.8691H15.9676C15.1693 26.8691 14.5183 27.5223 14.5183 28.3237V33.5711C14.5183 34.3724 15.1692 35.0256 15.9676 35.0256H18.91C18.9405 35.0256 18.9666 35.0404 18.9825 35.0665C18.9983 35.0926 18.9993 35.1227 18.9854 35.1498C18.9038 35.3085 18.8158 35.4627 18.7207 35.6123C18.4894 35.9762 18.214 36.317 17.8856 36.6296C17.8692 36.6452 17.8498 36.6529 17.8272 36.6529H16.8999C16.5486 36.6529 16.2636 36.9389 16.2636 37.2916C16.2636 37.6443 16.5486 37.9303 16.8999 37.9303H25.1013C25.4527 37.9303 25.7376 37.6443 25.7376 37.2916C25.7376 36.9389 25.4527 36.6529 25.1013 36.6529H24.174C24.1514 36.6529 24.132 36.6451 24.1157 36.6296C23.7872 36.317 23.5118 35.9762 23.2805 35.6123C23.1855 35.4628 23.0975 35.3085 23.0159 35.1498C23.0019 35.1227 23.0029 35.0925 23.0188 35.0665C23.0346 35.0404 23.0608 35.0256 23.0913 35.0256H26.0338C26.8321 35.0256 27.483 34.3723 27.483 33.5711V28.3239C27.483 27.5225 26.832 26.8693 26.0338 26.8693H21.7218C21.6751 26.8693 21.6371 26.8311 21.6371 26.7842V23.6951C21.6371 23.6564 21.6619 23.6236 21.6991 23.6132C22.0303 23.5204 22.3513 23.3603 22.6481 23.1334L27.5359 19.3965C29.2489 18.0868 30.1264 16.1301 30.1264 13.9575V12.4638C30.1264 12.4169 30.1644 12.3787 30.2112 12.3787H34.7939C34.8406 12.3787 34.8787 12.4169 34.8787 12.4638V26.7841C34.8787 26.831 34.8406 26.8692 34.7939 26.8692H30.482C29.6837 26.8692 29.0328 27.5225 29.0328 28.3238V33.5712C29.0328 34.3725 29.6837 35.0257 30.482 35.0257H33.4245C33.4549 35.0257 33.4811 35.0405 33.4969 35.0666C33.5127 35.0927 33.5138 35.1228 33.4999 35.1499C33.4183 35.3086 33.3302 35.4628 33.2352 35.6124C33.0039 35.9763 32.7284 36.3171 32.4 36.6297C32.3836 36.6453 32.3642 36.653 32.3416 36.653H31.4144C31.063 36.653 30.7781 36.939 30.7781 37.2917C30.7781 37.6444 31.063 37.9304 31.4144 37.9304H39.6157C39.9671 37.9304 40.252 37.6444 40.252 37.2917C40.252 36.939 39.9671 36.653 39.6157 36.653H38.6885C38.6659 36.653 38.6465 36.6452 38.6301 36.6297C38.3017 36.3171 38.0262 35.9763 37.7949 35.6124C37.7 35.4629 37.6119 35.3086 37.5302 35.1499C37.5162 35.1228 37.5173 35.0926 37.5332 35.0666C37.549 35.0405 37.5752 35.0257 37.6056 35.0257H40.5482C41.3466 35.0257 41.9974 34.3724 41.9974 33.5712V28.3239C41.9974 27.5225 41.3465 26.8693 40.5482 26.8693H36.2363C36.1896 26.8693 36.1515 26.8311 36.1515 26.7842V11.7401C36.1515 11.3874 35.8666 11.1014 35.5152 11.1014H30.2114C30.1646 11.1014 30.1266 11.0632 30.1266 11.0163V4.06822C30.1266 3.71553 29.8417 3.42954 29.4903 3.42954C26.4699 3.42954 23.638 2.25332 21.4283 0.235363C21.19 0.0169617 20.8208 0.0121128 20.5767 0.233878C18.3541 2.25441 15.5447 3.42954 12.5118 3.42954C12.1604 3.42954 11.8755 3.71553 11.8755 4.06822V11.0163C11.8755 11.0632 11.8375 11.1014 11.7907 11.1014H6.48689C6.13551 11.1014 5.85058 11.3874 5.85058 11.7401V26.7841C5.85058 26.831 5.81253 26.8692 5.76579 26.8692H1.4531ZM6.99454 35.0258C7.02974 35.0258 7.05981 35.0461 7.07302 35.0788C7.27888 35.5848 7.53374 36.0687 7.84529 36.5195C7.86372 36.5462 7.86579 36.5787 7.85071 36.6075C7.83572 36.6363 7.80792 36.6531 7.77558 36.6531H5.19643C5.16409 36.6531 5.13629 36.6363 5.1213 36.6075C5.10632 36.5787 5.10829 36.5461 5.12672 36.5195C5.43827 36.0687 5.69303 35.5849 5.89899 35.0788C5.9123 35.0461 5.94237 35.0258 5.97747 35.0258H6.99454ZM21.5087 35.0258C21.5439 35.0258 21.574 35.0461 21.5872 35.0788C21.7931 35.5849 22.0479 36.0687 22.3594 36.5195C22.3779 36.5462 22.3799 36.5787 22.3649 36.6075C22.3499 36.6363 22.3221 36.6531 22.2897 36.6531H19.7106C19.6782 36.6531 19.6504 36.6363 19.6355 36.6075C19.6205 36.5787 19.6224 36.5461 19.6409 36.5195C19.9524 36.0687 20.2072 35.5849 20.4131 35.0788C20.4265 35.0461 20.4565 35.0258 20.4916 35.0258H21.5087ZM36.0229 35.0258C36.058 35.0258 36.088 35.0461 36.1013 35.0788C36.3072 35.5848 36.562 36.0687 36.8736 36.5195C36.892 36.5462 36.8941 36.5787 36.879 36.6075C36.864 36.6363 36.8362 36.6531 36.8039 36.6531H34.2247C34.1924 36.6531 34.1646 36.6363 34.1496 36.6075C34.1346 36.5787 34.1366 36.5461 34.155 36.5195C34.4666 36.0687 34.7213 35.5849 34.9273 35.0788C34.9406 35.0461 34.9707 35.0258 35.0058 35.0258H36.0229Z" fill="white"/>
</g>
<defs>
<clipPath id="clip0_401_734">
<rect width="42" height="38" fill="white" transform="translate(0.000244141 3.05176e-05)"/>
</clipPath>
</defs>
</svg>
