<svg width="42" height="42" viewBox="0 0 42 42" fill="none" xmlns="http://www.w3.org/2000/svg">
<g clip-path="url(#clip0_401_311)">
<path fill-rule="evenodd" clip-rule="evenodd" d="M24.193 27.8261C22.3993 27.8261 21.4993 29.9992 22.7676 31.2673C23.0011 31.5009 23.0011 31.8799 22.7676 32.1135L21.4794 33.4016C21.2457 33.6352 20.8669 33.6352 20.6332 33.4016C19.3649 32.1333 17.192 33.0333 17.192 34.827C17.192 35.1576 16.924 35.4252 16.5936 35.4252H14.7721C14.4417 35.4252 14.1738 35.1575 14.1738 34.827C14.1738 33.0311 12.0024 32.1317 10.7326 33.4016C10.499 33.6352 10.12 33.6352 9.88637 33.4016L8.59823 32.1135C8.36456 31.8799 8.36456 31.501 8.59823 31.2673C9.86649 29.9991 8.96651 27.8261 7.17281 27.8261C6.84224 27.8261 6.57449 27.5582 6.57449 27.2278V25.4062C6.57449 25.0759 6.84224 24.8078 7.17281 24.8078C8.96651 24.8078 9.86641 22.6349 8.59823 21.3666C8.36456 21.133 8.36456 20.7541 8.59823 20.5204L9.88637 19.2323C10.12 18.9987 10.4989 18.9987 10.7326 19.2323C12.0008 20.5005 14.1738 19.6005 14.1738 17.8068C14.1738 17.4763 14.4417 17.2085 14.7721 17.2085H16.5936C16.924 17.2085 17.192 17.4763 17.192 17.8068C17.192 19.6005 19.3649 20.5004 20.6332 19.2323C20.8668 18.9987 21.2457 18.9987 21.4794 19.2323L22.7676 20.5204C23.0011 20.7541 23.0011 21.1329 22.7676 21.3666C21.4993 22.6349 22.3993 24.8078 24.193 24.8078C24.5235 24.8078 24.7913 25.0758 24.7913 25.4062V27.2278C24.7913 27.5582 24.5235 27.8261 24.193 27.8261ZM31.7573 13.3155L30.2137 13.3193C29.8788 13.3201 29.6049 13.0479 29.6037 12.713C29.5965 10.6199 29.5893 8.52691 29.5821 6.43388C29.5808 6.09539 29.8505 5.82419 30.189 5.82333L31.7326 5.81955C32.0675 5.81869 32.3413 6.091 32.3425 6.42588C32.3498 8.51891 32.3571 10.6119 32.3643 12.705C32.3654 13.0435 32.0958 13.3147 31.7573 13.3155ZM16.1115 11.1621L14.5055 12.7681C7.48601 13.3702 2.08367 19.2634 2.08367 26.317C2.08367 31.0481 4.53852 35.43 8.56785 37.9084C8.85118 38.0825 9.22212 37.994 9.39623 37.7107C9.57034 37.4274 9.48187 37.0564 9.19854 36.8823C5.51751 34.6182 3.28859 30.639 3.28859 26.317C3.28859 19.9133 8.17513 14.5544 14.5444 13.9743L16.1115 15.5414C16.3467 15.7766 16.7282 15.7766 16.9635 15.5414C17.1987 15.3062 17.1987 14.9248 16.9635 14.6895L16.2077 13.9337C22.8389 14.2098 28.0775 19.6764 28.0775 26.3171C28.0775 33.1572 22.5395 38.7115 15.6957 38.7115H0.645428C0.312698 38.7115 0.0429688 38.9812 0.0429688 39.3139C0.0429688 39.6467 0.312698 39.9164 0.645428 39.9164H15.6957C23.1985 39.9164 29.2824 33.8165 29.2824 26.317C29.2824 19.0269 23.528 13.027 16.2481 12.7294L16.9635 12.014C17.1987 11.7788 17.1987 11.3974 16.9635 11.1621C16.7282 10.9268 16.3467 10.9268 16.1115 11.1621ZM29.2661 39.9163H23.2618C22.9291 39.9163 22.6594 39.6466 22.6594 39.3139C22.6594 38.9811 22.9291 38.7114 23.2618 38.7114H29.2661L28.2539 37.6993C28.0187 37.4641 28.0187 37.0826 28.2539 36.8474C28.4891 36.6122 28.8705 36.6122 29.1059 36.8474L31.1465 38.888C31.3817 39.1232 31.3817 39.5047 31.1465 39.74L29.1059 41.7806C28.8706 42.0158 28.4892 42.0158 28.2539 41.7806C28.0187 41.5454 28.0187 41.1639 28.2539 40.9286L29.2661 39.9163ZM27.2593 12.1105C27.592 12.1105 27.8618 12.3802 27.8618 12.713C27.8618 13.0457 27.592 13.3154 27.2593 13.3154H23.5497C23.217 13.3154 22.9473 13.0457 22.9473 12.713C22.9473 12.3802 23.217 12.1105 23.5497 12.1105H27.2593ZM27.2593 5.21717C27.592 5.21717 27.8618 5.4869 27.8618 5.81963C27.8618 6.15236 27.592 6.42209 27.2593 6.42209H21.2816C20.9489 6.42209 20.6792 6.15236 20.6792 5.81963C20.6792 5.4869 20.9489 5.21717 21.2816 5.21717H27.2593ZM27.2593 8.96696C27.592 8.96696 27.8618 9.23669 27.8618 9.56942C27.8618 9.90215 27.592 10.1719 27.2593 10.1719H22.482C22.1493 10.1719 21.8795 9.90215 21.8795 9.56942C21.8795 9.23669 22.1493 8.96696 22.482 8.96696H27.2593ZM33.4584 13.3336C33.5498 13.3711 33.6499 13.392 33.7548 13.392L39.3602 13.3774C39.9005 13.3656 40.3671 12.9151 40.3699 12.3621C40.3727 11.8093 39.8877 11.4977 39.6259 11.3521C40.4762 11.3552 40.9428 10.9047 40.9455 10.3518C40.9483 9.79905 40.4905 9.45496 40.2142 9.34187C41.0771 9.34505 41.5438 8.89458 41.5465 8.34161C41.5494 7.78881 41.234 7.44231 40.7198 7.33223C41.4874 7.39696 41.954 6.88547 41.9567 6.3325C41.9595 5.77961 41.7194 5.39085 41.0207 5.32966L37.7128 5.33414C36.8011 5.32794 36.7115 5.34696 36.577 5.22604C36.4426 5.10512 36.3887 4.93307 36.4302 4.75707L37.1501 1.70475C37.3247 0.986104 36.8796 0.255321 36.161 0.08078C35.4424 -0.0938471 34.7116 0.351284 34.537 1.06993L33.8573 3.86818C33.7887 4.15048 33.4053 4.63615 33.0347 5.16579C33.3503 5.49095 33.5455 5.93367 33.5472 6.42166C33.5544 8.51469 33.5617 10.6077 33.569 12.7007C33.5699 12.9234 33.5307 13.1366 33.4584 13.3336ZM15.683 22.407C13.5235 22.407 11.7729 24.1575 11.7729 26.317C11.7729 28.4765 13.5235 30.2271 15.683 30.2271C17.8424 30.2271 19.593 28.4765 19.593 26.317C19.593 24.1575 17.8424 22.407 15.683 22.407Z" fill="white"/>
</g>
<defs>
<clipPath id="clip0_401_311">
<rect width="42" height="42" fill="white"/>
</clipPath>
</defs>
</svg>
