<svg width="42" height="39" viewBox="0 0 42 39" fill="none" xmlns="http://www.w3.org/2000/svg">
<g clip-path="url(#clip0_401_645)">
<path fill-rule="evenodd" clip-rule="evenodd" d="M24.8776 15.4104L34.6828 32.3068C35.4889 33.696 35.4889 35.3724 34.6828 36.7616C33.8767 38.1508 32.4174 38.9889 30.8051 38.9889H11.1948C9.58256 38.9889 8.12324 38.1507 7.3171 36.7616C6.51096 35.3725 6.51096 33.696 7.3171 32.3068L17.1223 15.4104C17.9284 14.0212 19.3877 13.183 21 13.183C22.6123 13.183 24.0715 14.0213 24.8776 15.4104ZM30.284 14.8118L34.0923 10.3494C34.2451 10.1704 34.1176 9.89616 33.8814 9.89616H32.0452V1.36273H28.1012V9.89607H26.2649C26.0288 9.89607 25.9011 10.1703 26.054 10.3494L29.8623 14.8117C29.9729 14.9413 30.1737 14.9413 30.284 14.8118ZM14.1155 13.46L17.9238 8.99767C18.0766 8.81861 17.949 8.54439 17.7129 8.54439H15.8767V0.0110474H11.9326V8.54439H10.0964C9.8602 8.54439 9.73262 8.81861 9.88549 8.99767L13.6937 13.46C13.8042 13.5896 14.005 13.5895 14.1155 13.46ZM4.29651 28.6727L8.10477 24.2102C8.25764 24.0311 8.13006 23.7569 7.8939 23.7569H6.05771V13.0667H2.11365V23.7569H0.277373C0.0412106 23.7569 -0.0863644 24.0311 0.0664981 24.2102L3.87476 28.6727C3.98527 28.8022 4.186 28.8021 4.29651 28.6727ZM38.1252 27.1505L41.9335 22.6881C42.0864 22.509 41.9588 22.2348 41.7226 22.2348H39.8864V11.5446H35.9424V22.2349H34.1061C33.8699 22.2349 33.7424 22.5091 33.8952 22.6882L37.7035 27.1506C37.814 27.2801 38.0147 27.28 38.1252 27.1505ZM21 32.7703C20.1706 32.7703 19.4983 33.4392 19.4983 34.2643C19.4983 35.0894 20.1707 35.7583 21 35.7583C21.8293 35.7583 22.5017 35.0895 22.5017 34.2643C22.5017 33.4392 21.8293 32.7703 21 32.7703ZM21 30.1033C21.6308 30.1033 22.1486 29.6063 22.1714 28.9792L22.4677 20.8156C22.4918 20.1512 21.9646 19.6073 21.2963 19.6073C20.8773 19.6073 21.1225 19.6073 20.7036 19.6073C20.0354 19.6073 19.5081 20.1512 19.5322 20.8156L19.8286 28.9792C19.8513 29.6064 20.3692 30.1033 21 30.1033Z" fill="white"/>
</g>
<defs>
<clipPath id="clip0_401_645">
<rect width="42" height="39" fill="white"/>
</clipPath>
</defs>
</svg>
