<svg width="52" height="36" viewBox="0 0 52 36" fill="none" xmlns="http://www.w3.org/2000/svg">
<g clip-path="url(#clip0_401_576)">
<path d="M2.78571 9.31354H2.96214V11.5153H25.5357C25.368 11.0236 25.3418 10.4947 25.46 9.98875C25.5782 9.48284 25.8361 9.02033 26.2043 8.65393L29.2036 5.66244C29.493 5.36972 29.8441 5.14527 30.2313 5.00545C30.6184 4.86563 31.0318 4.81395 31.4414 4.85418V2.83818C31.4408 2.09918 31.1472 1.3906 30.6249 0.868044C30.1026 0.345487 29.3943 0.0516622 28.6557 0.0510864H2.78571C2.04756 0.0532408 1.34025 0.347572 0.818295 0.869788C0.296339 1.392 0.00215334 2.09966 0 2.83818V6.52644C0.00215334 7.26496 0.296339 7.97262 0.818295 8.49484C1.34025 9.01705 2.04756 9.31138 2.78571 9.31354ZM12.0529 3.74863C12.2959 3.75351 12.5274 3.85353 12.6975 4.02723C12.8677 4.20093 12.963 4.43447 12.963 4.67769C12.963 4.92092 12.8677 5.15445 12.6975 5.32814C12.5273 5.50183 12.2959 5.60184 12.0528 5.6067C11.8097 5.60183 11.5783 5.5018 11.4081 5.3281C11.2379 5.1544 11.1426 4.92087 11.1426 4.67764C11.1426 4.43441 11.238 4.20089 11.4082 4.02719C11.5783 3.8535 11.8098 3.75349 12.0529 3.74863ZM8.33857 3.74863C8.58162 3.75351 8.81308 3.85353 8.98325 4.02723C9.15342 4.20093 9.24873 4.43447 9.24872 4.67769C9.24872 4.92092 9.15339 5.15445 8.98321 5.32814C8.81303 5.50183 8.58157 5.60184 8.33851 5.6067C8.09546 5.60183 7.864 5.5018 7.69383 5.3281C7.52366 5.1544 7.42835 4.92087 7.42836 4.67764C7.42836 4.43441 7.52369 4.20089 7.69387 4.02719C7.86405 3.8535 8.09551 3.75349 8.33857 3.74863ZM4.62428 3.74863C4.86734 3.75351 5.0988 3.85353 5.26897 4.02723C5.43914 4.20093 5.53445 4.43447 5.53444 4.67769C5.53443 4.92092 5.43911 5.15445 5.26893 5.32814C5.09875 5.50183 4.86729 5.60184 4.62423 5.6067C4.38117 5.60183 4.14971 5.5018 3.97955 5.3281C3.80938 5.1544 3.71406 4.92087 3.71407 4.67764C3.71408 4.43441 3.80941 4.20089 3.97958 4.02719C4.14976 3.8535 4.38123 3.75349 4.62428 3.74863Z" fill="white"/>
<path d="M29.2036 30.3376C28.8005 29.8647 25.9083 27.2027 25.7121 26.6865H2.78571C2.04756 26.6886 1.34026 26.983 0.818306 27.5052C0.296351 28.0274 0.00216309 28.735 0 29.4736V33.1618C0.00216309 33.9003 0.296351 34.608 0.818306 35.1302C1.34026 35.6524 2.04756 35.9468 2.78571 35.9489H28.6557C29.3943 35.9483 30.1026 35.6545 30.6249 35.1319C31.1472 34.6094 31.4408 33.9008 31.4414 33.1618V31.1458C31.0318 31.1861 30.6184 31.1344 30.2312 30.9946C29.8441 30.8548 29.493 30.6303 29.2036 30.3376ZM4.62428 32.2514C4.38123 32.2465 4.14977 32.1465 3.9796 31.9728C3.80943 31.7991 3.71412 31.5655 3.71413 31.3223C3.71413 31.0791 3.80946 30.8456 3.97964 30.6719C4.14982 30.4982 4.38128 30.3982 4.62434 30.3933C4.8674 30.3982 5.09885 30.4982 5.26902 30.6719C5.43919 30.8456 5.5345 31.0791 5.5345 31.3224C5.53449 31.5656 5.43916 31.7991 5.26898 31.9728C5.0988 32.1465 4.86734 32.2465 4.62428 32.2514ZM8.33857 32.2514C8.09551 32.2465 7.86405 32.1465 7.69389 31.9728C7.52372 31.7991 7.4284 31.5655 7.42841 31.3223C7.42842 31.0791 7.52375 30.8456 7.69392 30.6719C7.8641 30.4982 8.09557 30.3982 8.33862 30.3933C8.58168 30.3982 8.81314 30.4982 8.98331 30.6719C9.15348 30.8456 9.24879 31.0791 9.24878 31.3224C9.24877 31.5656 9.15345 31.7991 8.98327 31.9728C8.81309 32.1465 8.58162 32.2465 8.33857 32.2514ZM12.0529 32.2514C11.8098 32.2465 11.5783 32.1465 11.4082 31.9728C11.238 31.7991 11.1427 31.5655 11.1427 31.3223C11.1427 31.0791 11.238 30.8456 11.4082 30.6719C11.5784 30.4982 11.8099 30.3982 12.0529 30.3933C12.296 30.3982 12.5274 30.4982 12.6976 30.6719C12.8678 30.8456 12.9631 31.0791 12.9631 31.3224C12.9631 31.5656 12.8677 31.7991 12.6976 31.9728C12.5274 32.1465 12.2959 32.2465 12.0529 32.2514Z" fill="white"/>
<path d="M2.78571 22.6266H2.96214V24.8284H25.4428C25.5374 24.3788 25.738 23.9584 26.0278 23.6021L26.5386 22.9796L25.7214 22.896C25.0326 22.8289 24.3938 22.5069 23.93 21.993C23.4662 21.4792 23.2109 20.8105 23.2143 20.1182V15.8818C23.2118 15.3591 23.3569 14.8464 23.6329 14.4027C23.9089 13.9589 24.3045 13.6021 24.7743 13.3734H2.78571C2.04708 13.374 1.33886 13.6678 0.816563 14.1904C0.294267 14.7129 0.000585289 15.4215 0 16.1605V19.8395C0.000575467 20.5785 0.294254 21.2871 0.816552 21.8096C1.33885 22.3322 2.04707 22.626 2.78571 22.6266ZM12.0529 17.071C12.2959 17.0758 12.5274 17.1759 12.6975 17.3496C12.8677 17.5233 12.963 17.7568 12.963 18C12.963 18.2432 12.8677 18.4768 12.6975 18.6505C12.5273 18.8242 12.2959 18.9242 12.0528 18.929C11.8097 18.9242 11.5783 18.8241 11.4081 18.6504C11.2379 18.4767 11.1426 18.2432 11.1426 18C11.1426 17.7567 11.238 17.5232 11.4082 17.3495C11.5783 17.1758 11.8098 17.0758 12.0529 17.071ZM8.33857 17.071C8.58162 17.0758 8.81308 17.1759 8.98325 17.3496C9.15342 17.5233 9.24873 17.7568 9.24872 18C9.24872 18.2432 9.15339 18.4768 8.98321 18.6505C8.81303 18.8242 8.58157 18.9242 8.33851 18.929C8.09546 18.9242 7.864 18.8241 7.69383 18.6504C7.52366 18.4767 7.42835 18.2432 7.42836 18C7.42836 17.7567 7.52369 17.5232 7.69387 17.3495C7.86405 17.1758 8.09551 17.0758 8.33857 17.071ZM4.62428 17.071C4.86734 17.0758 5.0988 17.1759 5.26897 17.3496C5.43914 17.5233 5.53445 17.7568 5.53444 18C5.53443 18.2432 5.43911 18.4768 5.26893 18.6505C5.09875 18.8242 4.86728 18.9242 4.62423 18.929C4.38117 18.9242 4.14971 18.8241 3.97954 18.6504C3.80938 18.4767 3.71406 18.2432 3.71407 18C3.71408 17.7567 3.8094 17.5232 3.97958 17.3495C4.14976 17.1758 4.38123 17.0758 4.62428 17.071Z" fill="white"/>
<path d="M51.1641 14.9527L49.0284 14.7391C48.8302 14.704 48.6439 14.6195 48.487 14.4933C48.33 14.3671 48.2074 14.2033 48.1306 14.0171C48.0537 13.8309 48.0251 13.6283 48.0473 13.4281C48.0695 13.2279 48.1419 13.0365 48.2577 12.8717L49.6134 11.218C49.7605 11.0407 49.8363 10.815 49.826 10.5848C49.8157 10.3546 49.72 10.1366 49.5577 9.97313L46.5584 6.97236C46.3951 6.80994 46.1771 6.71425 45.9471 6.70394C45.717 6.69363 45.4914 6.76946 45.3141 6.91662L43.652 8.273C43.4872 8.38576 43.2969 8.4556 43.0982 8.47617C42.8996 8.49675 42.699 8.46743 42.5146 8.39086C42.3302 8.31429 42.1678 8.19289 42.0421 8.03766C41.9164 7.88244 41.8315 7.69829 41.7949 7.50191L41.5813 5.36513C41.5582 5.13518 41.4502 4.9221 41.2785 4.7675C41.1068 4.61289 40.8837 4.52786 40.6527 4.529H36.4184C36.1874 4.52786 35.9643 4.61289 35.7926 4.7675C35.6209 4.9221 35.513 5.13518 35.4899 5.36513L35.2763 7.50191C35.2397 7.69828 35.1547 7.88242 35.029 8.03763C34.9033 8.19285 34.7409 8.31424 34.5565 8.3908C34.3721 8.46736 34.1715 8.49668 33.9729 8.4761C33.7743 8.45552 33.584 8.38569 33.4192 8.27294L31.757 6.91662C31.5798 6.76946 31.3542 6.69363 31.1241 6.70394C30.894 6.71425 30.6761 6.80994 30.5127 6.97236L27.5134 9.97313C27.3511 10.1366 27.2555 10.3546 27.2452 10.5848C27.2349 10.815 27.3107 11.0407 27.4577 11.218L28.8134 12.881C28.9264 13.0458 28.9965 13.2363 29.0172 13.4351C29.0379 13.6339 29.0087 13.8347 28.9321 14.0193C28.8555 14.2039 28.7341 14.3665 28.5787 14.4922C28.4234 14.6179 28.2392 14.7027 28.0427 14.7391L25.907 14.9527C25.6772 14.9759 25.4642 15.0838 25.3097 15.2556C25.1551 15.4274 25.0701 15.6507 25.0713 15.8818V20.1182C25.0701 20.3493 25.1551 20.5725 25.3097 20.7443C25.4642 20.9161 25.6772 21.0241 25.907 21.0472L28.0427 21.2609C28.2399 21.2978 28.4247 21.3834 28.5804 21.51C28.7361 21.6365 28.8577 21.7999 28.9343 21.9854C29.0109 22.1709 29.0399 22.3726 29.0188 22.5722C28.9977 22.7717 28.9271 22.9629 28.8134 23.1282L27.4577 24.7819C27.3107 24.9592 27.2349 25.185 27.2452 25.4151C27.2555 25.6453 27.3511 25.8634 27.5134 26.0268L30.5127 29.0276C30.6761 29.19 30.894 29.2857 31.1241 29.296C31.3542 29.3063 31.5798 29.2305 31.757 29.0833L33.4192 27.7269C33.584 27.6142 33.7743 27.5444 33.9729 27.5238C34.1715 27.5032 34.3721 27.5325 34.5565 27.6091C34.741 27.6857 34.9034 27.8071 35.0291 27.9623C35.1547 28.1175 35.2397 28.3017 35.2763 28.4981L35.4899 30.6349C35.513 30.8648 35.6209 31.0779 35.7926 31.2325C35.9643 31.3871 36.1874 31.4721 36.4184 31.471H40.6527C40.8837 31.4721 41.1068 31.3871 41.2785 31.2325C41.4502 31.0779 41.5582 30.8648 41.5813 30.6349L41.7949 28.4981C41.8254 28.2935 41.9105 28.101 42.0413 27.9407C42.172 27.7805 42.3435 27.6585 42.5377 27.5876C42.7193 27.5109 42.9179 27.4833 43.1135 27.5078C43.3091 27.5323 43.4949 27.6078 43.652 27.7269L45.3141 29.0833C45.4914 29.2305 45.717 29.3063 45.9471 29.296C46.1771 29.2857 46.3951 29.19 46.5584 29.0276L49.5577 26.0268C49.72 25.8634 49.8157 25.6453 49.826 25.4151C49.8363 25.1849 49.7605 24.9592 49.6134 24.7819L48.2577 23.1189C48.1447 22.9541 48.0747 22.7636 48.0539 22.5648C48.0332 22.366 48.0625 22.1652 48.139 21.9806C48.2156 21.796 48.3371 21.6334 48.4924 21.5078C48.6478 21.3821 48.832 21.2972 49.0285 21.2609L51.1641 21.0472C51.394 21.0241 51.607 20.9161 51.7615 20.7443C51.916 20.5725 52.001 20.3493 51.9999 20.1182V15.8818C52.001 15.6507 51.916 15.4274 51.7615 15.2556C51.607 15.0838 51.394 14.9759 51.1641 14.9527ZM38.5356 22.6451C32.399 22.4538 32.4004 13.5453 38.5357 13.3548C44.6722 13.5462 44.6708 22.4547 38.5356 22.6451Z" fill="white"/>
</g>
<defs>
<clipPath id="clip0_401_576">
<rect width="52" height="36" fill="white"/>
</clipPath>
</defs>
</svg>
