<svg width="42" height="40" viewBox="0 0 42 40" fill="none" xmlns="http://www.w3.org/2000/svg">
<g clip-path="url(#clip0_401_148)">
<path fill-rule="evenodd" clip-rule="evenodd" d="M39.375 35.8442C39.3744 36.2361 39.2197 36.6118 38.9446 36.8889C38.6695 37.1661 38.2966 37.3221 37.9076 37.3227H4.09238C3.70326 37.3224 3.33015 37.1665 3.05501 36.8893C2.77988 36.6121 2.62522 36.2362 2.625 35.8442V33.0936H13.1086L13.8751 35.4704C13.9604 35.736 14.1272 35.9676 14.3514 36.1317C14.5755 36.2958 14.8456 36.3841 15.1227 36.3838H26.877C27.1539 36.3835 27.4237 36.295 27.6478 36.131C27.8719 35.967 28.0388 35.7358 28.1246 35.4704L28.8912 33.0936H39.375V35.8442ZM26.1311 33.0936H15.8689L16.0775 33.7392H25.9225L26.1311 33.0936ZM12.7669 13.69C12.7632 13.601 12.7613 13.5102 12.7613 13.4193C12.7613 13.3284 12.7632 13.2375 12.7669 13.1466C12.7854 12.7166 12.7121 12.2876 12.552 11.8886C12.3919 11.4895 12.1487 11.1298 11.8388 10.8335L11.0121 10.0252C10.9401 9.95886 10.8932 9.8693 10.8795 9.77192C10.8658 9.67453 10.8861 9.57537 10.937 9.49143L12.594 6.60292C12.64 6.51641 12.7146 6.44892 12.8049 6.41224C12.8953 6.37556 12.9955 6.37203 13.0882 6.40226L14.1967 6.71837C14.6066 6.84054 15.0378 6.87266 15.4611 6.81256C15.8844 6.75247 16.29 6.60156 16.6505 6.37002C16.8026 6.27349 16.9605 6.18267 17.1201 6.09556C17.4984 5.89717 17.8301 5.61927 18.0926 5.28064C18.3552 4.942 18.5425 4.55053 18.642 4.13267L18.9238 3.00639C18.945 2.91076 18.9986 2.82557 19.0755 2.76546C19.1523 2.70536 19.2475 2.67409 19.3447 2.67705H22.6551C22.7524 2.67409 22.8476 2.70536 22.9244 2.76546C23.0012 2.82557 23.0548 2.91076 23.076 3.00639L23.3578 4.13267C23.4573 4.55059 23.6447 4.94213 23.9073 5.2808C24.1699 5.61947 24.5016 5.89737 24.8801 6.09573C25.0397 6.18283 25.1975 6.27366 25.3498 6.37019C25.7102 6.60172 26.1158 6.75263 26.5391 6.81273C26.9624 6.87282 27.3936 6.8407 27.8035 6.71854L28.912 6.40242C29.0047 6.37236 29.1048 6.37597 29.1951 6.41263C29.2854 6.4493 29.3601 6.51669 29.4062 6.60308L31.0615 9.49159C31.1126 9.57531 31.1333 9.67437 31.1199 9.77176C31.1066 9.86916 31.06 9.95883 30.9881 10.0254L30.1596 10.8337C29.85 11.13 29.607 11.4898 29.4472 11.8889C29.2874 12.2879 29.2145 12.7168 29.2333 13.1467C29.2352 13.2376 29.2371 13.3285 29.2371 13.4194C29.2371 13.5104 29.2352 13.6013 29.2333 13.6922C29.2143 14.1218 29.2872 14.5505 29.447 14.9492C29.6068 15.348 29.8498 15.7075 30.1596 16.0033L30.9881 16.8132C31.0603 16.8792 31.1072 16.9686 31.1206 17.0658C31.134 17.163 31.1131 17.2619 31.0615 17.3451L29.4062 20.2337C29.3607 20.3207 29.2862 20.3887 29.1958 20.4258C29.1054 20.4629 29.0048 20.4666 28.912 20.4362L27.8035 20.1182C27.3931 19.9959 26.9615 19.9639 26.5378 20.0243C26.1141 20.0848 25.7082 20.2362 25.3477 20.4685C25.1954 20.5631 25.0376 20.6558 24.8801 20.7412C24.5017 20.9399 24.17 21.2182 23.9074 21.5571C23.6449 21.8961 23.4576 22.2879 23.3582 22.706L23.0764 23.8304C23.0555 23.9263 23.0021 24.012 22.9252 24.0724C22.8484 24.1329 22.753 24.1645 22.6555 24.1616H19.3448C19.2473 24.1645 19.1519 24.1329 19.075 24.0724C18.9982 24.012 18.9447 23.9263 18.9239 23.8304L18.6421 22.706C18.5427 22.2878 18.3553 21.896 18.0927 21.557C17.8301 21.218 17.4984 20.9398 17.1199 20.741C16.9603 20.6558 16.8025 20.5631 16.6503 20.4683C16.1731 20.1618 15.6192 19.9984 15.0532 19.9972C14.7635 19.9977 14.4752 20.0385 14.1965 20.1184L13.088 20.4364C12.9953 20.4662 12.8952 20.4624 12.805 20.4258C12.7148 20.3892 12.6401 20.3219 12.5938 20.2357L10.9368 17.3453C10.886 17.2617 10.8657 17.1628 10.8794 17.0657C10.8931 16.9686 10.94 16.8794 11.012 16.8134L11.8387 16.0035C12.1488 15.7075 12.3922 15.3477 12.5524 14.9486C12.7125 14.5496 12.7856 14.1205 12.7668 13.6904L12.7669 13.69ZM40.6864 30.449H40.2055V9.76606C40.2049 9.1623 39.9666 8.58344 39.5428 8.15652C39.119 7.72961 38.5445 7.48952 37.9452 7.48895H32.9438L31.6793 5.28184C31.3394 4.68679 30.8116 4.22341 30.18 3.96545C29.5485 3.7075 28.8494 3.66981 28.1941 3.85837L27.0857 4.17449C27.0278 4.19526 26.9657 4.20161 26.9049 4.19297C26.844 4.18434 26.7861 4.16098 26.7362 4.1249C26.537 3.99812 26.3285 3.87697 26.118 3.76531C26.0627 3.73897 26.0143 3.69988 25.9768 3.65121C25.9393 3.60254 25.9136 3.54565 25.9019 3.48515L25.6221 2.36118C25.4557 1.69556 25.0735 1.10498 24.536 0.6832C23.9985 0.26142 23.3365 0.0326067 22.6552 0.0330818H19.3448C18.6635 0.0326097 18.0015 0.261448 17.4641 0.683264C16.9266 1.10508 16.5444 1.6957 16.3781 2.36135L16.0963 3.48763C16.085 3.54804 16.0594 3.60484 16.0218 3.65326C15.9842 3.70168 15.9357 3.7403 15.8802 3.76589C15.6717 3.87754 15.4631 3.9987 15.262 4.12548C15.2124 4.16155 15.1549 4.18492 15.0943 4.19355C15.0337 4.20219 14.972 4.19585 14.9144 4.17507L13.8059 3.85837C13.1506 3.66963 12.4515 3.70724 11.8199 3.96521C11.1883 4.22318 10.6605 4.68666 10.3207 5.28184L9.05814 7.48325H4.03036C3.43363 7.48801 2.86313 7.73101 2.44399 8.15896C2.02485 8.5869 1.79128 9.16486 1.79452 9.76606V30.449H1.31168C1.13933 30.449 0.968666 30.4831 0.809437 30.5496C0.650209 30.616 0.505545 30.7134 0.383719 30.8363C0.261894 30.9591 0.165297 31.1049 0.0994554 31.2654C0.0336133 31.4258 -0.000182572 31.5978 7.41753e-07 31.7714V35.8442C0.00121669 36.9372 0.432772 37.9852 1.19998 38.7581C1.96719 39.531 3.0074 39.9658 4.09238 39.967H37.9076C38.9926 39.9658 40.0328 39.531 40.8 38.7581C41.5672 37.9852 41.9988 36.9372 42 35.8442V31.7714C42 31.5977 41.966 31.4257 41.9 31.2652C41.834 31.1047 41.7373 30.9589 41.6153 30.8361C41.4933 30.7133 41.3485 30.6159 41.1892 30.5495C41.0299 30.4831 40.8591 30.449 40.6867 30.4491L40.6864 30.449ZM21 20.3094C22.3528 20.3093 23.6752 19.9049 24.7999 19.1476C25.9246 18.3902 26.8012 17.3139 27.3187 16.0546C27.8362 14.7954 27.9715 13.4098 27.7074 12.0731C27.4433 10.7364 26.7917 9.50861 25.835 8.545C24.8783 7.5814 23.6595 6.92525 22.3326 6.65953C21.0058 6.39381 19.6305 6.53046 18.3807 7.0522C17.131 7.57393 16.0628 8.45732 15.3114 9.59065C14.56 10.724 14.159 12.0564 14.1592 13.4193C14.1613 15.2463 14.8827 16.9979 16.1652 18.2897C17.4477 19.5814 19.1865 20.3078 21 20.3094Z" fill="white"/>
</g>
<defs>
<clipPath id="clip0_401_148">
<rect width="42" height="40" fill="white"/>
</clipPath>
</defs>
</svg>
