<svg width="42" height="43" viewBox="0 0 42 43" fill="none" xmlns="http://www.w3.org/2000/svg">
<g clip-path="url(#clip0_401_356)">
<path d="M7.42846 30.9223C5.15183 30.9223 4.0037 33.7163 5.61304 35.3412C7.22239 36.9661 9.98968 35.8069 9.98968 33.5082C9.98968 32.0815 8.84155 30.9223 7.42846 30.9223ZM9.21445 37.4317H5.6523C3.46398 37.4317 1.66818 39.2449 1.66818 41.4543V42.9108H13.1986V41.4543C13.1887 39.2449 11.4028 37.4317 9.21445 37.4317ZM34.5715 0.0891113C32.2948 0.0891113 31.1467 2.88312 32.756 4.50801C34.3654 6.13289 37.1327 4.97367 37.1327 2.67506C37.1425 1.24833 35.9845 0.0891113 34.5715 0.0891113ZM36.3476 6.59856H32.7855C30.5972 6.59856 28.8014 8.41169 28.8014 10.6211V12.0875H40.3317V10.6211C40.3415 8.40178 38.5458 6.59856 36.3476 6.59856ZM21.7948 11.5029H19.5182V13.1476C19.5378 13.435 19.3317 13.7025 19.0373 13.7619C18.4584 13.8709 17.8892 14.0492 17.3593 14.2672C16.8294 14.4852 16.3191 14.7626 15.8481 15.0896C15.6126 15.2679 15.2789 15.2481 15.0729 15.04L13.9051 13.861L12.2958 15.4859L13.4733 16.6649C13.6696 16.8631 13.7088 17.1801 13.542 17.4179C13.2182 17.9034 12.9336 18.4285 12.7079 18.9734C12.492 19.4986 12.3252 20.0534 12.2172 20.628C12.1878 20.9253 11.9327 21.1532 11.6285 21.1532H9.97005V23.4419H11.6285C11.9032 23.4419 12.1584 23.64 12.2074 23.9274C12.3154 24.5119 12.4822 25.0866 12.7079 25.6216C12.9238 26.1566 13.1986 26.6718 13.5224 27.1474C13.699 27.3852 13.6892 27.7221 13.4733 27.9301L12.2958 29.1092L13.9051 30.734L15.0729 29.555C15.2691 29.3569 15.5831 29.3172 15.8187 29.4857C16.2995 29.8225 16.8196 30.0999 17.3593 30.3278C17.8794 30.5458 18.4289 30.7142 18.9981 30.8232C19.2925 30.8529 19.5182 31.1105 19.5182 31.4177V33.0921H21.785V31.4177C21.785 31.1403 21.9813 30.8827 22.2658 30.8331C22.8546 30.7241 23.414 30.5557 23.9439 30.3278C24.4738 30.1098 24.9743 29.8324 25.4551 29.5055C25.6906 29.3271 26.0243 29.337 26.2303 29.555L27.4079 30.734L29.0173 29.1092L27.8495 27.9301C27.6532 27.732 27.614 27.4149 27.7808 27.1771C28.4383 26.1963 28.8897 25.0965 29.1154 23.9274C29.1644 23.6499 29.4 23.4419 29.6944 23.4419H31.3528V21.1433H29.6944C29.4196 21.1433 29.1743 20.9451 29.1154 20.6578C29.0074 20.0633 28.8308 19.4986 28.6149 18.9635C28.399 18.4285 28.1243 17.9133 27.8004 17.4377C27.6238 17.1999 27.6336 16.8631 27.8495 16.655L29.0173 15.476L27.4079 13.8511L26.2303 15.0301C26.0341 15.2283 25.7201 15.2679 25.4845 15.0995C25.0037 14.7725 24.4836 14.4852 23.9439 14.2573C23.4238 14.0393 22.8743 13.8709 22.3051 13.7619C22.0107 13.7223 21.785 13.4746 21.785 13.1675V11.5029H21.7948ZM24.4934 18.4186C22.3738 16.2785 18.9392 16.2785 16.8196 18.4186C14.7 20.5587 14.7 24.0264 16.8196 26.1665C18.9392 28.3066 22.3738 28.3066 24.4934 26.1665C26.613 24.0264 26.613 20.5587 24.4934 18.4186ZM20.6565 15.6246C24.307 15.6246 27.2607 18.6069 27.2607 22.2926C27.2607 25.9783 24.307 28.9605 20.6565 28.9605C17.006 28.9605 14.0523 25.9783 14.0523 22.2926C14.0523 18.6069 17.006 15.6246 20.6565 15.6246ZM17.6046 22.6294C17.4084 22.3619 17.4672 21.9953 17.7224 21.7972C17.9775 21.599 18.3504 21.6585 18.5467 21.9161L19.5476 23.2734L22.8252 19.9642C23.0607 19.7264 23.4336 19.7264 23.6593 19.9642C23.8948 20.1921 23.8948 20.5686 23.6593 20.8064L19.9009 24.6011C19.6458 24.8587 19.2238 24.829 19.0177 24.5317L17.6046 22.6294ZM6.57473 17.5863V14.6239C6.57473 7.5299 11.7953 4.3792 17.8107 2.58589C14.6803 2.78404 11.7757 3.2398 9.42052 4.19095C5.77987 5.66722 3.39529 8.39187 3.39529 13.3953V17.5764C3.39529 17.9034 3.13033 18.1709 2.8065 18.1709H0.0588379L4.97519 25.1857L9.90136 18.1709H7.1537C6.82987 18.1808 6.57473 17.9133 6.57473 17.5863ZM35.4252 25.4135V28.376C35.4252 35.47 30.2046 38.6207 24.1892 40.414C27.3196 40.2158 30.2243 39.7601 32.5794 38.8089C36.2201 37.3327 38.6046 34.608 38.6046 29.6045V25.4234C38.6046 25.0965 38.8696 24.829 39.1934 24.829H41.9313L37.0149 17.8142L32.0887 24.829H34.8364C35.1701 24.8191 35.4252 25.0866 35.4252 25.4135Z" fill="white"/>
</g>
<defs>
<clipPath id="clip0_401_356">
<rect width="42" height="43" fill="white"/>
</clipPath>
</defs>
</svg>
