<svg width="42" height="42" viewBox="0 0 42 42" fill="none" xmlns="http://www.w3.org/2000/svg">
<g clip-path="url(#clip0_401_320)">
<path d="M22.7321 23.0653V21.706C24.4938 20.5579 25.6881 17.7932 25.7145 15.2264C25.9323 14.6392 26.9748 11.4719 25.3449 9.85535C24.0253 8.55544 21.5311 8.68086 17.7106 10.2314C15.487 11.1354 15.7905 13.8474 16.2788 15.2264C16.3052 17.7932 17.4996 20.5645 19.2679 21.706V23.0653C19.2679 24.022 20.0465 24.8006 20.9967 24.8006C21.9535 24.8007 22.7321 24.022 22.7321 23.0653ZM21.7423 23.0653C21.7423 23.4744 21.4058 23.8108 20.9967 23.8108C20.5876 23.8108 20.2577 23.4743 20.2577 23.0653V22.148C20.5018 22.214 20.7459 22.2536 20.9967 22.2536C21.254 22.2536 21.4982 22.2141 21.7423 22.148V23.0653ZM20.9967 21.2639C18.8205 21.2639 17.3544 17.8598 17.2752 15.3913L18.4431 14.5863C18.7796 14.3554 19.2349 14.4147 19.5516 14.7381C20.3236 15.5101 21.6697 15.5035 22.4418 14.7381C22.7584 14.4148 23.2203 14.3554 23.5503 14.5863L24.7183 15.3913C24.6421 17.7593 23.2477 21.2639 20.9967 21.2639Z" fill="white"/>
<path d="M19.9434 16.8357V16.5921C19.9434 16.3189 19.7217 16.0972 19.4485 16.0972C19.1752 16.0972 18.9536 16.3189 18.9536 16.5921V16.8357C18.9536 17.1089 19.1752 17.3305 19.4485 17.3305C19.7217 17.3305 19.9434 17.1088 19.9434 16.8357Z" fill="white"/>
<path d="M22.7275 17.3305C23.0008 17.3305 23.2224 17.1089 23.2224 16.8357V16.5921C23.2224 16.3189 23.0008 16.0972 22.7275 16.0972C22.4543 16.0972 22.2327 16.3189 22.2327 16.5921V16.8357C22.2327 17.1088 22.4544 17.3305 22.7275 17.3305Z" fill="white"/>
<path d="M21.6897 18.8016C21.3507 19.1393 20.823 19.138 20.4866 18.8016C20.2933 18.6083 19.9801 18.6083 19.7869 18.8016C19.5935 18.995 19.5935 19.3081 19.7869 19.5014C20.5039 20.2184 21.6717 20.2193 22.3895 19.5014C22.5829 19.3081 22.5829 18.9949 22.3895 18.8016C22.1961 18.6083 21.8829 18.6083 21.6897 18.8016Z" fill="white"/>
<path d="M24.0519 22.3593V23.0653C24.0519 24.2596 23.359 25.3021 22.3495 25.797L22.7586 28.9114C22.7718 29.0566 22.7322 29.1951 22.6332 29.3073L21.3663 30.726C21.2739 30.8315 21.1419 30.8909 20.9968 30.8909C20.8583 30.8909 20.7263 30.8315 20.6273 30.726L19.367 29.3073C19.268 29.1951 19.2218 29.0566 19.2416 28.9114L19.6507 25.8036C18.6412 25.3087 17.9484 24.2662 17.9484 23.0653V22.3593C14.2995 23.6261 11.6733 27.0969 11.6733 31.1747C11.6733 32.1908 12.5047 33.0222 13.5274 33.0222H28.4728C29.4956 33.0222 30.3269 32.1909 30.3269 31.1747C30.3269 27.0969 27.7008 23.6262 24.0519 22.3593ZM25.6685 27.2751H24.639C24.3686 27.2751 24.1442 27.0508 24.1442 26.7802C24.1442 26.5031 24.3686 26.2853 24.639 26.2853H25.6685C25.9456 26.2853 26.1633 26.5031 26.1633 26.7802C26.1633 27.0507 25.9456 27.2751 25.6685 27.2751Z" fill="white"/>
<path d="M20.6073 26.0939L20.251 28.8191L20.9966 29.6571L21.7422 28.8191L21.3859 26.0939C21.1627 26.1292 20.8323 26.1295 20.6073 26.0939Z" fill="white"/>
<path d="M36.648 0.0501099C35.401 0.0501099 34.3848 1.07283 34.3848 2.32656C34.3848 3.57368 35.401 4.58987 36.648 4.58987C37.9083 4.58987 38.9311 3.57368 38.9311 2.32656C38.9311 1.07283 37.9083 0.0501099 36.648 0.0501099Z" fill="white"/>
<path d="M41.7685 8.64121C40.8645 6.80685 38.8586 5.61261 36.6548 5.61261C34.451 5.61261 32.445 6.80693 31.5476 8.64121C30.9602 9.81621 31.847 11.2343 33.1906 11.2343H40.1256C41.4565 11.2343 42.3533 9.83922 41.7685 8.64121Z" fill="white"/>
<path d="M34.3848 33.0354C34.3848 34.2891 35.401 35.3053 36.648 35.3053C37.9083 35.3053 38.9311 34.2891 38.9311 33.0354C38.9311 31.7817 37.9083 30.759 36.648 30.759C35.4009 30.759 34.3848 31.7817 34.3848 33.0354Z" fill="white"/>
<path d="M41.7685 39.3567C40.8645 37.5157 38.8586 36.328 36.6548 36.328C34.4509 36.328 32.445 37.5157 31.5476 39.3567C30.9603 40.5314 31.8468 41.9498 33.1906 41.9498H40.1255C41.4591 41.9499 42.3521 40.5524 41.7685 39.3567Z" fill="white"/>
<path d="M0.231566 8.64117C-0.352335 9.8375 0.54163 11.2343 1.87459 11.2343H8.80952C10.1406 11.2343 11.0373 9.83909 10.4525 8.64117C9.55506 6.80681 7.54919 5.61249 5.34536 5.61249C3.14145 5.61249 1.13557 6.80681 0.231566 8.64117Z" fill="white"/>
<path d="M3.06885 2.32656C3.06885 3.57368 4.08496 4.58987 5.33869 4.58987C6.59241 4.58987 7.61514 3.57368 7.61514 2.32656C7.61514 1.07292 6.59241 0.0501099 5.33869 0.0501099C4.08496 0.0501099 3.06885 1.07283 3.06885 2.32656Z" fill="white"/>
<path d="M3.06885 33.0354C3.06885 34.2891 4.08496 35.3053 5.33869 35.3053C6.59241 35.3053 7.61514 34.2891 7.61514 33.0354C7.61514 31.7817 6.59241 30.759 5.33869 30.759C4.08496 30.759 3.06885 31.7817 3.06885 33.0354Z" fill="white"/>
<path d="M1.87454 41.9499H8.80948C10.1405 41.9499 11.0372 40.5547 10.4525 39.3568C9.55511 37.5158 7.54923 36.3281 5.34532 36.3281C3.14149 36.3281 1.13553 37.5158 0.231609 39.3568C-0.352375 40.553 0.541589 41.9499 1.87454 41.9499Z" fill="white"/>
<path d="M36.5584 14.6441C36.2851 14.6441 36.0635 14.8657 36.0635 15.139V20.5028H27.3516C27.0783 20.5028 26.8567 20.7244 26.8567 20.9976C26.8567 21.2709 27.0783 21.4925 27.3516 21.4925H36.0635V26.8563C36.0635 27.1296 36.2851 27.3512 36.5584 27.3512C36.8316 27.3512 37.0532 27.1296 37.0532 26.8563C37.0532 22.7583 37.0532 19.2371 37.0532 15.1391C37.0532 14.8657 36.8315 14.6441 36.5584 14.6441Z" fill="white"/>
<path d="M15.1421 20.9977C15.1421 20.7244 14.9205 20.5028 14.6472 20.5028H5.93532V15.139C5.93532 14.8657 5.71369 14.6441 5.44044 14.6441C5.16719 14.6441 4.94556 14.8657 4.94556 15.139V26.8562C4.94556 27.1295 5.16719 27.3511 5.44044 27.3511C5.71369 27.3511 5.93532 27.1295 5.93532 26.8562V21.4924H14.6472C14.9204 21.4925 15.1421 21.2708 15.1421 20.9977Z" fill="white"/>
</g>
<defs>
<clipPath id="clip0_401_320">
<rect width="42" height="42" fill="white"/>
</clipPath>
</defs>
</svg>
