<svg width="42" height="42" viewBox="0 0 42 42" fill="none" xmlns="http://www.w3.org/2000/svg">
<g clip-path="url(#clip0_401_365)">
<path d="M23.041 29.0428V32.3301C23.041 32.5087 23.1854 32.6542 23.3626 32.6542C23.5398 32.6542 23.6841 32.5087 23.6841 32.3301V29.0428C23.6841 28.8643 23.5398 28.7188 23.3626 28.7188C23.1854 28.7188 23.041 28.8643 23.041 29.0428Z" fill="white"/>
<path d="M33.1865 18.8174C33.1865 18.996 33.3309 19.1415 33.5081 19.1415H36.7696C36.9468 19.1415 37.0912 18.996 37.0912 18.8174C37.0912 18.6388 36.9468 18.4933 36.7696 18.4933H33.5081C33.3309 18.4933 33.1865 18.6388 33.1865 18.8174Z" fill="white"/>
<path d="M23.3624 0.0330811C14.4243 0.0330811 6.71991 6.5282 5.06616 15.2788H9.03647C10.618 8.65135 16.4915 3.94206 23.3624 3.94206C31.5065 3.94206 38.128 10.6158 38.128 18.8173C38.128 27.0255 31.5065 33.6992 23.3624 33.6992C18.703 33.6992 14.3784 31.5165 11.609 27.8126C11.2152 28.2095 10.8018 28.5468 10.3884 28.8246L10.559 29.2016C12.2193 30.3789 13.8599 32.5616 14.7327 35.4784C17.3774 36.874 20.324 37.6016 23.3624 37.6016C33.6393 37.6016 41.9999 29.1751 41.9999 18.8173C41.9999 8.45954 33.6393 0.0330811 23.3624 0.0330811Z" fill="white"/>
<path d="M23.6841 8.59842V5.30456C23.6841 5.12598 23.5398 4.98047 23.3626 4.98047C23.1854 4.98047 23.041 5.12598 23.041 5.30456V8.59181C23.041 8.77039 23.1854 8.9159 23.3626 8.9159C23.5398 8.92252 23.6841 8.777 23.6841 8.59842Z" fill="white"/>
<path d="M27.8709 8.18171C27.9956 8.18171 28.1203 8.10895 28.1662 7.98328L28.7896 6.46202C28.8553 6.29667 28.7765 6.10486 28.6125 6.03871C28.4484 5.97257 28.2581 6.04533 28.1925 6.2173L27.569 7.73856C27.5034 7.90391 27.5821 8.09572 27.7462 8.16186C27.7856 8.17509 27.8315 8.18171 27.8709 8.18171Z" fill="white"/>
<path d="M31.6904 10.7546C31.7757 10.7546 31.8545 10.7215 31.9201 10.662L33.0751 9.49792C33.1998 9.37225 33.1998 9.16721 33.0751 9.03493C32.9504 8.90926 32.747 8.90926 32.6157 9.03493L31.4607 10.199C31.336 10.3247 31.336 10.5297 31.4607 10.662C31.5263 10.7215 31.6116 10.7546 31.6904 10.7546Z" fill="white"/>
<path d="M34.2432 14.6041C34.2826 14.6041 34.3285 14.5975 34.3679 14.5776L35.8773 13.9493C36.0414 13.8831 36.1201 13.6913 36.0545 13.526C35.9889 13.3606 35.7985 13.2813 35.6345 13.3474L34.1251 13.9757C33.961 14.0419 33.8823 14.2337 33.9479 14.3991C34.0004 14.5313 34.1185 14.6041 34.2432 14.6041Z" fill="white"/>
<path d="M34.3679 23.0636C34.2039 22.9975 34.0135 23.0702 33.9479 23.2422C33.8823 23.4076 33.961 23.5994 34.1251 23.6655L35.6345 24.2939C35.6739 24.3137 35.7198 24.3203 35.7592 24.3203C35.8839 24.3203 36.0085 24.2476 36.0545 24.1219C36.1201 23.9565 36.0414 23.7647 35.8773 23.6986L34.3679 23.0636Z" fill="white"/>
<path d="M31.4607 27.4423L32.6157 28.6063C32.6813 28.6725 32.7601 28.6989 32.8454 28.6989C32.9307 28.6989 33.0095 28.6659 33.0751 28.6063C33.1998 28.4807 33.1998 28.2756 33.0751 28.1434L31.9201 26.9793C31.7954 26.8536 31.592 26.8536 31.4607 26.9793C31.336 27.1115 31.336 27.3166 31.4607 27.4423Z" fill="white"/>
<path d="M27.7462 29.486C27.5821 29.5521 27.5034 29.7439 27.569 29.9093L28.1925 31.4305C28.245 31.5562 28.3631 31.6289 28.4878 31.6289C28.5271 31.6289 28.5731 31.6223 28.6125 31.6025C28.7765 31.5363 28.8553 31.3445 28.7896 31.1792L28.1662 29.6579C28.1006 29.4926 27.9103 29.4198 27.7462 29.486Z" fill="white"/>
<path d="M18.1126 31.6092C18.1519 31.629 18.1979 31.6357 18.2373 31.6357C18.3619 31.6357 18.4866 31.5629 18.5326 31.4372L19.156 29.916C19.2216 29.7506 19.1429 29.5588 18.9788 29.4927C18.8148 29.4265 18.6244 29.5059 18.5588 29.6712L17.9354 31.1925C17.8697 31.3446 17.9419 31.5364 18.1126 31.6092Z" fill="white"/>
<path d="M14.8115 26.9858L13.6565 28.1499C13.5318 28.2756 13.5318 28.4806 13.6565 28.6129C13.7221 28.679 13.8009 28.7055 13.8862 28.7055C13.9715 28.7055 14.0503 28.6724 14.1159 28.6129L15.2709 27.4488C15.3956 27.3231 15.3956 27.1181 15.2709 26.9858C15.1396 26.8535 14.9362 26.8535 14.8115 26.9858Z" fill="white"/>
<path d="M12.3637 14.5776C12.4031 14.5975 12.449 14.6041 12.4884 14.6041C12.6131 14.6041 12.7378 14.5313 12.7837 14.4057C12.8494 14.2403 12.7706 14.0485 12.6065 13.9824L11.0972 13.354C10.9331 13.2879 10.7428 13.3606 10.6772 13.5326C10.6115 13.698 10.6903 13.8898 10.8544 13.9559L12.3637 14.5776Z" fill="white"/>
<path d="M15.0346 10.7546C15.1199 10.7546 15.1987 10.7215 15.2643 10.662C15.389 10.5363 15.389 10.3313 15.2643 10.199L14.1093 9.03493C13.9846 8.90926 13.7812 8.90926 13.6499 9.03493C13.5252 9.1606 13.5252 9.36563 13.6499 9.49792L14.8049 10.662C14.8705 10.7215 14.9559 10.7546 15.0346 10.7546Z" fill="white"/>
<path d="M18.5587 7.97668C18.6112 8.10235 18.7293 8.1751 18.854 8.1751C18.8934 8.1751 18.9393 8.16849 18.9787 8.14865C19.1427 8.08251 19.2215 7.8907 19.1559 7.72534L18.5324 6.20408C18.4668 6.03873 18.2765 5.95936 18.1124 6.0255C17.9484 6.09164 17.8696 6.28345 17.9352 6.44881L18.5587 7.97668Z" fill="white"/>
<path d="M22.5553 11.707V17.1968C21.9647 17.4944 21.5513 18.1096 21.5513 18.8239C21.5513 19.8292 22.3585 20.6494 23.3625 20.6494C23.5594 20.6494 23.7497 20.6097 23.9269 20.5502L29.6691 26.3376C29.82 26.4897 30.0235 26.5757 30.24 26.5757C30.4566 26.5757 30.66 26.4897 30.811 26.3376C31.126 26.0201 31.126 25.5042 30.811 25.1867L25.0688 19.3993C25.1278 19.2207 25.1672 19.0289 25.1672 18.8239C25.1672 18.1096 24.7603 17.5011 24.1697 17.2034V11.7137C24.1697 11.2705 23.8022 10.9001 23.3625 10.9001C22.9228 10.8935 22.5553 11.2573 22.5553 11.707Z" fill="white"/>
<path d="M14.9231 39.6057H14.7197C14.6147 34.5988 12.0487 30.6435 9.50906 29.3008C9.38437 29.2347 9.30562 29.0958 9.30562 28.9436C9.30562 28.7915 9.38437 28.6592 9.50906 28.5931C12.0487 27.2438 14.6147 23.2951 14.7197 18.2882H14.9231C15.3891 18.2882 15.7697 17.9046 15.7697 17.435V16.7868C15.7697 16.3172 15.3891 15.9336 14.9231 15.9336H0.846563C0.380625 15.9269 0 16.3106 0 16.7868V17.435C0 17.9046 0.380625 18.2882 0.846563 18.2882H1.04344C1.14844 23.3017 3.72094 27.257 6.26062 28.5931C6.38531 28.6592 6.46406 28.7981 6.46406 28.9503C6.46406 29.1024 6.38531 29.2413 6.26062 29.3074C3.72094 30.6501 1.14844 34.5988 1.04344 39.6123H0.846563C0.380625 39.6057 0 39.9893 0 40.4655V41.1137C0 41.5833 0.380625 41.9669 0.846563 41.9669H14.9231C15.3891 41.9669 15.7697 41.5833 15.7697 41.1137V40.4655C15.7697 39.9893 15.3891 39.6057 14.9231 39.6057ZM2.08031 39.6057C2.18531 35.0485 4.52812 31.3909 6.74625 30.2202C7.21219 29.9754 7.5075 29.486 7.5075 28.9436C7.5075 28.4013 7.21875 27.9118 6.75281 27.6671C4.54125 26.503 2.19844 22.8388 2.08687 18.2816H13.6959C13.5909 22.8255 11.2481 26.4964 9.03656 27.6671C8.57063 27.9118 8.28187 28.4013 8.28187 28.9436C8.28187 29.486 8.57063 29.9754 9.03656 30.2202C11.2481 31.3909 13.5909 35.0551 13.6959 39.6057H2.08031Z" fill="white"/>
<path d="M12.3114 21.1588C12.3114 21.1323 12.3114 21.0992 12.3048 21.0728C10.8414 20.967 10.3557 21.3373 8.44605 22.1178C7.0023 22.7065 4.77105 21.9723 3.47168 21.5027C3.64887 24.5386 6.0048 26.9462 7.8948 26.9462C9.84387 26.9462 12.3114 24.3534 12.3114 21.1588Z" fill="white"/>
<path d="M2.99243 38.5739H12.7771C12.2127 36.2126 10.1915 34.4598 7.88149 34.4598C5.57149 34.4598 3.55681 36.2126 2.99243 38.5739Z" fill="white"/>
</g>
<defs>
<clipPath id="clip0_401_365">
<rect width="42" height="42" fill="white"/>
</clipPath>
</defs>
</svg>
