<svg width="40" height="40" viewBox="0 0 40 40" fill="none" xmlns="http://www.w3.org/2000/svg">
<g clip-path="url(#clip0_401_111)">
<path d="M26.3696 5.95753L32.8572 9.20129L39.3448 5.95753C39.2991 5.92762 39.2601 5.88978 39.2105 5.86493L33.4962 3.00779C33.0944 2.80689 32.6201 2.80689 32.2183 3.00779L26.504 5.86493C26.4544 5.88978 26.4154 5.92762 26.3696 5.95753Z" fill="white"/>
<path d="M25.7144 14.2857C25.7144 14.827 26.0199 15.3215 26.504 15.5636L32.1429 18.5714V10.4415L25.7144 7.22723V14.2857Z" fill="white"/>
<path d="M33.5715 10.4415V18.5714L39.2105 15.5636C39.6946 15.3215 40.0001 14.827 40.0001 14.2857V7.22723L33.5715 10.4415Z" fill="white"/>
<path d="M39.2105 24.4364L33.4962 21.5793C33.0944 21.3784 32.6201 21.3784 32.2183 21.5793L26.504 24.4364C26.4544 24.4613 26.4154 24.4991 26.3696 24.529L32.8572 27.7728L39.3448 24.529C39.2991 24.4991 39.2601 24.4613 39.2105 24.4364Z" fill="white"/>
<path d="M25.7144 32.8572C25.7144 33.3985 26.0199 33.893 26.504 34.1351L32.1429 37.1429V29.013L25.7144 25.7987V32.8572Z" fill="white"/>
<path d="M33.5715 37.1429L39.2105 34.1351C39.6946 33.893 40.0001 33.3985 40.0001 32.8572V25.7987L33.5715 29.013V37.1429Z" fill="white"/>
<path d="M24.2857 32.8571V25.7143C24.2857 24.6261 24.8898 23.6468 25.8636 23.1599L28.5714 21.8056V18.1948L25.865 16.8415C24.8898 16.3532 24.2857 15.3739 24.2857 14.2857V7.14286C24.2857 6.05469 24.8898 5.07534 25.8636 4.58845L28.5714 3.23417V1.42857C28.5714 0.638951 27.9325 0 27.1429 0H1.42857C0.638951 0 0 0.638951 0 1.42857V38.5714C0 39.361 0.638951 40 1.42857 40H27.1429C27.9325 40 28.5714 39.361 28.5714 38.5714V36.7662L25.865 35.4129C24.8898 34.9247 24.2857 33.9453 24.2857 32.8571ZM8.36217 29.7907L5.50502 32.6479C5.36551 32.7874 5.18276 32.8571 5 32.8571C4.81724 32.8571 4.63449 32.7874 4.49498 32.6479L3.06641 31.2193C2.78739 30.9403 2.78739 30.4883 3.06641 30.2093C3.34542 29.9302 3.79743 29.9302 4.07645 30.2093L5 31.1328L7.35212 28.7807C7.63114 28.5017 8.08315 28.5017 8.36217 28.7807C8.64118 29.0597 8.64118 29.5117 8.36217 29.7907ZM8.36217 22.6479L5.50502 25.505C5.36551 25.6445 5.18276 25.7143 5 25.7143C4.81724 25.7143 4.63449 25.6445 4.49498 25.505L3.06641 24.0765C2.78739 23.7974 2.78739 23.3454 3.06641 23.0664C3.34542 22.7874 3.79743 22.7874 4.07645 23.0664L5 23.99L7.35212 21.6378C7.63114 21.3588 8.08315 21.3588 8.36217 21.6378C8.64118 21.9169 8.64118 22.3689 8.36217 22.6479ZM8.36217 15.505L5.50502 18.3622C5.36551 18.5017 5.18276 18.5714 5 18.5714C4.81724 18.5714 4.63449 18.5017 4.49498 18.3622L3.06641 16.9336C2.78739 16.6546 2.78739 16.2026 3.06641 15.9235C3.34542 15.6445 3.79743 15.6445 4.07645 15.9235L5 16.8471L7.35212 14.495C7.63114 14.216 8.08315 14.216 8.36217 14.495C8.64118 14.774 8.64118 15.226 8.36217 15.505ZM8.36217 8.36217L5.50502 11.2193C5.36551 11.3588 5.18276 11.4286 5 11.4286C4.81724 11.4286 4.63449 11.3588 4.49498 11.2193L3.06641 9.79074C2.78739 9.51172 2.78739 9.05971 3.06641 8.78069C3.34542 8.50167 3.79743 8.50167 4.07645 8.78069L5 9.70424L7.35212 7.35212C7.63114 7.0731 8.08315 7.0731 8.36217 7.35212C8.64118 7.63114 8.64118 8.08315 8.36217 8.36217ZM22.1429 32.8571H10.7143C10.3195 32.8571 10 32.5377 10 32.1429C10 31.748 10.3195 31.4286 10.7143 31.4286H22.1429C22.5377 31.4286 22.8571 31.748 22.8571 32.1429C22.8571 32.5377 22.5377 32.8571 22.1429 32.8571ZM22.1429 25.7143H10.7143C10.3195 25.7143 10 25.3948 10 25C10 24.6052 10.3195 24.2857 10.7143 24.2857H22.1429C22.5377 24.2857 22.8571 24.6052 22.8571 25C22.8571 25.3948 22.5377 25.7143 22.1429 25.7143ZM22.1429 18.5714H10.7143C10.3195 18.5714 10 18.252 10 17.8571C10 17.4623 10.3195 17.1429 10.7143 17.1429H22.1429C22.5377 17.1429 22.8571 17.4623 22.8571 17.8571C22.8571 18.252 22.5377 18.5714 22.1429 18.5714ZM22.1429 11.4286H10.7143C10.3195 11.4286 10 11.1091 10 10.7143C10 10.3195 10.3195 10 10.7143 10H22.1429C22.5377 10 22.8571 10.3195 22.8571 10.7143C22.8571 11.1091 22.5377 11.4286 22.1429 11.4286Z" fill="white"/>
</g>
<defs>
<clipPath id="clip0_401_111">
<rect width="40" height="40" fill="white"/>
</clipPath>
</defs>
</svg>
