<svg width="41" height="41" viewBox="0 0 41 41" fill="none" xmlns="http://www.w3.org/2000/svg">
<g clip-path="url(#clip0_401_193)">
<path fill-rule="evenodd" clip-rule="evenodd" d="M24.4395 3.28037C26.4446 3.72841 28.3217 4.51077 30.0077 5.56563C30.0341 5.58209 30.0648 5.58347 30.0926 5.56947L32.2306 4.49056C32.7343 4.23638 33.3206 4.32833 33.7205 4.72424L36.4289 7.40659C36.8287 7.80259 36.9215 8.38329 36.6648 8.88219L35.5754 10.9996C35.5613 11.0271 35.5627 11.0576 35.5794 11.0836C36.3133 12.2339 36.9165 13.4744 37.3687 14.7842C37.3779 14.811 37.374 14.8381 37.3573 14.8612C37.3406 14.8843 37.316 14.8968 37.2874 14.8968H34.2752C34.2398 14.8968 34.2097 14.8768 34.1961 14.8444C31.9592 9.53691 26.67 5.80631 20.5 5.80631C14.33 5.80631 9.04078 9.53691 6.80389 14.8444C6.79026 14.8768 6.76011 14.8968 6.72478 14.8968H3.71277C3.68421 14.8968 3.65953 14.8843 3.64291 14.8612C3.62629 14.8381 3.62221 14.811 3.63147 14.7842C4.08366 13.4744 4.68672 12.234 5.42074 11.0836C5.43736 11.0575 5.43885 11.027 5.42462 10.9996L4.33523 8.88219C4.07859 8.38329 4.17143 7.80259 4.57118 7.40659L7.27957 4.72424C7.67942 4.32824 8.26576 4.23638 8.7695 4.49056L10.9075 5.56947C10.9352 5.58347 10.966 5.58209 10.9923 5.56563C12.6783 4.51067 14.5554 3.72832 16.5605 3.28037C16.5909 3.27357 16.6136 3.25307 16.6233 3.2237L17.3644 0.964758C17.5391 0.432251 18.0194 0.0866089 18.5848 0.0866089H22.4151C22.9806 0.0866089 23.4608 0.432251 23.6356 0.964758L24.3767 3.2237C24.3863 3.25297 24.4091 3.27357 24.4395 3.28037ZM17.2154 21.5915C16.9722 21.3356 16.9846 20.9327 17.2431 20.692C17.5015 20.4511 17.9082 20.4634 18.1513 20.7194L19.2517 21.8763C19.2687 21.8943 19.2903 21.9033 19.3152 21.903C19.34 21.9028 19.3613 21.8932 19.3781 21.875L22.489 18.4538C22.7266 18.1923 23.1332 18.1712 23.3972 18.4064C23.6613 18.6418 23.6827 19.0445 23.4451 19.306L19.8048 23.3094L19.8044 23.309C19.5529 23.5852 19.1166 23.5906 18.8588 23.3193L17.2154 21.5915ZM30.0053 19.4704H30.0055V13.6447C30.0055 13.6083 29.9836 13.5774 29.9491 13.5649C26.4814 12.3095 23.3547 10.6598 20.5505 8.63708C20.5199 8.615 20.4801 8.615 20.4494 8.63708C17.6453 10.6599 14.5186 12.3095 11.0509 13.5649C11.0163 13.5774 10.9944 13.6083 10.9944 13.6447L10.9938 19.5267C10.9938 24.6123 14.6409 29.1891 20.4582 32.3767C20.4849 32.3914 20.5148 32.3914 20.5415 32.3767C26.3587 29.189 30.006 24.6122 30.006 19.5267L30.0054 19.4705L30.0053 19.4704ZM20.5001 15.678C17.8111 15.678 15.6313 17.8369 15.6313 20.5C15.6313 23.1631 17.8112 25.3219 20.5001 25.3219C23.189 25.3219 25.3688 23.163 25.3688 20.5C25.3688 17.837 23.1891 15.678 20.5001 15.678ZM30.2163 24.8273H40.8253C40.8575 24.8273 40.885 24.8111 40.9006 24.7832C40.9161 24.7553 40.9151 24.7236 40.8979 24.6967L38.2415 20.5455C38.2233 20.517 38.2233 20.4829 38.2415 20.4544L40.8979 16.3033C40.9151 16.2764 40.9161 16.2447 40.9006 16.2168C40.885 16.1889 40.8575 16.1727 40.8253 16.1727H31.3839C31.3366 16.1727 31.298 16.2109 31.298 16.2578L31.2987 19.5266C31.2987 21.3906 30.8727 23.1202 30.1383 24.7067C30.1257 24.7338 30.1278 24.763 30.144 24.7881C30.1603 24.8132 30.1862 24.8273 30.2163 24.8273ZM10.7839 24.8273H0.174829C0.142686 24.8273 0.11512 24.8111 0.099596 24.7832C0.0840717 24.7553 0.0850669 24.7236 0.102283 24.6967L2.75863 20.5455C2.77684 20.517 2.77684 20.4829 2.75863 20.4544L0.102283 16.3033C0.0850669 16.2764 0.0840717 16.2447 0.099596 16.2168C0.11512 16.1889 0.142686 16.1727 0.174829 16.1727H9.61617C9.66344 16.1727 9.70205 16.2109 9.70205 16.2578L9.70146 19.5266C9.70146 21.3906 10.1275 23.1202 10.8619 24.7067C10.8744 24.7338 10.8723 24.763 10.8561 24.7881C10.8399 24.8132 10.814 24.8273 10.7839 24.8273ZM37.3687 26.2156C36.9165 27.5255 36.3134 28.7658 35.5795 29.9162C35.5629 29.9423 35.5615 29.9728 35.5756 30.0003L36.665 32.1177C36.9217 32.6166 36.8288 33.1973 36.4291 33.5933L33.7207 36.2756C33.3208 36.6716 32.7345 36.7635 32.2308 36.5094L30.0928 35.4305C30.065 35.4165 30.0343 35.4179 30.0079 35.4343C28.3218 36.4893 26.4448 37.2716 24.4397 37.7196C24.4093 37.7264 24.3865 37.7469 24.3769 37.7763L23.6358 40.0352C23.461 40.5677 22.9808 40.9133 22.4153 40.9133H18.585C18.0196 40.9133 17.5393 40.5677 17.3646 40.0352L16.6235 37.7763C16.6138 37.7469 16.5911 37.7264 16.5607 37.7196C14.5557 37.2714 12.6783 36.4894 10.9925 35.4343C10.9661 35.4179 10.9353 35.4165 10.9077 35.4305L8.7697 36.5094C8.26596 36.7636 7.67962 36.6716 7.27977 36.2756L4.57138 33.5933C4.17153 33.1973 4.07879 32.6166 4.33543 32.1177L5.42482 30.0003C5.43895 29.9728 5.43756 29.9423 5.42094 29.9162C4.68702 28.7656 4.08386 27.5254 3.63167 26.2156C3.62241 26.1888 3.62639 26.1617 3.64311 26.1387C3.65973 26.1156 3.68431 26.1031 3.71297 26.1031H6.72518C6.7606 26.1031 6.79066 26.1231 6.80429 26.1554C9.04088 31.4628 14.3302 35.1935 20.5001 35.1935C26.6701 35.1935 31.9593 31.4628 34.1962 26.1553C34.2098 26.123 34.24 26.103 34.2753 26.103H37.2875C37.3161 26.103 37.3407 26.1155 37.3573 26.1386C37.3739 26.1616 37.3779 26.1887 37.3687 26.2156Z" fill="white"/>
</g>
<defs>
<clipPath id="clip0_401_193">
<rect width="41" height="41" fill="white"/>
</clipPath>
</defs>
</svg>
