<svg width="42" height="35" viewBox="0 0 42 35" fill="none" xmlns="http://www.w3.org/2000/svg">
<g clip-path="url(#clip0_401_655)">
<path fill-rule="evenodd" clip-rule="evenodd" d="M23.5599 30.3867C23.8406 30.839 24.0025 31.3713 24.0025 31.941C24.0025 33.5828 22.6582 34.9137 21 34.9137C19.3418 34.9137 17.9975 33.5828 17.9975 31.941C17.9975 30.2992 19.3418 28.9683 21 28.9683C21.5755 28.9683 22.1132 29.1287 22.5699 29.4066L27.0452 24.9756C27.3184 24.7051 27.7619 24.7051 28.0351 24.9756C28.3083 25.2461 28.3083 25.6853 28.0351 25.9558L23.5599 30.3867ZM9.2568 26.0285C8.34348 27.8032 7.82845 29.8126 7.82845 31.941H0C0 28.4007 0.893725 25.0669 2.47004 22.1489L9.2568 26.0285ZM3.17109 20.9491C4.87016 18.2534 7.17552 15.9708 9.89826 14.2887L13.8166 21.0083C12.2776 22.0016 10.9612 23.3049 9.95794 24.8288L3.17109 20.9491ZM11.1101 13.5945C13.8641 12.136 16.9849 11.2677 20.3 11.1602V18.918C18.4098 19.016 16.6251 19.5086 15.0284 20.3141L11.1101 13.5945ZM21.7 11.1602C25.0151 11.2677 28.1359 12.136 30.89 13.5945L26.9717 20.3141C25.3749 19.5086 23.5903 19.016 21.7 18.918V11.1602ZM32.1017 14.2887C34.8245 15.9708 37.1298 18.2534 38.8289 20.9491L32.0421 24.8288C31.0388 23.305 29.7224 22.0016 28.1834 21.0083L32.1017 14.2887ZM39.53 22.1489C41.1063 25.0669 42 28.4007 42 31.941H34.1716C34.1716 29.8126 33.6565 27.8032 32.7431 26.0286L39.53 22.1489ZM20.4026 0.515976C20.4867 0.259714 20.7279 0.0862732 21 0.0862732C21.2721 0.0862732 21.5133 0.259714 21.5974 0.515976L22.1647 2.24466C22.2488 2.50084 22.49 2.67437 22.7621 2.67437H24.5979C24.87 2.67437 25.1112 2.84789 25.1953 3.10407C25.2794 3.36033 25.1872 3.64103 24.9671 3.79939L23.4819 4.86776C23.2617 5.02613 23.1696 5.30682 23.2537 5.56308L23.821 7.29177C23.9051 7.54803 23.8129 7.82872 23.5928 7.98709C23.3726 8.14546 23.0745 8.14546 22.8544 7.98709L21.3692 6.91872C21.149 6.76036 20.851 6.76036 20.6308 6.91872L19.1456 7.98709C18.9255 8.14546 18.6273 8.14546 18.4072 7.98709C18.187 7.82872 18.0949 7.54803 18.179 7.29177L18.7463 5.56308C18.8304 5.30682 18.7383 5.02613 18.5182 4.86776L17.0329 3.79939C16.8128 3.64103 16.7206 3.36033 16.8047 3.10407C16.8888 2.84789 17.13 2.67437 17.4021 2.67437H19.2379C19.51 2.67437 19.7512 2.50084 19.8353 2.24466L20.4026 0.515976ZM4.613 5.02188C4.55639 4.75834 4.67766 4.48874 4.9133 4.35402C5.14902 4.21931 5.44547 4.25015 5.64769 4.43043L7.01199 5.64668C7.2142 5.82697 7.51065 5.85781 7.74629 5.72309L9.33616 4.81422C9.57189 4.6795 9.86834 4.71035 10.0705 4.89063C10.2728 5.07091 10.3347 5.35966 10.224 5.60579L9.47739 7.2663C9.3667 7.51242 9.42865 7.80109 9.63086 7.98137L10.9952 9.19762C11.1974 9.37791 11.2594 9.66657 11.1487 9.91278C11.038 10.1589 10.7798 10.3064 10.5092 10.2783L8.6835 10.0883C8.41286 10.0601 8.15465 10.2077 8.04396 10.4538L7.29733 12.1143C7.18664 12.3604 6.92842 12.5081 6.65779 12.4799C6.38715 12.4518 6.16569 12.2542 6.10908 11.9907L5.7274 10.2128C5.67079 9.94926 5.44924 9.75173 5.17869 9.72358L3.35291 9.53359C3.08227 9.50543 2.86072 9.30791 2.80411 9.04437C2.74759 8.78083 2.86886 8.51122 3.1045 8.37651L4.69438 7.46763C4.93001 7.33292 5.05129 7.06332 4.99468 6.79978L4.613 5.02188ZM36.3523 4.43035C36.5545 4.25006 36.851 4.21922 37.0867 4.35393C37.3223 4.48865 37.4436 4.75834 37.387 5.02188L37.0053 6.79978C36.9487 7.06332 37.07 7.33292 37.3056 7.46763L38.8955 8.37651C39.1312 8.51122 39.2524 8.78083 39.1959 9.04437C39.1393 9.30791 38.9177 9.50535 38.6471 9.53359L36.8213 9.72358C36.5508 9.75173 36.3292 9.94917 36.2726 10.2127L35.8909 11.9907C35.8343 12.2542 35.6129 12.4517 35.3422 12.4798C35.0716 12.508 34.8134 12.3604 34.7027 12.1143L33.956 10.4538C33.8453 10.2077 33.5871 10.0601 33.3166 10.0883L31.4908 10.2783C31.2202 10.3064 30.962 10.1588 30.8513 9.9127C30.7407 9.66657 30.8026 9.37791 31.0048 9.19762L32.3691 7.98137C32.5714 7.80109 32.6333 7.51242 32.5226 7.26621L31.776 5.60579C31.6653 5.35958 31.7272 5.07091 31.9294 4.89063C32.1317 4.71035 32.4281 4.6795 32.6638 4.81422L34.2537 5.72301C34.4893 5.85772 34.7858 5.82688 34.988 5.6466L36.3523 4.43035Z" fill="white"/>
</g>
<defs>
<clipPath id="clip0_401_655">
<rect width="42" height="35" fill="white"/>
</clipPath>
</defs>
</svg>
