<svg width="42" height="42" viewBox="0 0 42 42" fill="none" xmlns="http://www.w3.org/2000/svg">
<g clip-path="url(#clip0_401_275)">
<path fill-rule="evenodd" clip-rule="evenodd" d="M39.2482 14.687C40.9387 15.9863 42 18.0239 42 20.2471C42 24.1014 38.8452 27.2563 34.9884 27.2563H33.8807C30.6292 23.8765 26.0602 21.7734 21 21.7734C15.9398 21.7734 11.3708 23.8765 8.1193 27.2563H7.01155C3.15481 27.2563 0 24.1014 0 20.2471C0 17.323 1.81554 14.8031 4.37264 13.754C4.36021 13.5406 4.35523 13.3248 4.35523 13.1091C4.35523 6.9209 9.37029 1.90348 15.5584 1.90348C18.5843 1.90348 21.3323 3.10389 23.3488 5.05584C23.5856 4.97096 23.8265 4.89475 24.0711 4.82737C23.956 5.08331 23.8537 5.34476 23.7643 5.6112L23.0343 5.89207C22.4938 6.10015 22.1371 6.61955 22.1371 7.19871V9.45079C22.1371 10.03 22.4938 10.5493 23.0343 10.7574L23.7648 11.0386C23.8904 11.4124 24.0416 11.7772 24.2176 12.13L23.8999 12.8442C23.6645 13.3736 23.7795 13.9933 24.1892 14.4029L25.7814 15.9951C26.1905 16.4043 26.8093 16.5196 27.3383 16.2852L28.0549 15.9678C28.4085 16.1439 28.7738 16.2956 29.1488 16.4212L29.4292 17.1501C29.6373 17.6906 30.1566 18.0472 30.7358 18.0472H32.9879C33.5671 18.0472 34.0865 17.6906 34.2945 17.1501L34.575 16.4212C34.9495 16.2959 35.3149 16.1447 35.6681 15.9685L36.3832 16.2852C36.9122 16.5196 37.5309 16.4043 37.9401 15.9951L39.2482 14.687ZM11.7215 35.0962C11.0473 36.4688 10.6688 38.0127 10.6688 39.645H4.52847C4.52847 36.8941 5.20284 34.3007 6.3952 32.0211L11.7215 35.0962ZM7.09634 30.8094C8.39388 28.7718 10.1269 27.0388 12.1644 25.7413L15.2395 31.0675C14.1283 31.8153 13.1703 32.7733 12.4226 33.8845L7.09634 30.8094ZM13.3762 25.0402C15.4614 23.9495 17.8092 23.2922 20.3 23.188V29.337C18.9263 29.429 17.626 29.7895 16.4513 30.3664L13.3762 25.0402ZM21.7 23.188C24.1908 23.2922 26.5386 23.9495 28.6238 25.0402L25.5487 30.3664C24.374 29.7895 23.0737 29.429 21.7 29.337V23.188ZM29.8356 25.7413C31.8731 27.0388 33.6061 28.7719 34.9037 30.8094L29.5775 33.8846C28.8297 32.7733 27.8716 31.8153 26.7605 31.0675L29.8356 25.7413ZM35.6048 32.0211C36.7972 34.3008 37.4715 36.8941 37.4715 39.645H31.3312C31.3312 38.0127 30.9526 36.4688 30.2785 35.0963L35.6048 32.0211ZM23.1139 36.5411L25.6348 34.0203C25.908 33.747 26.3516 33.747 26.6248 34.0203C26.8979 34.2934 26.8979 34.737 26.6248 35.0102L24.1039 37.531C23.8387 37.1424 23.5025 36.8063 23.1139 36.5411ZM21 37.29C22.3006 37.29 23.355 38.3443 23.355 39.645C23.355 40.9456 22.3006 42 21 42C19.6993 42 18.6449 40.9456 18.6449 39.645C18.6449 38.3443 19.6993 37.29 21 37.29ZM33.5186 1.38119C34.2535 1.55584 34.9543 1.84616 35.5984 2.24306L36.9502 1.64202L38.5424 3.23418L37.9436 4.58596C38.3405 5.23005 38.6307 5.93084 38.8054 6.66794L40.1844 7.19871V9.45079L38.8054 9.98156C38.6307 10.7164 38.3382 11.4172 37.9436 12.0613L38.5424 13.4131L36.9502 15.0052L35.5984 14.4064C34.9566 14.8033 34.2535 15.0937 33.5186 15.2682L32.9879 16.6472H30.7358L30.2051 15.2682C29.468 15.0937 28.7672 14.8011 28.123 14.4064L26.7713 15.0052L25.1792 13.4131L25.7802 12.0613C25.3833 11.4194 25.093 10.7164 24.9161 9.98156L23.5371 9.45079V7.19871L24.9161 6.66794C25.093 5.93084 25.3833 5.23005 25.7802 4.58596L25.1792 3.23418L26.7713 1.64202L28.123 2.24306C28.7672 1.84616 29.468 1.55584 30.2028 1.38119L30.7358 0H32.9879L33.5186 1.38119ZM31.8608 4.39539C29.6902 4.39539 27.9325 6.15309 27.9325 8.32361C27.9325 10.4941 29.6902 12.2541 31.8608 12.2541C34.0312 12.2541 35.7912 10.4941 35.7912 8.32361C35.7912 6.15309 34.0312 4.39539 31.8608 4.39539Z" fill="white"/>
</g>
<defs>
<clipPath id="clip0_401_275">
<rect width="42" height="42" fill="white"/>
</clipPath>
</defs>
</svg>
