<svg width="42" height="38" viewBox="0 0 42 38" fill="none" xmlns="http://www.w3.org/2000/svg">
<g clip-path="url(#clip0_401_135)">
<path fill-rule="evenodd" clip-rule="evenodd" d="M8.80293 30.3033H5.29449C5.26241 30.3033 5.23496 30.3191 5.21887 30.3466L3.04421 34.0797C3.02687 34.1094 3.02841 34.1442 3.04816 34.1723C3.4014 34.6768 3.45236 35.3584 3.12195 35.9254C2.66583 36.7085 1.65551 36.9768 0.86551 36.5247C0.0754092 36.0726 -0.195279 35.0713 0.260942 34.2882C0.591258 33.7211 1.2122 33.4242 1.82958 33.4751C1.86407 33.4779 1.89518 33.4618 1.91243 33.4321L4.30074 29.332L4.30151 29.3325C4.41441 29.1396 4.62499 29.01 4.8662 29.01H7.86959C7.90138 29.01 7.92874 28.9945 7.94482 28.9673C7.96091 28.9401 7.9613 28.909 7.94588 28.8814C6.9163 27.0449 6.25278 24.9788 6.05463 22.7799C6.05241 22.7548 6.06002 22.7323 6.07717 22.7138C6.09432 22.6952 6.11618 22.6856 6.14162 22.6856H12.8779C12.9211 22.6856 12.9572 22.7163 12.964 22.7586C13.6228 26.8572 17.1864 29.9969 21.497 30.0384C21.5448 30.0388 21.5836 30.0775 21.5836 30.1249V36.7547C21.5836 36.7787 21.5749 36.7992 21.5578 36.8161C21.5407 36.8329 21.5199 36.8415 21.4958 36.8413C16.2872 36.8129 11.6844 34.2526 8.87402 30.3396C8.85707 30.3162 8.83202 30.3033 8.80293 30.3033ZM5.99115 21.3873C5.99115 16.9749 7.85764 12.995 10.85 10.1793C10.8797 10.1515 10.886 10.1084 10.8656 10.0734L8.85717 6.62549C8.84108 6.59799 8.81363 6.58224 8.78155 6.58224H4.43195C4.39736 6.58224 4.36779 6.60085 4.35305 6.63179C4.08853 7.18642 3.51902 7.57024 2.85887 7.57024C1.94662 7.57024 1.207 6.83726 1.207 5.93299C1.207 5.02882 1.94653 4.29574 2.85887 4.29574C3.51902 4.29574 4.08853 4.67956 4.35305 5.23419C4.36779 5.26513 4.39736 5.28375 4.43195 5.28375H9.20839V5.28527C9.4337 5.28546 9.65285 5.40128 9.77385 5.60837L11.8563 9.18333C11.8694 9.20577 11.8895 9.22009 11.9153 9.22505C11.941 9.23002 11.9651 9.22419 11.9857 9.20825C13.3577 8.14454 14.9142 7.30357 16.5996 6.74044C16.6271 6.73128 16.6549 6.73538 16.6784 6.75219C16.702 6.76899 16.7148 6.79372 16.7148 6.82246V14.1601C16.7148 14.1896 16.7012 14.215 16.6766 14.2316C14.3918 15.7736 12.8838 18.3624 12.8551 21.3016C12.8546 21.349 12.8156 21.3873 12.7678 21.3873H5.99115ZM23.8615 1.40202V22.0883C23.8615 22.136 23.9007 22.1748 23.9487 22.1748H25.7099C25.7579 22.1748 25.7971 22.136 25.7971 22.0883V0.124815C25.7971 0.0831869 25.7683 0.0482421 25.7271 0.040031C25.6846 0.0315335 25.6361 0.0268555 25.5827 0.0268555H24.0757C24.0223 0.0268555 23.9738 0.0315335 23.9313 0.040031C23.8902 0.0483376 23.8614 0.0832823 23.8614 0.124815V1.40202H23.8615ZM20.6157 3.42642V22.0882C20.6157 22.1359 20.6549 22.1747 20.703 22.1747H22.464C22.5121 22.1747 22.5513 22.1359 22.5513 22.0882V2.13786C22.5513 2.09022 22.5121 2.05136 22.464 2.05136H20.83C20.7766 2.05136 20.728 2.05604 20.6857 2.06453C20.6445 2.07284 20.6157 2.10778 20.6157 2.14932V3.42642ZM17.37 4.17372V22.0883C17.37 22.136 17.4092 22.1748 17.4572 22.1748H19.2184C19.2664 22.1748 19.3056 22.136 19.3056 22.0883V4.16227C19.3056 4.11462 19.2664 4.07577 19.2184 4.07577H17.5843C17.5309 4.07577 17.4824 4.08044 17.4399 4.08894C17.3988 4.09715 17.37 4.1321 17.37 4.17372ZM31.3109 9.18304L33.3932 5.60837C33.5142 5.40118 33.7333 5.28546 33.9586 5.28518V5.28375H38.7351C38.7696 5.28375 38.7992 5.26513 38.814 5.23419C39.0785 4.67956 39.648 4.29574 40.3081 4.29574C41.2205 4.29574 41.96 5.02872 41.96 5.93299C41.96 6.83726 41.2205 7.57024 40.3081 7.57024C39.6481 7.57024 39.0785 7.18642 38.814 6.63179C38.7992 6.60085 38.7695 6.58224 38.7351 6.58224H34.3854C34.3533 6.58224 34.3258 6.59799 34.3097 6.62549L32.3017 10.0727C32.2813 10.1078 32.2876 10.1509 32.3172 10.1788C33.3792 11.178 34.2993 12.324 35.0446 13.5839C35.0568 13.6045 35.0598 13.6267 35.0536 13.6498C35.0474 13.6729 35.0338 13.6906 35.0129 13.7026L29.2189 17.018C29.1776 17.0417 29.1245 17.0278 29.1001 16.9872C28.4445 15.8895 27.5511 14.9478 26.4902 14.2318C26.4657 14.2152 26.4521 14.1898 26.4521 14.1603V6.82208C26.4521 6.79334 26.4649 6.76861 26.4885 6.7518C26.5121 6.735 26.5398 6.7309 26.5673 6.74006C28.2528 7.30319 29.8092 8.14425 31.1814 9.20806C31.202 9.2241 31.2261 9.22983 31.2518 9.22486C31.2777 9.2198 31.2978 9.20557 31.3109 9.18304ZM35.8598 27.8012L38.797 29.482C39.006 29.602 39.1228 29.8191 39.123 30.0425H39.1245V34.7766C39.1245 34.8109 39.1432 34.8402 39.1745 34.8548C39.7341 35.117 40.1213 35.6815 40.1213 36.3358C40.1213 37.24 39.3818 37.973 38.4695 37.973C37.5571 37.973 36.8176 37.24 36.8176 36.3358C36.8176 35.6815 37.2049 35.117 37.7644 34.8548C37.7956 34.8402 37.8144 34.8108 37.8144 34.7766V30.4654C37.8144 30.4336 37.7985 30.4064 37.7708 30.3905L35.2767 28.9633C35.2558 28.9513 35.2335 28.9485 35.2101 28.9547C35.1868 28.961 35.1691 28.9747 35.1572 28.9956C32.6965 33.2983 28.2139 36.3159 22.9886 36.7786C22.9633 36.7809 22.9407 36.7732 22.922 36.7561C22.9032 36.7392 22.8935 36.7175 22.8935 36.6923V30.0156C22.8935 29.9728 22.9245 29.9371 22.9672 29.9304C28.4382 29.0679 31.7071 23.4018 29.7409 18.3028C29.7255 18.2628 29.7412 18.2184 29.7786 18.197L35.6144 14.8575C35.6364 14.8449 35.6602 14.8423 35.6845 14.8499C35.7087 14.8575 35.7267 14.8731 35.7374 14.896C37.6249 18.9322 37.6583 23.6261 35.8238 27.691C35.8055 27.7316 35.8209 27.779 35.8598 27.8012Z" fill="white"/>
</g>
<defs>
<clipPath id="clip0_401_135">
<rect width="42" height="38" fill="white" transform="translate(-0.000244141 -6.10352e-05)"/>
</clipPath>
</defs>
</svg>
