<svg width="42" height="42" viewBox="0 0 42 42" fill="none" xmlns="http://www.w3.org/2000/svg">
<g clip-path="url(#clip0_401_743)">
<path fill-rule="evenodd" clip-rule="evenodd" d="M24.173 7.76645C25.5794 8.09933 26.9207 8.65267 28.1535 9.40926L30.7406 8.26362L33.7877 11.2985L32.6418 13.8753C33.4014 15.103 33.9571 16.4389 34.2913 17.844L36.9304 18.8556V23.1487L34.2913 24.1603C33.9571 25.561 33.3971 26.8969 32.6418 28.1247L33.7877 30.7015L30.7406 33.7364L28.1535 32.595C26.925 33.3516 25.5794 33.905 24.173 34.2379L23.1573 36.8665H18.847L17.8313 34.2379C16.4206 33.905 15.0793 33.3473 13.8466 32.595L11.2594 33.7364L8.2123 30.7015L9.36256 28.1247C8.60292 26.9012 8.04735 25.561 7.70872 24.1603L5.06959 23.1487V18.8556L7.70872 17.844C8.04735 16.4389 8.60292 15.103 9.36256 13.8753L8.2123 11.2985L11.2594 8.26362L13.8466 9.40926C15.0793 8.65267 16.4206 8.09933 17.827 7.76645L18.847 5.13352H23.1573L24.173 7.76645ZM20.9992 10.6976C15.2842 10.6976 10.6561 15.3071 10.6561 20.9991C10.6561 26.6912 15.2842 31.3067 20.9992 31.3067C26.7142 31.3067 31.3482 26.6912 31.3482 20.9991C31.3482 15.3071 26.7142 10.6976 20.9992 10.6976ZM22.0792 14.5279L27.7739 24.3499C27.9997 24.7404 27.9997 25.1995 27.7739 25.59C27.547 25.9794 27.1477 26.2101 26.6951 26.2101H15.3081C14.8566 26.2101 14.4561 25.9794 14.2304 25.59C14.0046 25.1995 14.0046 24.7404 14.2304 24.3499L19.9239 14.5279C20.1497 14.1375 20.5501 13.9079 21.0016 13.9079C21.4543 13.9079 21.8535 14.1375 22.0792 14.5279ZM21.0017 24.0014C21.3853 24.0014 21.698 23.6899 21.698 23.3079C21.698 22.9257 21.3853 22.6143 21.0017 22.6143C20.618 22.6143 20.3053 22.9257 20.3053 23.3079C20.3053 23.6899 20.618 24.0014 21.0017 24.0014ZM21.0017 21.8882C21.2946 21.8882 21.5352 21.6578 21.5457 21.3661L21.6829 17.5751C21.6888 17.4223 21.6375 17.2892 21.5306 17.1791C21.4248 17.0691 21.2923 17.0135 21.1389 17.0135H20.8644C20.711 17.0135 20.5797 17.0691 20.4727 17.1791C20.3669 17.2892 20.3157 17.4223 20.3204 17.5751L20.4587 21.3661C20.4692 21.6578 20.7087 21.8882 21.0017 21.8882ZM33.4012 4.11987L32.9643 2.59547C32.8617 2.23738 33.0702 1.86368 33.4298 1.76146C33.7893 1.65925 34.1645 1.86697 34.2671 2.22506L35.2962 5.81573C35.3533 6.01518 35.3152 6.22974 35.1928 6.39757C35.0703 6.5654 34.8773 6.66779 34.6691 6.67521L30.9222 6.80939C30.5486 6.8228 30.2343 6.5315 30.2209 6.1594C30.2075 5.78722 30.4999 5.47425 30.8735 5.46092L32.8453 5.39024C30.089 3.31015 26.7465 1.92896 23.0568 1.54269C12.2673 0.411052 2.60049 8.20517 1.4642 18.9514C1.01067 23.2475 1.98954 27.3625 4.01485 30.8289C4.20292 31.1507 4.09326 31.5641 3.77005 31.7514C3.44692 31.9387 3.03192 31.8294 2.84385 31.5076C0.67865 27.8019 -0.368045 23.4028 0.116817 18.8101C1.33143 7.32275 11.6649 -1.00894 23.1986 0.200715C27.0269 0.601571 30.5056 2.00444 33.4012 4.11987ZM9.15408 36.6097C11.91 38.6892 15.2545 40.0704 18.9431 40.4573C29.7326 41.5889 39.3994 33.7948 40.5356 23.0486C40.9892 18.7548 40.0127 14.6377 37.9852 11.1714C37.7969 10.8497 37.9064 10.4362 38.2295 10.2488C38.5526 10.0613 38.9676 10.1703 39.1558 10.4921C41.3235 14.1979 42.3679 18.5994 41.883 23.1899C40.6684 34.6773 30.3349 43.0089 18.8012 41.7993C14.9742 41.3979 11.4939 39.995 8.59877 37.8804L9.03553 39.4045C9.13816 39.7626 8.9296 40.1363 8.57006 40.2385C8.21061 40.3407 7.8354 40.133 7.73277 39.7749L6.70369 36.1843C6.64653 35.9848 6.68464 35.7702 6.80708 35.6024C6.92952 35.4346 7.12259 35.3322 7.33073 35.3248L11.0776 35.1906C11.4513 35.1772 11.7655 35.4685 11.7789 35.8406C11.7924 36.2128 11.5 36.5257 11.1263 36.5391L9.15408 36.6097Z" fill="white"/>
</g>
<defs>
<clipPath id="clip0_401_743">
<rect width="42" height="42" fill="white"/>
</clipPath>
</defs>
</svg>
