<svg width="42" height="42" viewBox="0 0 42 42" fill="none" xmlns="http://www.w3.org/2000/svg">
<g clip-path="url(#clip0_401_589)">
<path d="M27.5625 14.4375C29.2694 16.1444 30.8608 17.9334 32.2921 19.7341C33.0513 18.1099 33.4687 16.3118 33.4687 14.4375C33.4687 10.7901 31.8852 7.51408 29.3803 5.2323C27.1307 6.20224 24.6369 7.68077 22.0913 9.55764C23.9098 10.9922 25.7506 12.6263 27.5625 14.4375Z" fill="white"/>
<path d="M27.5631 35.4375L27.5624 33.4687H26.2499V30.8437H27.5631L27.5624 28.875H26.2499V26.1614C26.2499 25.914 26.3891 25.6869 26.6102 25.5754C28.6741 24.5339 30.3521 22.9819 31.5341 21.1188L31.5327 21.1175C31.538 21.1109 31.5426 21.1043 31.5478 21.0978C31.5702 21.063 31.5951 21.0295 31.6167 20.9941C30.129 19.0831 28.4464 17.178 26.6338 15.3654C24.734 13.4656 22.8446 11.804 21.0131 10.3753C19.1165 11.8486 17.2081 13.5227 15.3654 15.3654C13.5272 17.2036 11.8557 19.1074 10.3857 20.9993C11.5709 22.9169 13.2811 24.5116 15.3896 25.5754C15.6108 25.6876 15.7499 25.914 15.7499 26.1614V28.875H14.4374V30.8437H15.7499V33.4687H14.4374V35.4375H17.1215V36.75C17.4352 38.6091 19.0522 40.0312 20.9999 40.0312C22.9477 40.0312 24.564 38.6091 24.8784 36.75V35.4375H27.5631ZM22.3124 18.375C22.3124 18.2011 22.3813 18.0337 22.5047 17.911L24.4735 15.9423L25.4014 16.8702L23.6249 18.6467V28.875H22.3124V18.375ZM16.5985 16.8702L17.5264 15.9423L19.4951 17.911C19.6185 18.0337 19.6874 18.2011 19.6874 18.375V28.875H18.3749V18.6467L16.5985 16.8702Z" fill="white"/>
<path d="M8.54044 14.6993C8.56078 15.6699 8.69137 16.6182 8.92369 17.5324C9.11597 18.291 9.37716 19.024 9.70463 19.7249C11.1143 17.953 12.7017 16.1733 14.4382 14.4368C16.2382 12.6368 18.0862 10.9968 19.9231 9.54713C17.2928 7.60463 14.8076 6.16416 12.619 5.23163C10.1148 7.51472 8.53125 10.7907 8.53125 14.4375C8.53125 14.5254 8.53847 14.6121 8.54044 14.6993Z" fill="white"/>
<path d="M28.2372 4.30369C26.1943 2.84025 23.6992 1.96875 21.0001 1.96875C18.295 1.96875 15.796 2.84419 13.7505 4.31288C16.0139 5.34581 18.4735 6.82828 21.0014 8.72091C23.505 6.84403 25.9646 5.34581 28.2372 4.30369Z" fill="white"/>
<path d="M41.3439 4.59375C41.3439 2.42222 39.5779 0.65625 37.4064 0.65625C35.9403 0.65625 34.6613 1.46278 33.984 2.65453C32.6873 2.73394 31.2179 3.10144 29.6364 3.71372C30.0222 4.02544 30.395 4.35225 30.7454 4.70269C31.7357 4.35356 32.6702 4.11075 33.5181 4.00444C33.4885 4.19672 33.4689 4.39294 33.4689 4.59375C33.4689 6.76528 35.2348 8.53125 37.4064 8.53125C37.6052 8.53125 37.7988 8.51156 37.9898 8.48334C37.703 10.7454 36.5014 13.6388 34.5805 16.7587C34.2537 18.6959 33.5266 20.515 32.4556 22.1123C32.8526 22.6511 33.2385 23.1893 33.6001 23.7241C33.1151 24.2005 32.8126 24.862 32.8126 25.5938C32.8126 27.0414 33.9899 28.2188 35.4376 28.2188C35.6949 28.2188 35.939 28.1702 36.1746 28.1006C38.2588 32.3288 38.6381 35.6961 37.1675 37.1674C35.7277 38.6065 32.5462 38.2922 28.4905 36.3654C28.253 36.603 27.9249 36.75 27.5626 36.75H26.3604C29.5438 38.4812 32.3401 39.3645 34.5215 39.3645C36.0302 39.3645 37.2462 38.9438 38.0954 38.0947C40.0497 36.1403 39.7623 32.3623 37.3073 27.4312C37.7732 26.9581 38.0626 26.3097 38.0626 25.5938C38.0626 24.1461 36.8853 22.9688 35.4376 22.9688C35.1961 22.9688 34.9664 23.0121 34.7439 23.0737C34.2813 22.386 33.7917 21.695 33.2733 21.0026C36.9601 16.0801 39.1415 11.4194 39.3515 8.01281C40.5399 7.33425 41.3439 6.05719 41.3439 4.59375Z" fill="white"/>
<path d="M3.93742 16.4062C3.93742 17.8539 5.11474 19.0312 6.56242 19.0312C7.04608 19.0312 7.49496 18.8947 7.88214 18.6644C7.45296 17.3217 7.21867 15.9016 7.21867 14.4375C7.21867 14.2505 7.23902 14.0693 7.24689 13.8843C7.02771 13.8232 6.8013 13.7812 6.56242 13.7812C6.30517 13.7812 6.06105 13.8298 5.82546 13.8994C3.74121 9.67115 3.36124 6.30393 4.83255 4.83262C5.96589 3.69927 8.26211 3.66384 11.2533 4.70399C11.5991 4.35749 11.9673 4.03331 12.3486 3.72487C8.62305 2.29031 5.57214 2.23781 3.90461 3.90468C1.9503 5.85899 2.23774 9.63702 4.69277 14.5681C4.22683 15.0419 3.93742 15.6903 3.93742 16.4062Z" fill="white"/>
<path d="M13.5089 36.3641C11.6287 37.2566 9.92513 37.8105 8.48269 37.9916C8.51156 37.8 8.53125 37.6058 8.53125 37.4063C8.53125 35.2347 6.76528 33.4688 4.59375 33.4688C4.39294 33.4688 4.19672 33.4885 4.00378 33.518C4.38572 30.4605 6.41878 26.3583 9.54581 22.113C9.27938 21.716 9.03459 21.3045 8.81147 20.8819C5.13647 25.7591 2.86847 30.4894 2.65453 33.9839C1.46278 34.6612 0.65625 35.9402 0.65625 37.4063C0.65625 39.5778 2.42222 41.3438 4.59375 41.3438C6.0585 41.3438 7.33687 40.5379 8.01478 39.3481C10.1187 39.2169 12.7378 38.3283 15.6404 36.75H14.4375C14.0752 36.75 13.7465 36.6024 13.5089 36.3641Z" fill="white"/>
</g>
<defs>
<clipPath id="clip0_401_589">
<rect width="42" height="42" fill="white"/>
</clipPath>
</defs>
</svg>
