<svg width="42" height="42" viewBox="0 0 42 42" fill="none" xmlns="http://www.w3.org/2000/svg">
<g clip-path="url(#clip0_401_445)">
<path d="M0.00585938 13.5021C0.00585938 15.63 5.85423 18.0009 14.2519 18.0009C14.668 18.0009 15.0767 17.9844 15.4845 17.9709C15.544 17.8398 15.6215 17.7176 15.7147 17.608C16.291 16.9231 16.9249 16.289 17.6094 15.7125C17.8388 15.5175 18.1186 15.3913 18.4166 15.3486C18.7146 15.3059 19.0186 15.3483 19.2935 15.4711L21.3359 16.3431C22.2468 15.8293 23.2159 15.4265 24.2226 15.1434L25.0474 13.0815C25.1581 12.8048 25.3424 12.5637 25.5802 12.3842C25.8181 12.2048 26.1006 12.0938 26.397 12.0633C27.0952 12.0025 27.7969 11.9935 28.4964 12.0363V7.17462C25.8054 9.35126 19.8993 10.5029 14.2519 10.5029C8.60446 10.5029 2.69836 9.35126 0.00585938 7.17462V13.5021ZM5.27389 13.2172C5.31902 13.0237 5.43914 12.8559 5.60785 12.7509C5.77656 12.6459 5.98006 12.6122 6.17364 12.6571C6.41132 12.7118 6.65351 12.7651 6.90094 12.8145C7.08316 12.8516 7.24513 12.9549 7.35541 13.1046C7.46569 13.2544 7.51641 13.4397 7.49773 13.6247C7.47904 13.8097 7.39228 13.9812 7.25429 14.1058C7.1163 14.2304 6.93692 14.2993 6.75098 14.2991C6.70063 14.2997 6.65037 14.2949 6.60102 14.2849C6.33859 14.2324 6.08116 14.1764 5.82873 14.1169C5.63617 14.0706 5.46974 13.95 5.36578 13.7815C5.26183 13.6129 5.22879 13.41 5.27389 13.2172ZM1.57592 11.8346C1.61765 11.7453 1.67654 11.6652 1.74925 11.5988C1.82196 11.5323 1.90704 11.4808 1.99965 11.4473C2.09226 11.4137 2.19057 11.3987 2.28898 11.4032C2.38738 11.4076 2.48394 11.4314 2.57314 11.4732C2.79808 11.5786 3.03376 11.6801 3.2802 11.7776C3.3737 11.8123 3.45933 11.8653 3.53209 11.9336C3.60484 12.0018 3.66325 12.0839 3.70389 12.175C3.74453 12.266 3.76659 12.3643 3.76877 12.4641C3.77096 12.5638 3.75322 12.6629 3.71661 12.7557C3.68 12.8485 3.62524 12.933 3.55555 13.0044C3.48585 13.0757 3.40262 13.1325 3.31073 13.1713C3.21884 13.21 3.12013 13.2301 3.02038 13.2303C2.92064 13.2304 2.82187 13.2107 2.72985 13.1722C2.45393 13.0627 2.1885 12.9473 1.93732 12.8318C1.84809 12.7901 1.76796 12.7312 1.7015 12.6585C1.63504 12.5858 1.58356 12.5007 1.55 12.4081C1.51644 12.3155 1.50145 12.2171 1.5059 12.1187C1.51035 12.0203 1.53414 11.9238 1.57592 11.8346Z" fill="white"/>
<path d="M0.00585938 22.4996C0.00585938 24.3808 4.81502 26.5485 12.043 26.9309C12.0535 26.7502 12.052 26.5687 12.07 26.3888C12.1011 26.0942 12.2118 25.8136 12.3903 25.5772C12.5687 25.3407 12.8082 25.1573 13.083 25.0466L15.1516 24.2241C15.434 23.2169 15.8368 22.2474 16.3513 21.3367L15.555 19.4712C15.1201 19.4832 14.6898 19.5004 14.2519 19.5004C8.60446 19.5004 2.69836 18.3488 0.00585938 16.1721V22.4996Z" fill="white"/>
<path d="M14.2519 9.00335C22.1197 9.00335 28.4979 6.98919 28.4979 4.5046C28.4979 2.02002 22.1197 0.00585938 14.2519 0.00585938C6.38402 0.00585938 0.00585938 2.02002 0.00585938 4.5046C0.00585938 6.98919 6.38402 9.00335 14.2519 9.00335Z" fill="white"/>
<path d="M27.748 32.2469C30.2326 32.2469 32.2468 30.2327 32.2468 27.7481C32.2468 25.2635 30.2326 23.2494 27.748 23.2494C25.2634 23.2494 23.2493 25.2635 23.2493 27.7481C23.2493 30.2327 25.2634 32.2469 27.748 32.2469Z" fill="white"/>
<path d="M27.7482 35.9958C29.3794 35.9958 30.974 35.5121 32.3304 34.6058C33.6867 33.6996 34.7438 32.4115 35.3681 30.9044C35.9923 29.3973 36.1556 27.739 35.8374 26.1391C35.5192 24.5392 34.7337 23.0696 33.5802 21.9161C32.4267 20.7627 30.9571 19.9771 29.3572 19.6589C27.7573 19.3407 26.099 19.504 24.5919 20.1282C23.0849 20.7525 21.7967 21.8096 20.8905 23.166C19.9842 24.5223 19.5005 26.1169 19.5005 27.7481C19.5031 29.9348 20.3728 32.0311 21.919 33.5773C23.4652 35.1235 25.5616 35.9932 27.7482 35.9958ZM27.7482 21.7498C28.9345 21.7498 30.0943 22.1016 31.0807 22.7607C32.0671 23.4198 32.8359 24.3566 33.2899 25.4527C33.7439 26.5487 33.8627 27.7548 33.6313 28.9183C33.3998 30.0819 32.8285 31.1507 31.9896 31.9896C31.1508 32.8285 30.082 33.3998 28.9184 33.6312C27.7548 33.8626 26.5488 33.7439 25.4527 33.2899C24.3567 32.8359 23.4199 32.067 22.7608 31.0806C22.1017 30.0942 21.7499 28.9345 21.7499 27.7481C21.7516 26.1578 22.3842 24.6332 23.5087 23.5086C24.6332 22.3841 26.1579 21.7516 27.7482 21.7498Z" fill="white"/>
<path d="M13.5629 28.9665C13.5685 28.9876 13.579 29.007 13.5936 29.0232C13.6082 29.0394 13.6265 29.0518 13.6469 29.0595L16.056 30.0215C16.1666 30.0656 16.2651 30.1355 16.3434 30.2254C16.4216 30.3152 16.4773 30.4224 16.5059 30.5381C16.7841 31.6597 17.2295 32.7332 17.827 33.7224C17.8883 33.8242 17.9245 33.939 17.9327 34.0575C17.941 34.176 17.9209 34.2948 17.8742 34.404L16.8538 36.7958C16.8434 36.8137 16.838 36.834 16.838 36.8547C16.838 36.8753 16.8434 36.8956 16.8538 36.9135C17.3767 37.5368 17.9525 38.1137 18.5745 38.6381C18.5922 38.6522 18.6136 38.6609 18.6362 38.6629C18.6587 38.6649 18.6814 38.6601 18.7012 38.6493L21.0931 37.6281C21.2022 37.5815 21.3208 37.5616 21.4392 37.5698C21.5575 37.578 21.6722 37.6142 21.7739 37.6753C22.7634 38.2725 23.8371 38.7173 24.959 38.995C25.0747 39.0235 25.1818 39.0792 25.2717 39.1575C25.3615 39.2357 25.4314 39.3342 25.4756 39.4448L26.4391 41.8569C26.4463 41.877 26.4583 41.8949 26.4742 41.9092C26.49 41.9235 26.5091 41.9336 26.5298 41.9386C27.3376 42.0129 28.1506 42.0129 28.9584 41.9386C28.9809 41.9347 29.002 41.9248 29.0196 41.9101C29.0371 41.8953 29.0504 41.8762 29.0581 41.8547L30.0208 39.4448C30.065 39.3342 30.1349 39.2357 30.2248 39.1575C30.3146 39.0792 30.4218 39.0235 30.5374 38.995C31.6592 38.7168 32.7326 38.2714 33.7218 37.6738C33.8235 37.6127 33.9382 37.5765 34.0565 37.5683C34.1749 37.5601 34.2935 37.58 34.4026 37.6266L36.7929 38.6471C36.811 38.6575 36.8314 38.6629 36.8522 38.6629C36.873 38.6629 36.8934 38.6575 36.9114 38.6471C37.5347 38.1228 38.1117 37.5459 38.6359 36.9225C38.6492 36.9047 38.6571 36.8834 38.6587 36.8612C38.6602 36.8391 38.6555 36.8169 38.6449 36.7973L37.6237 34.4032C37.577 34.294 37.557 34.1753 37.5652 34.0568C37.5734 33.9383 37.6097 33.8234 37.6709 33.7217C38.2685 32.7324 38.7138 31.659 38.9921 30.5373C39.0206 30.4217 39.0763 30.3145 39.1546 30.2246C39.2328 30.1348 39.3313 30.0649 39.442 30.0207L41.8548 29.0572C41.8744 29.0494 41.8919 29.037 41.9059 29.0211C41.9198 29.0052 41.9298 28.9862 41.935 28.9658C42.0156 28.1582 42.0156 27.3447 41.935 26.5372C41.9307 26.5145 41.9206 26.4933 41.9058 26.4756C41.891 26.4579 41.8719 26.4442 41.8503 26.436L39.4412 25.474C39.3306 25.4298 39.2321 25.3599 39.1538 25.2701C39.0756 25.1802 39.0199 25.073 38.9913 24.9574C38.7131 23.8357 38.2677 22.7622 37.6702 21.773C37.6089 21.6713 37.5727 21.5564 37.5644 21.4379C37.5562 21.3194 37.5763 21.2007 37.623 21.0915L38.6434 18.6996C38.6538 18.6817 38.6592 18.6614 38.6592 18.6408C38.6592 18.6201 38.6538 18.5998 38.6434 18.5819C38.1195 17.9583 37.5425 17.3814 36.9189 16.8574C36.9012 16.8433 36.8798 16.8347 36.8572 16.8327C36.8347 16.8307 36.8121 16.8354 36.7922 16.8461L34.4004 17.8674C34.2914 17.9144 34.1727 17.9346 34.0542 17.9264C33.9358 17.9182 33.821 17.8818 33.7196 17.8201C32.7309 17.2235 31.6582 16.7789 30.5374 16.5012C30.4218 16.4727 30.3146 16.417 30.2248 16.3387C30.1349 16.2605 30.065 16.162 30.0208 16.0514L29.0574 13.6393C29.0502 13.6192 29.0381 13.6013 29.0223 13.587C29.0064 13.5727 28.9873 13.5626 28.9666 13.5576C28.1588 13.4825 27.3458 13.4825 26.5381 13.5576C26.5155 13.5615 26.4944 13.5714 26.4769 13.5861C26.4594 13.6009 26.4461 13.62 26.4383 13.6415L25.4756 16.0514C25.4314 16.162 25.3615 16.2605 25.2717 16.3387C25.1818 16.417 25.0747 16.4727 24.959 16.5012C23.8373 16.7794 22.7638 17.2248 21.7746 17.8224C21.6732 17.884 21.5584 17.9205 21.44 17.9287C21.3215 17.9369 21.2028 17.9166 21.0938 17.8696L18.7035 16.8491C18.6854 16.8389 18.665 16.8335 18.6443 16.8335C18.6235 16.8335 18.6031 16.8389 18.585 16.8491C17.9621 17.3737 17.3851 17.9507 16.8605 18.5737C16.8473 18.5915 16.8394 18.6128 16.8378 18.635C16.8362 18.6571 16.841 18.6793 16.8515 18.6989L17.8727 21.093C17.9194 21.2022 17.9395 21.3209 17.9312 21.4394C17.923 21.5579 17.8868 21.6728 17.8255 21.7745C17.228 22.7637 16.7826 23.8372 16.5044 24.9589C16.4758 25.0745 16.4201 25.1817 16.3419 25.2716C16.2636 25.3614 16.1651 25.4313 16.0545 25.4755L13.6417 26.439C13.622 26.4468 13.6045 26.4592 13.5906 26.4751C13.5766 26.491 13.5666 26.5099 13.5614 26.5304C13.4808 27.338 13.4808 28.1515 13.5614 28.959L13.5629 28.9665ZM27.7482 18.0008C29.676 18.0008 31.5606 18.5725 33.1635 19.6435C34.7664 20.7146 36.0158 22.2369 36.7535 24.018C37.4913 25.7991 37.6843 27.7589 37.3082 29.6497C36.9321 31.5405 36.0038 33.2773 34.6406 34.6405C33.2774 36.0036 31.5406 36.932 29.6498 37.3081C27.759 37.6842 25.7992 37.4912 24.0181 36.7534C22.237 36.0157 20.7147 34.7663 19.6437 33.1634C18.5726 31.5605 18.0009 29.6759 18.0009 27.7481C18.0039 25.1639 19.0318 22.6863 20.8591 20.859C22.6865 19.0317 25.164 18.0038 27.7482 18.0008Z" fill="white"/>
<path d="M14.2519 35.9958C14.7018 35.9958 15.1381 35.9815 15.5753 35.9695L16.3468 34.1618C15.8337 33.2501 15.4324 32.2799 15.1516 31.2721L13.0897 30.4473C12.8132 30.3366 12.5723 30.1523 12.393 29.9144C12.2138 29.6765 12.1031 29.3941 12.073 29.0977C12.0505 28.8728 12.0505 28.6478 12.0393 28.4229C5.89847 28.1305 1.96431 26.7606 0.00585938 25.1193V31.497C0.00585938 33.625 5.85423 35.9958 14.2519 35.9958Z" fill="white"/>
</g>
<defs>
<clipPath id="clip0_401_445">
<rect width="42" height="42" fill="white"/>
</clipPath>
</defs>
</svg>
