<svg width="42" height="41" viewBox="0 0 42 41" fill="none" xmlns="http://www.w3.org/2000/svg">
<g clip-path="url(#clip0_401_492)">
<path fill-rule="evenodd" clip-rule="evenodd" d="M24.7071 10.4443C24.0583 14.629 26.4253 18.8553 31.8069 23.1227C31.8294 23.1406 31.8412 23.1656 31.8404 23.1944C31.8396 23.2233 31.8266 23.2476 31.8032 23.2643C30.8447 23.9424 30.0537 24.847 29.5074 25.8993C29.4955 25.9223 29.4763 25.9376 29.4512 25.9439C29.4262 25.9503 29.4021 25.9459 29.3808 25.9312C26.6647 24.0615 24.6468 21.8633 23.3277 19.3369C23.3088 19.3005 23.269 19.2825 23.2295 19.2924C23.1901 19.3022 23.1632 19.3369 23.1632 19.378V21.8248C23.1632 21.8565 23.148 21.8837 23.1212 21.9002C23.0943 21.9166 23.0634 21.9176 23.0355 21.903C21.7624 21.2344 20.2378 21.2344 18.9648 21.903C18.937 21.9177 18.9061 21.9167 18.8792 21.9002C18.8523 21.8836 18.8372 21.8565 18.8372 21.8248V19.378C18.8372 19.337 18.8103 19.3023 18.7708 19.2924C18.7313 19.2825 18.6915 19.3005 18.6725 19.3369C17.355 21.8605 15.3403 24.0564 12.6288 25.9248C12.6075 25.9395 12.5835 25.9438 12.5585 25.9375C12.5333 25.9311 12.5142 25.916 12.5022 25.8928C11.9556 24.8404 11.1645 23.9357 10.2062 23.2569C10.1828 23.2404 10.1699 23.2159 10.1691 23.1872C10.1683 23.1584 10.1801 23.1333 10.2025 23.1155C15.5776 18.8505 17.9415 14.6268 17.2932 10.4444C17.2924 10.4397 17.2921 10.4356 17.2921 10.4308V10.2007C17.2921 10.1522 17.2528 10.1126 17.2048 10.1126H14.1372C14.1038 10.1126 14.0752 10.095 14.0597 10.0651C14.0443 10.0352 14.0465 10.0015 14.0657 9.97392L20.9286 0.0925263C20.9455 0.068263 20.9707 0.0549927 21.0002 0.0549927C21.0296 0.0549927 21.0548 0.068263 21.0717 0.0925263L27.9347 9.97392C27.9538 10.0016 27.9561 10.0352 27.9407 10.0651C27.9253 10.095 27.8966 10.1126 27.8631 10.1126H24.7956C24.7475 10.1126 24.7082 10.1522 24.7082 10.2007V10.4308C24.7081 10.4355 24.7077 10.4396 24.7071 10.4443ZM35.9767 15.7767C37.6913 15.7767 39.0814 17.1795 39.0814 18.9099C39.0814 20.6404 37.6913 22.0432 35.9767 22.0432C34.2621 22.0432 32.872 20.6404 32.872 18.9099C32.872 17.1795 34.2621 15.7767 35.9767 15.7767ZM35.9767 23.2556C32.6835 23.2556 29.9892 25.9748 29.9892 29.2983V33.91C29.9892 33.9585 30.0284 33.9981 30.0765 33.9981H41.877C41.9251 33.9981 41.9644 33.9585 41.9644 33.91V29.2983C41.9644 25.9748 39.2699 23.2556 35.9767 23.2556ZM33.7669 26.3086H38.1865C38.2346 26.3086 38.2738 26.3482 38.2738 26.3967V30.857C38.2738 30.9055 38.2346 30.9451 38.1865 30.9451H33.7669C33.7188 30.9451 33.6796 30.9055 33.6796 30.857V26.3967C33.6796 26.3482 33.7188 26.3086 33.7669 26.3086ZM6.02344 15.7767C7.73808 15.7767 9.1281 17.1795 9.1281 18.9099C9.1281 20.6404 7.73808 22.0432 6.02344 22.0432C4.3088 22.0432 2.91878 20.6404 2.91878 18.9099C2.91868 17.1795 4.3087 15.7767 6.02344 15.7767ZM6.02344 23.2556C2.73027 23.2556 0.0358887 25.9748 0.0358887 29.2983V33.91C0.0358887 33.9585 0.0751409 33.9981 0.123225 33.9981H11.9238C11.9718 33.9981 12.0111 33.9585 12.0111 33.91V29.2983C12.011 25.9748 9.31661 23.2556 6.02344 23.2556ZM6.02344 25.7425C7.60197 25.7425 8.8815 27.0339 8.8815 28.6268C8.8815 30.2198 7.60187 31.5112 6.02344 31.5112C4.44501 31.5112 3.16538 30.2198 3.16538 28.6268C3.16528 27.0339 4.44491 25.7425 6.02344 25.7425ZM21.0001 22.7238C19.2854 22.7238 17.8954 24.1266 17.8954 25.8571C17.8954 27.5875 19.2854 28.9903 21.0001 28.9903C22.7147 28.9903 24.1047 27.5875 24.1047 25.8571C24.1047 24.1266 22.7147 22.7238 21.0001 22.7238ZM21.0001 30.2027C24.2932 30.2027 26.9876 32.9218 26.9876 36.2453V40.857C26.9876 40.9056 26.9484 40.9452 26.9003 40.9452H15.0999C15.0518 40.9452 15.0125 40.9056 15.0125 40.857V36.2454C15.0125 32.9218 17.7069 30.2027 21.0001 30.2027ZM21.0757 33.225C21.0596 33.197 21.0322 33.1809 21.0001 33.1809C20.968 33.1809 20.9405 33.197 20.9244 33.225L18.2367 37.923C18.2207 37.951 18.2207 37.9831 18.2367 38.0111C18.2528 38.0391 18.2803 38.0552 18.3124 38.0552H23.6877C23.7198 38.0552 23.7472 38.0391 23.7633 38.0111C23.7793 37.9831 23.7793 37.951 23.7633 37.923L21.0757 33.225Z" fill="white"/>
</g>
<defs>
<clipPath id="clip0_401_492">
<rect width="42" height="41" fill="white"/>
</clipPath>
</defs>
</svg>
