<svg width="42" height="43" viewBox="0 0 42 43" fill="none" xmlns="http://www.w3.org/2000/svg">
<g clip-path="url(#clip0_401_209)">
<path d="M17.6161 23.1949C17.6161 21.3019 18.6563 19.6069 20.3384 18.7705L24.7649 16.5253C25.4731 16.1731 26.2477 15.997 27.0224 15.997H33.1088V6.09163C33.1088 2.74582 30.3865 0.0383606 27.0224 0.0383606H7.10324C3.73913 0.0383606 1.01685 2.74582 1.01685 6.09163V34.7071C1.01685 38.0529 3.73913 40.7604 7.10324 40.7604H22.286C19.3424 37.6127 17.6161 33.4084 17.6161 28.94V23.1949ZM7.10324 6.64193H22.5959C23.5122 6.64193 24.2558 7.38153 24.2558 8.29282C24.2558 9.20412 23.5122 9.94372 22.5959 9.94372H7.10324C6.18696 9.94372 5.44332 9.20412 5.44332 8.29282C5.44332 7.38153 6.18696 6.64193 7.10324 6.64193ZM13.7429 23.1509H7.10324C6.18696 23.1509 5.44332 22.4113 5.44332 21.5C5.44332 20.5887 6.18696 19.8491 7.10324 19.8491H13.7429C14.6592 19.8491 15.4029 20.5887 15.4029 21.5C15.4029 22.4113 14.6592 23.1509 13.7429 23.1509ZM15.9562 16.5473H7.10324C6.18696 16.5473 5.44332 15.8077 5.44332 14.8964C5.44332 13.9851 6.18696 13.2455 7.10324 13.2455H15.9562C16.8725 13.2455 17.6161 13.9851 17.6161 14.8964C17.6161 15.8077 16.8725 16.5473 15.9562 16.5473ZM41.0543 21.7113L36.6278 19.4771C36.3954 19.3604 36.1365 19.2988 35.8753 19.2988H27.0224C26.7612 19.2988 26.5045 19.3604 26.2699 19.4771L21.8434 21.7113C21.2857 21.993 20.936 22.5631 20.936 23.1839V28.9466C20.936 34.7952 24.6099 40.1066 30.0855 42.1647C30.5237 42.3298 30.9841 42.4113 31.4466 42.4113C31.9092 42.4113 32.374 42.3276 32.8188 42.1625C38.2877 40.1066 41.9617 34.7952 41.9617 28.9466V23.1839C41.9617 22.5631 41.612 21.993 41.0543 21.7113ZM36.0081 28.6274L32.0243 33.0628C31.7078 33.4128 31.2585 33.6131 30.7849 33.6131C30.3112 33.6131 29.8619 33.4128 29.5454 33.0628L26.8896 30.1044C26.2809 29.4243 26.3385 28.3809 27.0224 27.7734C27.7085 27.168 28.7531 27.2231 29.3684 27.9054L30.7871 29.4837L33.5315 26.4262C34.1401 25.7461 35.1892 25.6888 35.8775 26.2942C36.5614 26.9017 36.6189 27.9451 36.0103 28.6252L36.0081 28.6274Z" fill="white"/>
</g>
<defs>
<clipPath id="clip0_401_209">
<rect width="42" height="43" fill="white" transform="translate(0.000244141 -3.05176e-05)"/>
</clipPath>
</defs>
</svg>
