<svg width="42" height="42" viewBox="0 0 42 42" fill="none" xmlns="http://www.w3.org/2000/svg">
<g clip-path="url(#clip0_401_302)">
<path fill-rule="evenodd" clip-rule="evenodd" d="M36.2371 19.2993V26.1568C36.8128 26.4217 37.2122 27.0016 37.2122 27.6745C37.2122 28.5975 36.4609 29.3456 35.5341 29.3456C34.6074 29.3456 33.8561 28.5974 33.8561 27.6745C33.8561 27.0015 34.2555 26.4217 34.8312 26.1568V19.2993H36.2371ZM33.9548 7.06107C34.5126 7.19329 35.0455 7.41361 35.5339 7.71304L36.5601 7.25917L37.7695 8.46352L37.3139 9.48509C37.6146 9.9715 37.8359 10.5024 37.9687 11.0581L39.0156 11.4594V13.1626L37.9684 13.564C37.8356 14.1196 37.6144 14.6503 37.3137 15.1366L37.7695 16.1584L36.5601 17.3629L35.5342 16.9092C35.0458 17.2088 34.5127 17.429 33.9547 17.5612L33.5517 18.6038H31.8413L31.4383 17.561C30.8803 17.4288 30.3474 17.2085 29.8591 16.909L28.8329 17.3629L27.6235 16.1585L28.0791 15.137C27.7782 14.6506 27.557 14.1197 27.4243 13.564L26.3774 13.1627V11.4595L27.4245 11.0582C27.5572 10.5025 27.7785 9.97176 28.0791 9.48544L27.6235 8.46361L28.8329 7.25917L29.8591 7.71304C30.3474 7.41361 30.8803 7.19329 31.4382 7.06107L31.8413 6.01825H33.5517L33.9548 7.06107ZM32.6964 9.34062C31.0489 9.34062 29.7136 10.6704 29.7136 12.3111C29.7136 13.9517 31.0489 15.2814 32.6964 15.2814C34.344 15.2814 35.6793 13.9517 35.6793 12.3111C35.6793 10.6704 34.344 9.34062 32.6964 9.34062ZM25.3821 5.19155C24.2567 5.65049 23.4585 6.75456 23.4585 8.03547C23.4585 9.15434 24.0674 10.1382 24.9715 10.6752V10.4982L26.278 9.9974C26.3484 9.80402 26.4274 9.61389 26.5151 9.42769L25.9468 8.15334L28.5213 5.5895L29.8011 6.15554C29.9881 6.06821 30.179 5.98938 30.3731 5.91937L30.876 4.61825H34.5169L35.0199 5.91937C35.214 5.98938 35.4049 6.06821 35.5918 6.15554L36.8716 5.5895L39.4461 8.15325L38.8779 9.42742C38.9657 9.61371 39.0448 9.80394 39.1152 9.9974L40.4215 10.4981V10.6752C41.3256 10.1382 41.9345 9.15434 41.9345 8.03547C41.9345 6.62322 40.9644 5.42588 39.655 5.07124C39.4137 2.85066 37.5253 1.12184 35.2313 1.12184C34.7042 1.12184 34.1985 1.2131 33.7293 1.38066C32.8423 0.52605 31.6342 0 30.3026 0C27.5805 0 25.3738 2.19756 25.3738 4.90831C25.3738 5.00343 25.3767 5.09784 25.3821 5.19155ZM30.3026 1.15474C30.6908 1.15474 31.0055 1.46816 31.0055 1.85474C31.0055 2.24131 30.6908 2.55474 30.3026 2.55474C28.9966 2.55474 27.9392 3.6078 27.9392 4.90831C27.9392 5.29489 27.6244 5.60831 27.2362 5.60831C26.8481 5.60831 26.5333 5.29489 26.5333 4.90831C26.5333 2.83483 28.2204 1.15474 30.3026 1.15474ZM17.5458 21.6237C17.1576 21.6237 16.8428 21.3103 16.8428 20.9237C16.8428 20.5371 17.1576 20.2237 17.5458 20.2237H26.5592C26.9474 20.2237 27.2622 20.5371 27.2622 20.9237C27.2622 21.3103 26.9474 21.6237 26.5592 21.6237H17.5458ZM17.5458 26.64C17.1576 26.64 16.8428 26.3266 16.8428 25.94C16.8428 25.5534 17.1576 25.24 17.5458 25.24H26.5592C26.9474 25.24 27.2622 25.5534 27.2622 25.94C27.2622 26.3266 26.9474 26.64 26.5592 26.64H17.5458ZM17.5458 29.1482C17.1576 29.1482 16.8428 28.8348 16.8428 28.4482C16.8428 28.0616 17.1576 27.7482 17.5458 27.7482H26.5592C26.9474 27.7482 27.2622 28.0616 27.2622 28.4482C27.2622 28.8348 26.9474 29.1482 26.5592 29.1482H17.5458ZM17.5458 24.1319C17.1576 24.1319 16.8428 23.8185 16.8428 23.4319C16.8428 23.0453 17.1576 22.7319 17.5458 22.7319H26.5592C26.9474 22.7319 27.2622 23.0453 27.2622 23.4319C27.2622 23.8185 26.9474 24.1319 26.5592 24.1319H17.5458ZM17.5458 19.1156H26.5592C26.9474 19.1156 27.2622 18.8022 27.2622 18.4156C27.2622 18.029 26.9474 17.7156 26.5592 17.7156H17.5458C17.1576 17.7156 16.8428 18.029 16.8428 18.4156C16.8428 18.8022 17.1576 19.1156 17.5458 19.1156ZM10.599 18.8661C11.0842 18.9811 11.5477 19.1727 11.9723 19.4331L12.8648 19.0384L13.9165 20.0858L13.5203 20.9742C13.7819 21.3972 13.9743 21.8588 14.0897 22.3422L15.0002 22.6911V24.1724L14.0895 24.5214C13.9741 25.0046 13.7817 25.4662 13.5202 25.8891L13.9165 26.7777L12.8648 27.8252L11.9727 27.4305C11.5479 27.6911 11.0843 27.8827 10.599 27.9976L10.2485 28.9043H8.76108L8.41049 27.9975C7.9253 27.8825 7.46189 27.6909 7.03715 27.4305L6.14469 27.8252L5.09285 26.7778L5.48912 25.8894C5.22746 25.4663 5.0352 25.0047 4.91966 24.5214L4.00919 24.1724V22.6912L4.91975 22.3422C5.0352 21.8589 5.22763 21.3973 5.48912 20.9744L5.09285 20.0858L6.1446 19.0383L7.03706 19.4331C7.46172 19.1726 7.92521 18.981 8.41041 18.866L8.76099 17.9592H10.2484L10.599 18.8661ZM9.50478 20.8486C8.07195 20.8486 6.91071 22.0051 6.91071 23.4319C6.91071 24.8587 8.07195 26.0152 9.50478 26.0152C10.9376 26.0152 12.0989 24.8587 12.0989 23.4319C12.0989 22.005 10.9375 20.8486 9.50478 20.8486ZM2.39158 15.8781H26.2102L26.5151 15.1946C26.4274 15.0083 26.3482 14.8181 26.2779 14.6247L24.9716 14.1239V13.8913H2.4515C1.13931 13.8913 0.0656738 14.9604 0.0656738 16.2671V32.6118C0.0656738 33.9185 1.13931 34.9877 2.4515 34.9877H10.706V38.7623H7.07449C5.95551 38.7623 5.03995 39.4908 5.03995 40.3812V41.475C5.03995 41.7642 5.27675 42 5.56715 42H25.5985C25.8889 42 26.1257 41.7642 26.1257 41.475V40.3812C26.1257 39.4908 25.2101 38.7623 24.0912 38.7623H20.4597V34.9877H28.7142C30.0263 34.9877 31.1 33.9185 31.1 32.6118V20.0038H30.8762L30.3733 18.7027C30.1792 18.6327 29.9884 18.5539 29.8014 18.4665L29.105 18.7745V30.9857H2.06076V16.2076C2.06076 16.0264 2.20961 15.8781 2.39158 15.8781ZM14.0426 9.48815C14.0426 10.4109 13.2915 11.159 12.3647 11.159C11.4381 11.159 10.6869 10.4109 10.6869 9.48815C10.6869 8.81536 11.0863 8.2355 11.6618 7.97064V4.35759C11.6618 3.97101 11.9765 3.65759 12.3647 3.65759H23.9917V5.05759H13.0677V7.97073C13.6433 8.2355 14.0426 8.81536 14.0426 9.48815Z" fill="white"/>
</g>
<defs>
<clipPath id="clip0_401_302">
<rect width="42" height="42" fill="white"/>
</clipPath>
</defs>
</svg>
