<svg width="42" height="42" viewBox="0 0 42 42" fill="none" xmlns="http://www.w3.org/2000/svg">
<g clip-path="url(#clip0_401_519)">
<path d="M21 23.4811C21.7258 23.3595 22.385 22.9844 22.8605 22.4227C23.336 21.8609 23.5969 21.1487 23.5969 20.4128C23.5969 19.6768 23.336 18.9646 22.8605 18.4028C22.385 17.8411 21.7258 17.466 21 17.3444C20.2129 17.3841 19.4712 17.7246 18.9281 18.2957C18.3851 18.8668 18.0823 19.6247 18.0823 20.4128C18.0823 21.2008 18.3851 21.9587 18.9281 22.5298C19.4712 23.1009 20.2129 23.4414 21 23.4811Z" fill="white"/>
<path d="M20.9999 25.6667C19.2149 25.6667 17.5029 26.3752 16.2399 27.6367C14.977 28.8982 14.2665 30.6094 14.2644 32.3944V35.3889C14.2644 35.5952 14.3463 35.793 14.4922 35.9389C14.6381 36.0847 14.8359 36.1667 15.0422 36.1667H17.2822C17.2822 35.2878 17.2822 33.32 17.2822 32.4256C17.2508 32.3102 17.2465 32.1892 17.2695 32.0719C17.2925 31.9546 17.3422 31.8442 17.4148 31.7492C17.4874 31.6542 17.5809 31.5773 17.6881 31.5243C17.7953 31.4714 17.9132 31.4438 18.0327 31.4438C18.1523 31.4438 18.2702 31.4714 18.3773 31.5243C18.4845 31.5773 18.578 31.6542 18.6506 31.7492C18.7232 31.8442 18.7729 31.9546 18.796 32.0719C18.819 32.1892 18.8146 32.3102 18.7833 32.4256V36.1667H23.2633C23.2633 35.2878 23.2633 33.32 23.2633 32.4256C23.2319 32.3102 23.2276 32.1892 23.2506 32.0719C23.2736 31.9546 23.3233 31.8442 23.3959 31.7492C23.4685 31.6542 23.562 31.5773 23.6692 31.5243C23.7764 31.4714 23.8943 31.4438 24.0138 31.4438C24.1333 31.4438 24.2513 31.4714 24.3584 31.5243C24.4656 31.5773 24.5591 31.6542 24.6317 31.7492C24.7043 31.8442 24.754 31.9546 24.777 32.0719C24.8001 32.1892 24.7957 32.3102 24.7644 32.4256V36.1667H27.0044C27.2106 36.1667 27.4085 36.0847 27.5543 35.9389C27.7002 35.793 27.7821 35.5952 27.7821 35.3889V32.3789C27.7791 31.4924 27.6011 30.6152 27.2583 29.7977C26.9155 28.9801 26.4147 28.2383 25.7846 27.6147C25.1545 26.9911 24.4075 26.498 23.5865 26.1637C22.7654 25.8294 21.8864 25.6605 20.9999 25.6667Z" fill="white"/>
<path d="M29.9676 15.0189C36.0187 14.8322 36.0109 6.06667 29.9676 5.88C23.9398 6.06667 23.932 14.8322 29.9676 15.0189Z" fill="white"/>
<path d="M33.7087 26.1489H35.9487C36.155 26.1489 36.3528 26.067 36.4987 25.9211C36.6446 25.7752 36.7265 25.5774 36.7265 25.3711V22.4156C36.7265 16.1933 28.8943 13.3311 24.9121 18.0133C25.2323 18.5374 25.444 19.1204 25.5347 19.7278C25.6255 20.3351 25.5934 20.9546 25.4403 21.5493C25.2873 22.144 25.0164 22.702 24.6438 23.1902C24.2712 23.6783 23.8043 24.0867 23.271 24.3911V25.4022C23.271 25.6085 23.3529 25.8063 23.4988 25.9522C23.6447 26.0981 23.8425 26.18 24.0488 26.18H26.2888V22.4467C26.3335 22.2819 26.4313 22.1365 26.5669 22.0328C26.7026 21.9291 26.8686 21.8729 27.0393 21.8729C27.2101 21.8729 27.3761 21.9291 27.5117 22.0328C27.6473 22.1365 27.7451 22.2819 27.7899 22.4467V26.18H32.2699C32.2699 25.3089 32.2699 23.3411 32.2699 22.4467C32.317 22.2851 32.4152 22.1432 32.5499 22.0422C32.6845 21.9413 32.8482 21.8867 33.0165 21.8867C33.1848 21.8867 33.3486 21.9413 33.4832 22.0422C33.6178 22.1432 33.7161 22.2851 33.7632 22.4467C33.701 23.3333 33.7165 25.27 33.7087 26.1489Z" fill="white"/>
<path d="M12.0322 15.0189C18.0678 14.8322 18.06 6.06667 12.0322 5.88C5.98892 6.07445 5.98114 14.8322 12.0322 15.0189Z" fill="white"/>
<path d="M9.78442 26.1489H14.2644V22.4156C14.3092 22.2508 14.4069 22.1053 14.5426 22.0016C14.6782 21.8979 14.8442 21.8418 15.015 21.8418C15.1857 21.8418 15.3517 21.8979 15.4873 22.0016C15.623 22.1053 15.7207 22.2508 15.7655 22.4156V26.1489H18.0055C18.2118 26.1489 18.4096 26.067 18.5555 25.9211C18.7013 25.7752 18.7833 25.5774 18.7833 25.3711V24.36C18.2484 24.0613 17.7792 23.6577 17.4038 23.1736C17.0284 22.6894 16.7545 22.1345 16.5984 21.5421C16.4423 20.9496 16.4072 20.3318 16.4953 19.7255C16.5834 19.1192 16.7928 18.5369 17.1111 18.0133C16.2152 16.9719 15.0217 16.23 13.6913 15.8877C12.3609 15.5453 10.9575 15.6189 9.67025 16.0986C8.38296 16.5783 7.27361 17.4409 6.49163 18.5704C5.70964 19.6998 5.29259 21.0418 5.29666 22.4156V25.4022C5.29666 25.6085 5.3786 25.8063 5.52446 25.9522C5.67033 26.0981 5.86816 26.18 6.07444 26.18H8.31443V22.4467C8.36155 22.2851 8.4598 22.1432 8.59443 22.0422C8.72906 21.9413 8.8928 21.8867 9.06109 21.8867C9.22938 21.8867 9.39313 21.9413 9.52776 22.0422C9.66239 22.1432 9.76064 22.2851 9.80776 22.4467C9.7922 23.3333 9.78442 25.27 9.78442 26.1489Z" fill="white"/>
<path d="M0.777846 8.06555C0.984125 8.06555 1.18195 7.9836 1.32782 7.83774C1.47368 7.69188 1.55562 7.49405 1.55562 7.28777C1.56578 5.85861 2.13748 4.49075 3.14735 3.47943C4.15721 2.46811 5.52424 1.89443 6.95338 1.88222C7.06873 1.91356 7.18975 1.9179 7.30705 1.89489C7.42435 1.87189 7.53477 1.82215 7.62973 1.74955C7.72469 1.67695 7.80165 1.58344 7.85461 1.47628C7.90757 1.36912 7.93512 1.25119 7.93512 1.13166C7.93512 1.01212 7.90757 0.894198 7.85461 0.787038C7.80165 0.679877 7.72469 0.586367 7.62973 0.513767C7.53477 0.441167 7.42435 0.391433 7.30705 0.368425C7.18975 0.345417 7.06873 0.349756 6.95338 0.381104C6.03984 0.374922 5.13416 0.550038 4.28877 0.896312C3.44338 1.24259 2.67509 1.75314 2.02838 2.3984C1.38168 3.04366 0.869407 3.81081 0.521243 4.65542C0.173078 5.50004 -0.00406525 6.40533 7.07906e-05 7.31888C0.00811073 7.51972 0.0935905 7.70965 0.238589 7.84885C0.383588 7.98805 0.576846 8.06571 0.777846 8.06555Z" fill="white"/>
<path d="M6.89886 40.0867C5.46972 40.0744 4.1027 39.5008 3.09283 38.4894C2.08297 37.4781 1.51126 36.1103 1.50111 34.6811C1.45633 34.5163 1.35858 34.3709 1.22294 34.2672C1.08729 34.1635 0.921295 34.1073 0.750553 34.1073C0.579811 34.1073 0.413814 34.1635 0.278171 34.2672C0.142528 34.3709 0.044777 34.5163 0 34.6811C-1.16062e-06 36.5115 0.726593 38.2671 2.02016 39.5621C3.31372 40.8571 5.06846 41.5857 6.89886 41.5878C7.06363 41.543 7.20908 41.4452 7.31278 41.3096C7.41648 41.174 7.47267 41.008 7.47267 40.8372C7.47267 40.6665 7.41648 40.5005 7.31278 40.3648C7.20908 40.2292 7.06363 40.1314 6.89886 40.0867Z" fill="white"/>
<path d="M41.222 33.9344C41.0157 33.9344 40.8179 34.0164 40.672 34.1623C40.5261 34.3081 40.4442 34.5059 40.4442 34.7122C40.434 36.1414 39.8623 37.5092 38.8525 38.5206C37.8426 39.5319 36.4756 40.1056 35.0464 40.1178C34.9311 40.0864 34.8101 40.0821 34.6928 40.1051C34.5755 40.1281 34.4651 40.1778 34.3701 40.2504C34.2751 40.323 34.1982 40.4166 34.1452 40.5237C34.0923 40.6309 34.0647 40.7488 34.0647 40.8683C34.0647 40.9879 34.0923 41.1058 34.1452 41.213C34.1982 41.3201 34.2751 41.4136 34.3701 41.4862C34.4651 41.5588 34.5755 41.6086 34.6928 41.6316C34.8101 41.6546 34.9311 41.6502 35.0464 41.6189C35.96 41.6251 36.8657 41.45 37.7111 41.1037C38.5564 40.7574 39.3247 40.2469 39.9714 39.6016C40.6181 38.9563 41.1304 38.1892 41.4786 37.3446C41.8267 36.5 42.0039 35.5947 41.9998 34.6811C41.9917 34.4803 41.9062 34.2903 41.7612 34.1511C41.6162 34.0119 41.423 33.9343 41.222 33.9344Z" fill="white"/>
<path d="M35.101 1.91333C36.5369 1.92564 37.9097 2.50468 38.9207 3.52438C39.9317 4.54408 40.4989 5.92187 40.4988 7.35778C40.5436 7.52254 40.6413 7.668 40.777 7.7717C40.9126 7.8754 41.0786 7.93158 41.2494 7.93158C41.4201 7.93158 41.5861 7.8754 41.7217 7.7717C41.8574 7.668 41.9551 7.52254 41.9999 7.35778C41.9999 5.52736 41.2733 3.7718 39.9797 2.47677C38.6862 1.18175 36.9314 0.453172 35.101 0.451111C34.9509 0.505608 34.8212 0.605015 34.7295 0.73582C34.6378 0.866626 34.5886 1.02249 34.5886 1.18222C34.5886 1.34196 34.6378 1.49782 34.7295 1.62862C34.8212 1.75943 34.9509 1.85884 35.101 1.91333Z" fill="white"/>
</g>
<defs>
<clipPath id="clip0_401_519">
<rect width="42" height="42" fill="white"/>
</clipPath>
</defs>
</svg>
