<svg width="38" height="37" viewBox="0 0 38 37" fill="none" xmlns="http://www.w3.org/2000/svg">
<g clip-path="url(#clip0_401_464)">
<path d="M8.96416 9.46909H1.46159C1.12057 9.46909 0.779541 9.1283 0.779541 8.61712V4.18686C0.779541 2.14212 2.48467 0.438171 4.53082 0.438171H8.96416C9.30518 0.438171 9.64621 0.778961 9.64621 1.29015V8.78751C9.81672 9.1283 9.4757 9.46909 8.96416 9.46909Z" fill="white"/>
<path d="M36.5872 9.46908H14.5911C14.0796 9.46908 13.7385 9.12829 13.7385 8.6171V1.11973C13.7385 0.608551 14.0796 0.267761 14.5911 0.267761H33.518C35.5642 0.267761 37.2693 1.97171 37.2693 4.01645V8.44671C37.2693 9.12829 36.9283 9.46908 36.5872 9.46908Z" fill="white"/>
<path d="M36.5872 22.9303H14.5911C14.0796 22.9303 13.7385 22.5895 13.7385 22.0783V14.9217C13.7385 14.4106 14.0796 14.0698 14.5911 14.0698H36.5872C36.9283 14.0698 37.2693 14.4106 37.2693 14.9217V22.0783C37.2693 22.5895 36.9283 22.9303 36.5872 22.9303Z" fill="white"/>
<path d="M8.96416 22.9303H1.46159C1.12057 22.9303 0.779541 22.5895 0.779541 22.0783V14.9217C0.779541 14.4106 1.12057 14.0698 1.46159 14.0698H8.96416C9.30518 14.0698 9.64621 14.4106 9.64621 14.9217V22.0783C9.81672 22.5895 9.4757 22.9303 8.96416 22.9303Z" fill="white"/>
<path d="M8.96416 36.9026H4.53082C2.48467 36.9026 0.779541 35.1987 0.779541 33.1539V28.7237C0.779541 28.2125 1.12057 27.8717 1.46159 27.8717H8.96416C9.30518 27.8717 9.64621 28.2125 9.64621 28.7237V36.221C9.81672 36.5618 9.4757 36.9026 8.96416 36.9026Z" fill="white"/>
<path d="M33.518 36.9026H14.5911C14.0796 36.9026 13.7385 36.5618 13.7385 36.0506V28.5533C13.7385 28.0421 14.0796 27.7013 14.5911 27.7013H36.5872C36.9283 27.7013 37.2693 28.0421 37.2693 28.5533V32.9835C37.2693 35.1987 35.5642 36.9026 33.518 36.9026Z" fill="white"/>
</g>
<defs>
<clipPath id="clip0_401_464">
<rect width="38" height="37" fill="white"/>
</clipPath>
</defs>
</svg>
