<svg width="42" height="38" viewBox="0 0 42 38" fill="none" xmlns="http://www.w3.org/2000/svg">
<g clip-path="url(#clip0_401_413)">
<path d="M41.3 31.73H38.479V11.7871C38.479 11.583 38.388 11.386 38.234 11.2522L32.739 6.56558V1.26669C32.739 0.879655 32.424 0.562988 32.039 0.562988H9.961C9.576 0.562988 9.261 0.879655 9.261 1.26669V6.56558L3.766 11.2522C3.612 11.386 3.521 11.583 3.521 11.7871V31.73H0.7C0.315 31.73 0 32.0397 0 32.4337V36.7334C0 37.1204 0.315 37.4371 0.7 37.4371H41.3C41.685 37.4371 42 37.1204 42 36.7334V32.4337C42 32.0397 41.685 31.73 41.3 31.73ZM10.661 1.9704H31.339V31.73H28.714V20.0697C28.714 19.6826 28.399 19.366 28.014 19.366H13.986C13.601 19.366 13.286 19.6826 13.286 20.0697V31.73H10.661V1.9704ZM40.6 36.0297H1.4V33.1374H40.6V36.0297Z" fill="white"/>
<path d="M15.5609 4.16589H12.5999C12.2133 4.16589 11.8999 4.48095 11.8999 4.8696V7.84626C11.8999 8.23491 12.2133 8.54997 12.5999 8.54997H15.5609C15.9475 8.54997 16.2609 8.23491 16.2609 7.84626V4.8696C16.2609 4.48095 15.9475 4.16589 15.5609 4.16589Z" fill="white"/>
<path d="M19.0611 8.54997H22.0151C22.4001 8.54997 22.7151 8.2333 22.7151 7.84626V4.8696C22.7151 4.48256 22.4001 4.16589 22.0151 4.16589H19.0611C18.6691 4.16589 18.3611 4.48256 18.3611 4.8696V7.84626C18.3611 8.2333 18.6691 8.54997 19.0611 8.54997Z" fill="white"/>
<path d="M28.4759 4.16589H25.5149C25.1283 4.16589 24.8149 4.48095 24.8149 4.8696V7.84626C24.8149 8.23491 25.1283 8.54997 25.5149 8.54997H28.4759C28.8625 8.54997 29.1759 8.23491 29.1759 7.84626V4.8696C29.1759 4.48095 28.8625 4.16589 28.4759 4.16589Z" fill="white"/>
<path d="M15.5609 11.2944H12.5999C12.2133 11.2944 11.8999 11.6095 11.8999 11.9981V14.9748C11.8999 15.3635 12.2133 15.6785 12.5999 15.6785H15.5609C15.9475 15.6785 16.2609 15.3635 16.2609 14.9748V11.9981C16.2609 11.6095 15.9475 11.2944 15.5609 11.2944Z" fill="white"/>
<path d="M19.0611 15.6785H22.0151C22.4001 15.6785 22.7151 15.3618 22.7151 14.9748V11.9981C22.7151 11.6111 22.4001 11.2944 22.0151 11.2944H19.0611C18.6691 11.2944 18.3611 11.6111 18.3611 11.9981V14.9748C18.3611 15.3618 18.6691 15.6785 19.0611 15.6785Z" fill="white"/>
<path d="M28.4759 11.2944H25.5149C25.1283 11.2944 24.8149 11.6095 24.8149 11.9981V14.9748C24.8149 15.3635 25.1283 15.6785 25.5149 15.6785H28.4759C28.8625 15.6785 29.1759 15.3635 29.1759 14.9748V11.9981C29.1759 11.6095 28.8625 11.2944 28.4759 11.2944Z" fill="white"/>
</g>
<defs>
<clipPath id="clip0_401_413">
<rect width="42" height="38" fill="white"/>
</clipPath>
</defs>
</svg>
