<svg width="42" height="50" viewBox="0 0 42 50" fill="none" xmlns="http://www.w3.org/2000/svg">
<g clip-path="url(#clip0_401_51)">
<path d="M3.44373 32.6877C4.02486 31.5021 4.78521 30.4136 5.69783 29.4609C3.11208 28.87 1.15006 27.944 0.0302734 26.8268V29.6C0.0302734 30.7038 1.29664 31.8414 3.44373 32.6877Z" fill="white"/>
<path d="M6.63946 28.573C8.23235 27.2137 10.135 26.2695 12.1787 25.8243C14.2224 25.379 16.3441 25.4464 18.3557 26.0204C19.5908 24.9823 21.5826 24.158 23.9875 23.6406V21.8141C23.311 22.4878 22.3223 23.0954 21.0511 23.6054C18.6274 24.5779 15.4163 25.1134 12.0093 25.1134C8.60233 25.1134 5.39113 24.5779 2.96764 23.6054C1.69651 23.0954 0.707705 22.4878 0.0312503 21.8141V24.5815C0.0302957 26.2077 2.67545 27.7979 6.63946 28.573Z" fill="white"/>
<path d="M29.9918 34.1349C29.9442 34.1349 29.8963 34.1349 29.849 34.1349C28.8447 34.1345 27.8411 34.0817 26.8423 33.9767C27.3057 35.2663 27.5578 36.6228 27.5887 37.9933C28.3868 38.0583 29.1927 38.0925 29.9903 38.089C33.2675 38.089 36.3382 37.5804 38.6395 36.6572C40.7559 35.808 41.9698 34.6946 41.9698 33.6024V30.8356C41.2934 31.5091 40.3047 32.1169 39.0334 32.6269C36.6097 33.5992 33.3985 34.1349 29.9918 34.1349Z" fill="white"/>
<path d="M3.36058 22.6177C5.66209 23.5411 8.73318 24.0496 12.0083 24.0496C15.2835 24.0496 18.3548 23.5411 20.6562 22.6177C22.7726 21.7686 23.9865 20.6551 23.9865 19.5629V16.7955C23.31 17.4691 22.3213 18.0769 21.0501 18.5868C18.6264 19.5593 15.4153 20.0948 12.0083 20.0948C8.60135 20.0948 5.39015 19.5594 2.96667 18.587C1.69553 18.0771 0.706728 17.4693 0.0302734 16.7957V19.5629C0.0302734 20.6551 1.24414 21.7686 3.36058 22.6177Z" fill="white"/>
<path d="M3.36058 12.5805C5.66209 13.5038 8.73308 14.0123 12.0083 14.0123C15.2836 14.0123 18.3549 13.5038 20.6562 12.5805C22.7726 11.7314 23.9865 10.618 23.9865 9.52572V6.75848C23.31 7.43199 22.3213 8.03976 21.0501 8.54976C18.6264 9.5221 15.4153 10.0576 12.0083 10.0576C8.60135 10.0576 5.39015 9.5221 2.96667 8.54976C1.69553 8.03976 0.706728 7.43199 0.0302734 6.75848V9.52572C0.0302734 10.618 1.24414 11.7314 3.36058 12.5805Z" fill="white"/>
<path d="M38.6395 25.5296C36.338 24.6062 33.2669 24.0977 29.9917 24.0977C25.7127 24.0977 21.7123 25.0161 19.5713 26.437C22.5638 27.6395 24.9937 29.9304 26.3753 32.8519C27.5739 33.0029 28.781 33.0762 29.989 33.0715C33.2669 33.0715 36.3381 32.5629 38.6395 31.6396C40.7559 30.7904 41.9698 29.6769 41.9698 28.5848C41.9698 27.4927 40.7559 26.3786 38.6395 25.5296Z" fill="white"/>
<path d="M3.36058 7.562C5.66209 8.4854 8.73308 8.99381 12.0083 8.99381C15.2836 8.99381 18.3549 8.4854 20.6562 7.562C22.7726 6.71285 23.9865 5.59944 23.9865 4.50721C23.9865 3.41498 22.7726 2.30157 20.6562 1.45242C18.3547 0.529125 15.2837 0.0205078 12.0083 0.0205078C8.73297 0.0205078 5.66199 0.529125 3.36058 1.45242C1.24414 2.30157 0.0302734 3.41508 0.0302734 4.50721C0.0302734 5.59934 1.24414 6.71274 3.36058 7.562ZM5.3455 2.46157C7.25459 1.91647 9.62102 1.61625 12.0081 1.61625C12.1488 1.61625 12.2837 1.67229 12.3831 1.77205C12.4826 1.8718 12.5384 2.00709 12.5384 2.14817C12.5384 2.28924 12.4826 2.42453 12.3831 2.52429C12.2837 2.62404 12.1488 2.68008 12.0081 2.68008C9.71647 2.68008 7.45335 2.96583 5.63579 3.48476C5.50079 3.52251 5.35638 3.50512 5.23412 3.43639C5.11186 3.36766 5.0217 3.25318 4.98334 3.11797C4.94498 2.98276 4.96154 2.83782 5.02941 2.71482C5.09727 2.59183 5.21091 2.50078 5.3455 2.46157ZM1.76277 4.28508C1.89312 4.12551 2.21883 3.79891 2.93867 3.40636C3.06173 3.34371 3.2043 3.33164 3.33609 3.37273C3.46788 3.41382 3.57851 3.50483 3.64448 3.62642C3.71045 3.74801 3.72656 3.89061 3.68939 4.02393C3.65222 4.15724 3.56471 4.27077 3.44543 4.3404C2.81893 4.68232 2.60574 4.93125 2.58347 4.95859C2.49342 5.0645 2.36557 5.13078 2.22736 5.14321C2.08915 5.15564 1.95158 5.11324 1.84418 5.0251C1.73678 4.93696 1.6681 4.81011 1.65288 4.67176C1.63766 4.53341 1.67712 4.39459 1.76277 4.28508Z" fill="white"/>
<path d="M3.36058 17.5993C5.66209 18.5226 8.73297 19.031 12.0083 19.031C15.2837 19.031 18.3548 18.5225 20.6562 17.5991C22.7726 16.75 23.9865 15.6365 23.9865 14.5443V11.7766C23.31 12.4502 22.3213 13.058 21.0501 13.568C18.6265 14.5403 15.4154 15.0759 12.0083 15.0759C8.60124 15.0759 5.39015 14.5403 2.96667 13.568C1.69553 13.058 0.706728 12.4502 0.0302734 11.7766V14.544C0.0302734 15.6367 1.24414 16.7502 3.36058 17.5993Z" fill="white"/>
<path d="M25.6894 38.8267C25.5488 38.8267 25.4139 38.7707 25.3145 38.6709C25.215 38.5712 25.1591 38.4359 25.1591 38.2948C25.1591 38.1537 25.215 38.0184 25.3145 37.9187C25.4139 37.8189 25.5488 37.7629 25.6894 37.7629H26.5193C26.3972 35.0305 25.3209 32.4283 23.4787 30.4118L22.8954 30.9969C22.7958 31.0959 22.6611 31.1514 22.5209 31.1511C22.3806 31.1508 22.2462 31.0947 22.1471 30.9953C22.0479 30.8958 21.992 30.761 21.9917 30.6203C21.9914 30.4796 22.0467 30.3446 22.1454 30.2447L22.7288 29.6596C20.7184 27.8117 18.1241 26.732 15.4 26.6097V27.4421C15.4 27.5832 15.3441 27.7185 15.2446 27.8182C15.1452 27.918 15.0103 27.974 14.8697 27.974C14.729 27.974 14.5941 27.918 14.4947 27.8182C14.3952 27.7185 14.3394 27.5832 14.3394 27.4421V26.6097C11.6153 26.732 9.02093 27.8117 7.01058 29.6596L7.59391 30.2447C7.69264 30.3446 7.7479 30.4796 7.74759 30.6203C7.74729 30.761 7.69144 30.8958 7.59227 30.9953C7.4931 31.0947 7.35869 31.1508 7.21845 31.1511C7.07821 31.1514 6.94356 31.0959 6.84396 30.9969L6.26062 30.4118C4.4183 32.4282 3.34192 35.0305 3.21997 37.7629H4.04989C4.19054 37.7629 4.32542 37.8189 4.42488 37.9187C4.52433 38.0184 4.5802 38.1537 4.5802 38.2948C4.5802 38.4359 4.52433 38.5712 4.42488 38.6709C4.32542 38.7707 4.19054 38.8267 4.04989 38.8267H3.22093C3.3429 41.5591 4.41928 44.1613 6.26158 46.1778L6.84491 45.5927C6.94477 45.495 7.07898 45.4407 7.21846 45.4416C7.35794 45.4425 7.49146 45.4984 7.59009 45.5973C7.68872 45.6963 7.74453 45.8302 7.74543 45.9701C7.74632 46.11 7.69223 46.2446 7.59486 46.3448L7.01153 46.9299C9.0219 48.7778 11.6162 49.8574 14.3403 49.9799V49.1474C14.3403 49.0064 14.3962 48.8711 14.4956 48.7713C14.5951 48.6716 14.73 48.6155 14.8706 48.6155C15.0113 48.6155 15.1462 48.6716 15.2456 48.7713C15.3451 48.8711 15.4009 49.0064 15.4009 49.1474V49.9799C18.125 49.8575 20.7194 48.7778 22.7297 46.9299L22.1464 46.3448C22.049 46.2446 21.9949 46.11 21.9958 45.9701C21.9967 45.8302 22.0525 45.6963 22.1512 45.5973C22.2498 45.4984 22.3833 45.4425 22.5228 45.4416C22.6623 45.4407 22.7965 45.495 22.8963 45.5927L23.4797 46.1778C25.3219 44.1613 26.3983 41.5591 26.5203 38.8267H25.6894ZM14.8697 47.5619C13.0424 47.5619 11.2561 47.0184 9.7367 46.0002C8.21733 44.9819 7.03312 43.5346 6.33383 41.8412C5.63453 40.1479 5.45155 38.2846 5.80803 36.4869C6.16451 34.6893 7.04443 33.038 8.33653 31.742C9.62863 30.4459 11.2749 29.5633 13.0671 29.2057C14.8593 28.8481 16.7169 29.0317 18.4052 29.7331C20.0934 30.4345 21.5363 31.6223 22.5515 33.1462C23.5667 34.6702 24.1086 36.4619 24.1086 38.2948C24.1059 40.7517 23.1316 43.1072 21.3996 44.8446C19.6675 46.5819 17.3192 47.5591 14.8697 47.5619Z" fill="white"/>
<path d="M29.9917 44.1719C29.9411 44.1719 29.8905 44.1719 29.8398 44.1719C28.6475 44.1714 27.4564 44.0966 26.2734 43.948C25.6298 45.2473 24.7711 46.4278 23.7339 47.439C25.7864 47.9089 27.8862 48.1395 29.9915 48.1262C33.2666 48.1262 36.3378 47.6177 38.6392 46.6943C40.7557 45.8453 41.9695 44.7318 41.9695 43.6395V40.8723C41.2931 41.5459 40.3044 42.1537 39.0331 42.6637C36.6098 43.6364 33.3984 44.1719 29.9917 44.1719Z" fill="white"/>
<path d="M29.9143 39.1534C29.1351 39.1534 28.3489 39.1215 27.569 39.0596C27.4912 40.3863 27.2059 41.6926 26.7234 42.9304C27.8075 43.0539 28.8979 43.1132 29.9889 43.1081C33.267 43.1081 36.3382 42.5996 38.6395 41.6763C40.7559 40.8271 41.9698 39.7137 41.9698 38.6215V35.8541C41.2934 36.5277 40.3047 37.1354 39.0334 37.6454C36.5915 38.6252 33.349 39.157 29.9143 39.1534Z" fill="white"/>
<path d="M0.0302734 34.6186C0.0302734 35.4821 0.81194 36.3779 2.20112 37.133C2.30808 35.9433 2.58235 34.7748 3.01577 33.6622C1.71961 33.1486 0.714258 32.5379 0.0302734 31.8583V34.6186Z" fill="white"/>
<path d="M14.8697 30.0916C13.2522 30.0916 11.6709 30.5727 10.326 31.4741C8.98102 32.3755 7.93275 33.6566 7.31373 35.1556C6.69471 36.6546 6.53274 38.304 6.84831 39.8953C7.16387 41.4866 7.94279 42.9483 9.08658 44.0955C10.2304 45.2428 11.6876 46.0241 13.2741 46.3406C14.8606 46.6571 16.505 46.4947 17.9994 45.8738C19.4938 45.2528 20.7711 44.2014 21.6698 42.8524C22.5684 41.5033 23.0481 39.9173 23.048 38.2948C23.0455 36.12 22.1831 34.0349 20.6499 32.4971C19.1167 30.9592 17.038 30.0941 14.8697 30.0916ZM18.3673 35.7254C18.3673 35.8665 18.3114 36.0018 18.212 36.1016C18.1125 36.2013 17.9776 36.2574 17.837 36.2574C17.6963 36.2574 17.5614 36.2013 17.462 36.1016C17.3625 36.0018 17.3067 35.8665 17.3067 35.7254V35.3163C17.3066 35.0374 17.2323 34.7636 17.0914 34.5231C16.9504 34.2827 16.7481 34.0843 16.5052 33.9486C16.2622 33.8129 15.9876 33.7447 15.7096 33.7511C15.4316 33.7574 15.1604 33.8382 14.9239 33.9849C14.4028 34.3094 14.1373 34.9716 14.2363 35.6033C14.3184 36.1267 14.3822 36.7014 14.4158 37.2352H15.5015C15.6422 37.2352 15.777 37.2913 15.8765 37.391C15.9759 37.4908 16.0318 37.6261 16.0318 37.7671C16.0318 37.9082 15.9759 38.0435 15.8765 38.1433C15.777 38.243 15.6422 38.2991 15.5015 38.2991H14.4508C14.4514 38.5713 14.446 38.8437 14.4344 39.1164C14.3969 39.9486 14.0584 40.7385 13.4821 41.3384C13.8258 41.4468 14.152 41.6048 14.4502 41.8075C14.8376 42.0698 15.2874 42.2243 15.7538 42.2551C16.2202 42.2859 16.6863 42.1919 17.1046 41.9828L17.5713 41.7487C17.6337 41.7169 17.7017 41.6978 17.7715 41.6924C17.8413 41.6871 17.9114 41.6957 17.9779 41.7176C18.0444 41.7396 18.1058 41.7746 18.1588 41.8205C18.2117 41.8665 18.255 41.9224 18.2863 41.9852C18.3175 42.048 18.3361 42.1164 18.3409 42.1865C18.3457 42.2565 18.3366 42.3268 18.3141 42.3933C18.2917 42.4598 18.2564 42.5212 18.2102 42.5739C18.164 42.6266 18.1078 42.6697 18.045 42.7006L17.5783 42.9346C16.9916 43.2279 16.3379 43.3597 15.6838 43.3165C15.0297 43.2733 14.3988 43.0567 13.8556 42.6887C13.5703 42.4942 13.2495 42.3581 12.9117 42.2882C12.5738 42.2183 12.2255 42.216 11.8868 42.2814C11.8458 42.292 11.8046 42.3027 11.7629 42.3121C11.626 42.3423 11.4827 42.3169 11.3644 42.2414C11.2461 42.166 11.1624 42.0466 11.1317 41.9094C11.1009 41.7722 11.1255 41.6284 11.2002 41.5094C11.2748 41.3903 11.3935 41.3058 11.5301 41.2743C12.0357 41.16 12.49 40.8825 12.8232 40.4842C13.1563 40.0859 13.3499 39.5889 13.3743 39.0696C13.3856 38.8126 13.3907 38.5557 13.3897 38.2991H12.0706C11.9299 38.2991 11.795 38.243 11.6956 38.1433C11.5961 38.0435 11.5403 37.9082 11.5403 37.7671C11.5403 37.6261 11.5961 37.4908 11.6956 37.391C11.795 37.2913 11.9299 37.2352 12.0706 37.2352H13.353C13.3212 36.7565 13.2625 36.2377 13.189 35.7687C13.0234 34.7135 13.4807 33.6316 14.3648 33.0811C14.7618 32.8343 15.2174 32.6985 15.6844 32.6876C16.1514 32.6766 16.6128 32.7911 17.021 33.019C17.4291 33.2469 17.7691 33.58 18.0059 33.9839C18.2426 34.3878 18.3675 34.8478 18.3676 35.3163L18.3673 35.7254Z" fill="white"/>
</g>
<defs>
<clipPath id="clip0_401_51">
<rect width="42" height="50" fill="white"/>
</clipPath>
</defs>
</svg>
