<svg width="42" height="42" viewBox="0 0 42 42" fill="none" xmlns="http://www.w3.org/2000/svg">
<g clip-path="url(#clip0_401_262)">
<path d="M25.5 36V37.5C25.5 39.1545 24.1545 40.5 22.5 40.5H4.5C2.84546 40.5 1.5 39.1545 1.5 37.5V4.5C1.5 2.84546 2.84546 1.5 4.5 1.5H22.5C24.1545 1.5 25.5 2.84546 25.5 4.5V6H27V4.5C27 2.01855 24.9814 0 22.5 0H4.5C2.01855 0 0 2.01855 0 4.5V37.5C0 39.9814 2.01855 42 4.5 42H22.5C24.9814 42 27 39.9814 27 37.5V36H25.5Z" fill="white"/>
<path d="M27 7.5H36L34.5 10.5H28.5L27 7.5Z" fill="white"/>
<path d="M22.5 36C20.8455 36 19.5 34.6545 19.5 33V22.6008L16.2302 25.3257C16.0896 25.4429 15.9196 25.5 15.7497 25.5C15.5359 25.5 15.322 25.4077 15.174 25.2305C14.9089 24.9126 14.9514 24.4395 15.2693 24.1743L19.0779 21L15.2693 17.8257C14.9514 17.5605 14.9089 17.0874 15.174 16.7695C15.4392 16.4517 15.9138 16.4092 16.2302 16.6743L19.5 19.3991V9C19.5 7.34546 20.8455 6 22.5 6H24V4.5C24 3.67154 23.3285 3 22.5 3H16.5C16.5 4.65683 15.1568 6 13.5 6C11.8432 6 10.5 4.65683 10.5 3H4.5C3.67163 3 3 3.67154 3 4.5V37.5C3 38.3285 3.67163 39 4.5 39H22.5C23.3285 39 24 38.3285 24 37.5V36H22.5ZM11.7305 24.1743C12.0483 24.4395 12.0908 24.9126 11.8257 25.2305C11.6777 25.4077 11.4639 25.5 11.25 25.5C11.0801 25.5 10.9102 25.4429 10.7695 25.3257L6.26953 21.5757C6.09814 21.4336 6 21.2227 6 21C6 20.7773 6.09814 20.5664 6.26953 20.4243L10.7695 16.6743C11.0859 16.4092 11.5605 16.4517 11.8257 16.7695C12.0908 17.0874 12.0483 17.5605 11.7305 17.8257L7.92188 21L11.7305 24.1743Z" fill="white"/>
<path d="M40.5 7.5H37.6772L35.8418 11.1708C35.5877 11.679 35.0684 12 34.5002 12H28.4998C27.9316 12 27.4123 11.679 27.1582 11.1708L25.3228 7.5H22.5C21.6716 7.5 21 8.17154 21 9V33C21 33.8285 21.6716 34.5 22.5 34.5H40.5C41.3285 34.5 42 33.8285 42 33V9C42 8.17154 41.3285 7.5 40.5 7.5ZM28.4206 29.5854L26.9206 32.5854C26.813 32.8008 26.6079 32.9517 26.3698 32.9905C26.3296 32.9971 26.2893 33 26.2497 33C26.0527 33 25.8608 32.9224 25.7195 32.7803L24.2195 31.2803C23.9265 30.9873 23.9265 30.5127 24.2195 30.2197C24.5124 29.9268 24.987 29.9268 25.28 30.2197L26.0439 30.9836L27.0788 28.9146C27.2649 28.5439 27.7138 28.3945 28.0852 28.5791C28.4558 28.7644 28.6059 29.2148 28.4206 29.5854ZM28.4206 22.0854L26.9206 25.0854C26.813 25.3008 26.6079 25.4517 26.3698 25.4905C26.3296 25.4971 26.2893 25.5 26.2497 25.5C26.0527 25.5 25.8608 25.4224 25.7195 25.2803L24.2195 23.7803C23.9265 23.4873 23.9265 23.0127 24.2195 22.7197C24.5124 22.4268 24.987 22.4268 25.28 22.7197L26.0439 23.4836L27.0788 21.4146C27.2649 21.0439 27.7138 20.8945 28.0852 21.0791C28.4558 21.2644 28.6059 21.7148 28.4206 22.0854ZM28.4206 14.5854L26.9206 17.5854C26.813 17.8008 26.6079 17.9517 26.3698 17.9905C26.3296 17.9971 26.2893 18 26.2497 18C26.0527 18 25.8608 17.9224 25.7195 17.7803L24.2195 16.2803C23.9265 15.9873 23.9265 15.5127 24.2195 15.2197C24.5124 14.9268 24.987 14.9268 25.28 15.2197L26.0439 15.9836L27.0788 13.9146C27.2649 13.5439 27.7138 13.3945 28.0852 13.5791C28.4558 13.7644 28.6059 14.2148 28.4206 14.5854Z" fill="white"/>
</g>
<defs>
<clipPath id="clip0_401_262">
<rect width="42" height="42" fill="white"/>
</clipPath>
</defs>
</svg>
