<svg width="38" height="38" viewBox="0 0 38 38" fill="none" xmlns="http://www.w3.org/2000/svg">
<g clip-path="url(#clip0_401_293)">
<path fill-rule="evenodd" clip-rule="evenodd" d="M15.5582 0.062439C17.5012 0.062439 19.0763 1.65078 19.0763 3.61009C19.0763 5.56941 17.5012 7.15774 15.5582 7.15774C13.6152 7.15774 12.0401 5.56941 12.0401 3.61009C12.0401 1.65078 13.6152 0.062439 15.5582 0.062439ZM35.181 2.20976C35.5496 2.20976 35.8484 2.51112 35.8484 2.8829V10.4515C35.8484 10.9575 35.4417 11.3677 34.9399 11.3677H31.1328C31.1117 12.2352 31.3647 13.2169 31.6514 13.6915H32.9085C33.6189 13.6915 34.2001 14.2776 34.2001 14.994C34.2001 15.7104 33.6189 16.2965 32.9085 16.2965H26.1328C25.4224 16.2965 24.8412 15.7104 24.8412 14.994C24.8412 14.2776 25.4224 13.6915 26.1328 13.6915H27.3899C27.6744 13.2169 27.9056 12.2352 27.8793 11.3677H24.1015C23.5997 11.3677 23.193 10.9575 23.193 10.4515V3.12591C23.193 2.61993 23.5997 2.20976 24.1015 2.20976H35.181ZM5.85232 14.4321C6.83834 14.6561 7.64227 15.3646 8.00549 16.2966H2.36083C2.72405 15.3646 3.52798 14.6561 4.514 14.4321C4.44394 14.3142 4.40365 14.1762 4.40365 14.0287C4.40365 13.5946 4.75269 13.2427 5.18312 13.2427C5.61363 13.2427 5.96268 13.5946 5.96268 14.0287C5.96268 14.1762 5.92238 14.3142 5.85232 14.4321ZM0 17.4142H38V20.7578H0V17.4142ZM35.8484 21.8756V37.9377H2.15167V21.8756H35.8484ZM12.0333 9.97333H12.6498C12.8283 9.97333 12.9811 10.0707 13.0578 10.2332L15.1502 14.6664C15.2269 14.829 15.3797 14.9263 15.5582 14.9263C15.7367 14.9263 15.8895 14.829 15.9663 14.6664L18.0586 10.2332C18.1353 10.0707 18.2881 9.97333 18.4667 9.97333H19.0831C21.0218 9.97333 22.608 11.5728 22.608 13.5279V16.2966H8.50844V13.5279C8.50844 11.5728 10.0946 9.97333 12.0333 9.97333Z" fill="white"/>
</g>
<defs>
<clipPath id="clip0_401_293">
<rect width="38" height="38" fill="white"/>
</clipPath>
</defs>
</svg>
