<svg width="42" height="42" viewBox="0 0 42 42" fill="none" xmlns="http://www.w3.org/2000/svg">
<path d="M21.3965 16.6344V18.362C21.2697 18.3303 21.1349 18.3144 21.0002 18.3144C20.8655 18.3144 20.7308 18.3303 20.604 18.362V16.6344C20.604 16.4125 20.7783 16.2382 21.0002 16.2382C21.2221 16.2382 21.3965 16.4125 21.3965 16.6344Z" fill="white"/>
<path d="M21.3965 16.6344V18.362C21.2697 18.3303 21.1349 18.3144 21.0002 18.3144C20.8655 18.3144 20.7308 18.3303 20.604 18.362V16.6344C20.604 16.4125 20.7783 16.2382 21.0002 16.2382C21.2221 16.2382 21.3965 16.4125 21.3965 16.6344Z" fill="white"/>
<path d="M8.31299 37.9435H13.5986V39.8216H8.31299V37.9435Z" fill="white"/>
<path d="M16.3124 40.2161H5.60033C5.38132 40.2161 5.2041 40.0389 5.2041 39.8199C5.2041 39.6009 5.38132 39.4237 5.60033 39.4237H16.3124C16.5314 39.4237 16.7086 39.6009 16.7086 39.8199C16.7086 40.0389 16.5314 40.2161 16.3124 40.2161Z" fill="white"/>
<path d="M19.9302 33.4191V24.8578C19.9302 23.571 18.8858 22.5266 17.599 22.5266H4.31369C3.02687 22.5266 1.98242 23.571 1.98242 24.8578V33.4191H19.9302ZM9.17946 29.1148C9.33423 28.96 9.58497 28.96 9.73974 29.1148L10.5601 29.9357V25.7074C10.5601 25.4884 10.7373 25.3112 10.9563 25.3112C11.1753 25.3112 11.3525 25.4884 11.3525 25.7074V29.9357L12.1728 29.1148C12.3276 28.96 12.5783 28.96 12.7331 29.1148C12.8879 29.2696 12.8879 29.5203 12.7331 29.6751L11.2364 31.1726C11.1621 31.2469 11.0615 31.2886 10.9563 31.2886C10.851 31.2886 10.7504 31.2469 10.6761 31.1726L9.17946 29.6751C9.02468 29.5203 9.02468 29.2696 9.17946 29.1148Z" fill="white"/>
<path d="M1.98242 34.2116V34.8093C1.98242 36.1044 3.02687 37.1488 4.31369 37.1488H17.599C18.8858 37.1488 19.9302 36.1044 19.9302 34.8093V34.2116H1.98242ZM12.3086 35.8785H9.60393C9.38492 35.8785 9.2077 35.7013 9.2077 35.4823C9.2077 35.2633 9.38492 35.0861 9.60393 35.0861H12.3086C12.5276 35.0861 12.7049 35.2633 12.7049 35.4823C12.7049 35.7013 12.5276 35.8785 12.3086 35.8785Z" fill="white"/>
<path d="M29.8439 3.74913V14.6691C29.8439 15.6993 29.0435 16.5473 28.0371 16.6265C28.5443 16.1272 28.8533 15.4299 28.8533 14.6691V3.74913C28.8533 2.98836 28.5443 2.291 28.0371 1.79175C29.0435 1.87102 29.8439 2.71895 29.8439 3.74913Z" fill="white"/>
<path d="M24.8819 4.18735H24.2903V5.8775C24.2903 6.09651 24.1131 6.27373 23.8941 6.27373C23.6751 6.27373 23.4979 6.09651 23.4979 5.8775V4.18735H22.3974V5.8775C22.3974 6.09651 22.2202 6.27373 22.0012 6.27373C21.7822 6.27373 21.6049 6.09651 21.6049 5.8775V4.18735H20.5045V5.8775C20.5045 6.09651 20.3273 6.27373 20.1083 6.27373C19.8893 6.27373 19.712 6.09651 19.712 5.8775V4.18735H18.6116V5.8775C18.6116 6.09651 18.4344 6.27373 18.2154 6.27373C17.9963 6.27373 17.8191 6.09651 17.8191 5.8775V4.18735H16.7187V5.8775C16.7187 6.09651 16.5415 6.27373 16.3224 6.27373C16.1034 6.27373 15.9262 6.09651 15.9262 5.8775V4.18735H15.3327C14.919 4.18735 14.5828 4.52631 14.5828 4.94343V11.8209C14.5828 12.2341 14.919 12.5708 15.3327 12.5708H15.7424C15.9614 12.5708 16.1386 12.748 16.1386 12.967V13.4716C16.1386 13.8957 16.4679 14.2277 16.8885 14.2277H23.3261C23.7428 14.2277 24.0821 13.8887 24.0821 13.4716V12.967C24.0821 12.748 24.2594 12.5708 24.4784 12.5708H24.8819C25.2956 12.5708 25.6318 12.2341 25.6318 11.8209V4.94343C25.6318 4.52631 25.2956 4.18735 24.8819 4.18735Z" fill="white"/>
<path d="M26.0957 1.78387H14.1218C13.0361 1.78387 12.1565 2.66349 12.1565 3.74914V14.6691C12.1565 15.7548 13.0361 16.6344 14.1218 16.6344H26.0957C27.1814 16.6344 28.061 15.7548 28.061 14.6691V3.74914C28.061 2.66349 27.1814 1.78387 26.0957 1.78387ZM26.4243 11.8209C26.4243 12.6714 25.7325 13.3632 24.882 13.3632H24.8746V13.4716C24.8746 14.3252 24.1801 15.0201 23.3261 15.0201H16.8886C16.0381 15.0201 15.3462 14.3252 15.3462 13.4716L15.3327 13.3632C14.4822 13.3632 13.7903 12.6714 13.7903 11.8209V4.94343C13.7903 4.08984 14.4822 3.3949 15.3327 3.3949H24.882C25.7325 3.3949 26.4243 4.08984 26.4243 4.94343V11.8209Z" fill="white"/>
<path d="M31.4367 21.2148V22.5303C31.4367 22.7521 31.2623 22.9265 31.0404 22.9265C30.8186 22.9265 30.6442 22.7521 30.6442 22.5303V21.2148C30.6442 20.8186 30.3273 20.4937 29.931 20.4937H22.7355C22.5533 21.2941 21.848 21.8884 21.0001 21.8884C20.1521 21.8884 19.4468 21.2941 19.2646 20.4937H12.0691C11.6729 20.4937 11.3559 20.8106 11.3559 21.2148V22.5303C11.3559 22.7521 11.1816 22.9265 10.9597 22.9265C10.7378 22.9265 10.5635 22.7521 10.5635 22.5303V21.2148C10.5635 20.3827 11.237 19.7012 12.0691 19.7012H19.2646C19.4152 19.0355 19.9382 18.5125 20.6038 18.362C20.7306 18.3303 20.8654 18.3144 21.0001 18.3144C21.1348 18.3144 21.2695 18.3303 21.3963 18.362C22.062 18.5125 22.585 19.0355 22.7355 19.7012H29.931C30.7631 19.7012 31.4367 20.3827 31.4367 21.2148Z" fill="white"/>
<path d="M28.4009 37.9434H33.6865V39.8215H28.4009V37.9434Z" fill="white"/>
<path d="M36.4 40.2161H25.688C25.469 40.2161 25.2917 40.0389 25.2917 39.8199C25.2917 39.6009 25.469 39.4236 25.688 39.4236H36.4C36.619 39.4236 36.7962 39.6009 36.7962 39.8199C36.7962 40.0389 36.619 40.2161 36.4 40.2161Z" fill="white"/>
<path d="M40.0179 33.4191V24.8578C40.0179 23.571 38.9734 22.5266 37.6866 22.5266H24.4013C23.1145 22.5266 22.0701 23.571 22.0701 24.8578V33.4191H40.0179ZM29.2671 29.1148C29.4219 28.96 29.6726 28.96 29.8274 29.1148L30.6477 29.9356V25.7074C30.6477 25.4884 30.8249 25.3112 31.0439 25.3112C31.2629 25.3112 31.4402 25.4884 31.4402 25.7074V29.9356L32.2605 29.1148C32.4152 28.96 32.666 28.96 32.8208 29.1148C32.9755 29.2696 32.9755 29.5203 32.8208 29.6751L31.3241 31.1725C31.2498 31.2468 31.1492 31.2886 31.0439 31.2886C30.9387 31.2886 30.8381 31.2468 30.7638 31.1725L29.2671 29.6751C29.1123 29.5203 29.1123 29.2696 29.2671 29.1148Z" fill="white"/>
<path d="M22.0701 34.2115V34.8093C22.0701 36.1044 23.1145 37.1488 24.4013 37.1488H37.6866C38.9734 37.1488 40.0179 36.1044 40.0179 34.8093V34.2115H22.0701ZM32.3963 35.8785H29.6916C29.4726 35.8785 29.2953 35.7013 29.2953 35.4823C29.2953 35.2633 29.4726 35.086 29.6916 35.086H32.3963C32.6153 35.086 32.7925 35.2633 32.7925 35.4823C32.7925 35.7013 32.6153 35.8785 32.3963 35.8785Z" fill="white"/>
</svg>
