<svg width="42" height="45" viewBox="0 0 42 45" fill="none" xmlns="http://www.w3.org/2000/svg">
<g clip-path="url(#clip0_401_81)">
<path d="M41.2135 33.51C41.0024 33.1914 40.6797 32.9622 40.3081 32.8672C39.9366 32.7721 39.5428 32.818 39.2034 32.9959L37.1168 33.8624C37.0977 33.8719 37.0882 33.8814 37.069 33.8814C36.9792 33.9417 36.8784 33.9838 36.7723 34.0053L25.3153 38.7951C24.7571 39.0968 24.1401 39.2755 23.5063 39.3188C23.0572 39.3912 18.4316 38.194 17.8879 38.1C17.644 38.0385 17.4342 37.8841 17.3037 37.6701C17.1732 37.4561 17.1324 37.1997 17.1902 36.9561C17.2479 36.7125 17.3996 36.5012 17.6125 36.3678C17.8254 36.2345 18.0824 36.1896 18.3282 36.243C18.5805 36.2654 23.6168 37.5858 23.6881 37.3953C24.0384 37.347 24.361 37.1795 24.6012 36.9214C24.8414 36.6632 24.9844 36.3302 25.0058 35.9791C25.0272 35.6279 24.9258 35.2802 24.7187 34.995C24.5117 34.7099 24.2117 34.5048 23.8699 34.4147L16.8828 32.6721C15.6704 32.3651 14.3859 32.5321 13.2935 33.1387C11.4747 34.1413 7.94533 36.0917 6.12451 37.1096L9.78082 43.4136C10.264 42.9564 10.8532 42.625 11.4961 42.4489C12.139 42.2729 12.8156 42.2575 13.4659 42.4043L21.7451 44.7372C22.6949 45.0011 23.6893 45.0672 24.6659 44.9312C25.6426 44.7952 26.5805 44.4601 27.421 43.9468L40.821 35.7479C41.0031 35.6338 41.1592 35.483 41.2791 35.3053C41.399 35.1275 41.48 34.9266 41.517 34.7157C41.554 34.5048 41.5461 34.2885 41.4938 34.0808C41.4415 33.8732 41.346 33.6787 41.2135 33.51Z" fill="white"/>
<path d="M18.3569 5.70407C19.9642 7.03961 19.9207 8.52827 18.3568 9.81784C18.1402 10.0067 17.9473 10.2209 17.7826 10.4559C17.7699 10.7568 17.7989 11.058 17.8687 11.351C18.0584 12.0068 18.0417 12.7047 17.8209 13.3507L20.9794 20.626C21.0835 20.8807 21.1047 21.1615 21.04 21.4289C20.9753 21.6962 20.828 21.9366 20.6188 22.1164C20.4096 22.2961 20.1491 22.406 19.8738 22.4308C19.5986 22.4555 19.3224 22.3938 19.0843 22.2543L16.567 20.7307L15.964 23.597C15.9044 23.8661 15.7611 24.1096 15.5544 24.293C15.3478 24.4765 15.0884 24.5905 14.8129 24.6189C14.5375 24.6474 14.2601 24.5888 14.02 24.4515C13.7799 24.3142 13.5893 24.1052 13.4754 23.8541L10.47 16.9122C10.1571 16.7179 9.81896 16.5673 9.46493 16.4646C9.12675 16.5562 8.80417 16.6975 8.50781 16.8836V33.6149L10.4221 32.5483C12.5032 31.2777 14.8552 30.09 17.3519 30.8248L24.339 32.5673C25.1098 32.7602 25.7895 33.2129 26.2625 33.8484C26.7354 34.4839 26.9723 35.2628 26.9328 36.0526L35.6237 32.434L37.538 31.6341V6.64686C37.5384 6.33036 37.4761 6.01687 37.3546 5.72437C37.233 5.43187 37.0547 5.16611 36.8297 4.9423C36.6048 4.71849 36.3377 4.54105 36.0437 4.42012C35.7497 4.2992 35.4346 4.23718 35.1165 4.23761H17.8591C17.7917 4.51157 17.7659 4.79404 17.7826 5.07561C17.9479 5.3073 18.1407 5.51831 18.3569 5.70407ZM30.6275 11.3129H22.1471C21.8957 11.3093 21.6558 11.2073 21.4793 11.0291C21.3027 10.8509 21.2038 10.6108 21.2038 10.3606C21.2038 10.1104 21.3028 9.87029 21.4793 9.6921C21.6558 9.51392 21.8957 9.412 22.1472 9.40837H30.6275C30.8784 9.41278 31.1175 9.51505 31.2934 9.69315C31.4693 9.87126 31.5678 10.111 31.5678 10.3606C31.5678 10.6103 31.4693 10.85 31.2934 11.0281C31.1175 11.2062 30.8784 11.3085 30.6275 11.3129ZM31.5846 14.7506C31.585 14.8757 31.5606 14.9998 31.5126 15.1155C31.4647 15.2312 31.3942 15.3364 31.3052 15.4249C31.2163 15.5134 31.1106 15.5835 30.9943 15.6312C30.8779 15.6789 30.7533 15.7032 30.6275 15.7028H22.1471C21.8933 15.7028 21.6498 15.6025 21.4703 15.4239C21.2908 15.2453 21.19 15.0031 21.19 14.7505C21.19 14.498 21.2908 14.2558 21.4703 14.0772C21.6498 13.8986 21.8933 13.7983 22.1471 13.7983H30.6275C30.7533 13.7978 30.8779 13.8222 30.9943 13.8699C31.1106 13.9176 31.2163 13.9877 31.3052 14.0762C31.3942 14.1647 31.4647 14.2699 31.5126 14.3856C31.5606 14.5013 31.585 14.6254 31.5846 14.7506ZM30.637 28.863H19.2088C18.9549 28.863 18.7114 28.7627 18.5319 28.5841C18.3524 28.4055 18.2516 28.1633 18.2516 27.9108C18.2516 27.6582 18.3524 27.416 18.5319 27.2374C18.7114 27.0588 18.9549 26.9585 19.2088 26.9585H30.637C30.8879 26.963 31.127 27.0653 31.3029 27.2434C31.4787 27.4215 31.5772 27.6611 31.5772 27.9108C31.5772 28.1604 31.4787 28.4001 31.3029 28.5782C31.127 28.7563 30.8879 28.8586 30.637 28.863ZM30.637 24.635H24.0232C23.7717 24.6314 23.5318 24.5294 23.3553 24.3512C23.1788 24.173 23.0798 23.9329 23.0798 23.6827C23.0798 23.4325 23.1788 23.1924 23.3553 23.0142C23.5318 22.836 23.7718 22.7341 24.0232 22.7305H30.637C30.888 22.7349 31.1271 22.8372 31.303 23.0153C31.4789 23.1934 31.5774 23.4331 31.5774 23.6827C31.5774 23.9324 31.4789 24.1721 31.303 24.3502C31.1271 24.5283 30.888 24.6306 30.637 24.635ZM30.637 20.0928H24.0232C23.7718 20.089 23.532 19.987 23.3556 19.8088C23.1792 19.6306 23.0804 19.3906 23.0804 19.1405C23.0804 18.8904 23.1793 18.6503 23.3557 18.4722C23.5321 18.294 23.7718 18.192 24.0232 18.1882H30.637C30.8879 18.1928 31.1269 18.2951 31.3027 18.4732C31.4785 18.6513 31.577 18.8909 31.577 19.1405C31.577 19.3901 31.4785 19.6297 31.3027 19.8078C31.1269 19.9859 30.8879 20.0882 30.637 20.0928Z" fill="white"/>
<path d="M1.88437 8.43711C2.35515 8.81974 2.72617 9.30973 2.96594 9.86549C3.10517 10.4683 3.09533 11.0957 2.93726 11.6938C2.90738 11.9299 2.75077 12.5306 2.8989 12.5985C3.69478 12.7609 4.71169 12.739 5.44498 13.265C6.21313 13.7769 6.43594 14.9095 6.94766 15.522C7.20447 15.4146 7.45388 15.2906 7.69425 15.1505C8.22697 14.8124 8.83502 14.6097 9.46493 14.5601C10.434 14.5388 11.1888 15.2673 12.0301 15.5029C12.4346 14.8714 12.7584 13.7643 13.4754 13.265C14.2148 12.7053 15.3051 12.8129 16.0788 12.5509C16.179 12.4456 16.021 11.9789 15.9832 11.6938C15.8283 11.0949 15.8217 10.4675 15.964 9.86549C16.1971 9.30591 16.5692 8.81441 17.0456 8.43711C17.2744 8.23787 17.477 8.0107 17.6486 7.76098C17.1847 7.03777 16.0536 6.45078 15.9257 5.45652C15.6831 4.68523 16.1383 3.66223 16.0693 2.95208C15.3459 2.74502 14.1792 2.80028 13.4754 2.25688C12.7171 1.74459 12.48 0.6122 11.9727 0C11.2692 0.292685 10.3567 0.975382 9.46493 0.961874C8.52515 0.991606 7.68259 0.239126 6.89981 0.0190847C6.47279 0.645396 6.17836 1.75648 5.44496 2.25692C4.71748 2.83034 3.564 2.70259 2.82238 2.99013C2.85827 3.74989 3.24951 4.81708 2.96594 5.65651C2.70128 6.54361 1.68452 7.10268 1.27173 7.78005C1.4499 8.02175 1.65547 8.24223 1.88437 8.43711ZM9.46493 3.32342C15.3596 3.50923 15.3583 12.0136 9.46483 12.1985C3.5703 12.0127 3.57173 3.50839 9.46493 3.32342Z" fill="white"/>
<path d="M4.76538 15.56C4.65232 15.2912 4.50428 15.0382 4.32507 14.8077C3.79158 14.6596 3.2477 14.5513 2.69798 14.4839L0.458252 19.6547L2.52565 18.3977C2.65702 18.3185 2.80564 18.2719 2.95893 18.262C3.11222 18.2521 3.26566 18.279 3.40626 18.3406C3.54546 18.4023 3.66819 18.4956 3.76459 18.613C3.86099 18.7304 3.92839 18.8687 3.96136 19.0167L4.44951 21.3592L6.22026 17.274C5.53468 16.9065 5.01475 16.294 4.76538 15.56Z" fill="white"/>
<path d="M14.9684 19.0167C15.0016 18.8684 15.0695 18.7301 15.1667 18.613C15.2639 18.4959 15.3876 18.4034 15.5277 18.343C15.6677 18.2826 15.8202 18.2561 15.9725 18.2656C16.1249 18.2751 16.2728 18.3204 16.4041 18.3977L18.4716 19.6452L16.2223 14.4839C15.6755 14.5501 15.1347 14.6583 14.6047 14.8077C14.0194 15.5395 13.8061 16.8709 12.7 17.274L14.4803 21.3592L14.9684 19.0167Z" fill="white"/>
<path d="M9.46507 10.2939C10.1352 10.2862 10.7753 10.016 11.2464 9.54176C11.7176 9.06755 11.9818 8.42766 11.9818 7.76088C11.9818 7.0941 11.7176 6.45422 11.2464 5.98003C10.7752 5.50584 10.1351 5.23559 9.46499 5.22791C8.79484 5.23561 8.15476 5.50588 7.68361 5.98008C7.21246 6.45429 6.94823 7.09418 6.94824 7.76096C6.94825 8.42774 7.2125 9.06762 7.68367 9.54181C8.15483 10.016 8.79492 10.2863 9.46507 10.2939Z" fill="white"/>
</g>
<defs>
<clipPath id="clip0_401_81">
<rect width="42" height="45" fill="white"/>
</clipPath>
</defs>
</svg>
