<svg width="42" height="43" viewBox="0 0 42 43" fill="none" xmlns="http://www.w3.org/2000/svg">
<g clip-path="url(#clip0_401_161)">
<path d="M26.7825 23.5068H15.2175C15.1189 23.5064 15.0213 23.5256 14.9301 23.5632C14.839 23.6007 14.7561 23.656 14.6864 23.7257C14.6167 23.7954 14.5615 23.8782 14.5239 23.9694C14.4863 24.0605 14.4672 24.1582 14.4675 24.2568V41.6193C14.4672 41.7179 14.4864 41.8155 14.5239 41.9067C14.5615 41.9978 14.6167 42.0807 14.6864 42.1504C14.7561 42.2201 14.839 42.2753 14.9301 42.3129C15.0213 42.3505 15.1189 42.3696 15.2175 42.3693H26.7825C26.8811 42.3696 26.9787 42.3505 27.0699 42.3129C27.161 42.2753 27.2438 42.2201 27.3136 42.1504C27.3833 42.0807 27.4385 41.9978 27.4761 41.9067C27.5136 41.8155 27.5328 41.7179 27.5325 41.6193V24.2568C27.5328 24.1582 27.5136 24.0605 27.4761 23.9694C27.4385 23.8782 27.3833 23.7954 27.3136 23.7257C27.2438 23.656 27.161 23.6007 27.0699 23.5632C26.9787 23.5256 26.8811 23.5064 26.7825 23.5068Z" fill="white"/>
<path d="M12.3224 29.2968H0.749996C0.335785 29.2968 0 29.6326 0 30.0468V41.6193C0 42.0335 0.335785 42.3693 0.749996 42.3693H12.3224C12.7366 42.3693 13.0724 42.0335 13.0724 41.6193V30.0468C13.0724 29.6326 12.7366 29.2968 12.3224 29.2968Z" fill="white"/>
<path d="M11.2349 13.2093C12.0598 13.1491 12.9013 13.2801 13.2524 14.1394C13.6182 14.9822 13.1019 15.686 12.4874 16.2243C12.4169 16.2931 12.3609 16.3754 12.3227 16.4662C12.2845 16.557 12.2648 16.6545 12.2648 16.753C12.2648 16.8516 12.2845 16.9491 12.3227 17.0399C12.3609 17.1307 12.4169 17.2129 12.4874 17.2818L14.6474 19.4418C14.7167 19.5114 14.7992 19.5665 14.8899 19.6042C14.9806 19.6418 15.0779 19.6612 15.1761 19.6612C15.2743 19.6612 15.3716 19.6418 15.4623 19.6042C15.5531 19.5665 15.6355 19.5114 15.7049 19.4418L16.1474 19.0068C16.3596 18.8002 16.6278 18.6603 16.9187 18.6045C17.2096 18.5487 17.5104 18.5793 17.7841 18.6926C18.0578 18.8059 18.2923 18.9969 18.4586 19.242C18.6249 19.4872 18.7157 19.7756 18.7198 20.0718L18.7198 20.6943C18.7204 20.893 18.7996 21.0835 18.9401 21.224C19.0807 21.3645 19.2711 21.4437 19.4698 21.4443H22.5298C22.7286 21.4437 22.919 21.3645 23.0595 21.224C23.2 21.0835 23.2792 20.893 23.2798 20.6943V20.0718C23.2838 19.7756 23.3746 19.487 23.5408 19.2418C23.7071 18.9966 23.9416 18.8055 24.2154 18.6922C24.4891 18.5789 24.7901 18.5483 25.081 18.6042C25.3719 18.6601 25.6401 18.8001 25.8523 19.0069L26.2948 19.4418C26.3642 19.5113 26.4466 19.5665 26.5373 19.6042C26.628 19.6418 26.7253 19.6612 26.8235 19.6612C26.9218 19.6612 27.019 19.6418 27.1098 19.6042C27.2005 19.5665 27.2829 19.5113 27.3523 19.4418L29.5123 17.2818C29.5828 17.2129 29.6388 17.1307 29.677 17.0399C29.7153 16.9491 29.735 16.8516 29.735 16.753C29.735 16.6545 29.7153 16.557 29.677 16.4662C29.6388 16.3754 29.5828 16.2931 29.5123 16.2243C29.2661 16.051 29.0603 15.8266 28.9089 15.5664C28.7574 15.3062 28.664 15.0164 28.6348 14.7168C28.6361 14.3174 28.7953 13.9347 29.0777 13.6523C29.3602 13.3698 29.7429 13.2106 30.1423 13.2093H30.7648C30.9635 13.2087 31.1539 13.1295 31.2945 12.989C31.435 12.8485 31.5142 12.658 31.5148 12.4593V9.39931C31.5142 9.20057 31.435 9.01014 31.2945 8.86961C31.1539 8.72908 30.9635 8.64988 30.7648 8.64931C29.1599 8.9218 27.9143 7.4158 29.0773 6.07669L29.5123 5.63429C29.5827 5.56544 29.6387 5.48319 29.677 5.39239C29.7152 5.30159 29.7349 5.20406 29.7349 5.10554C29.7349 5.00702 29.7152 4.9095 29.677 4.81869C29.6387 4.72789 29.5827 4.64565 29.5123 4.57679L27.3523 2.41681C27.2829 2.34726 27.2005 2.29209 27.1098 2.25444C27.0191 2.21679 26.9218 2.19741 26.8236 2.19741C26.7253 2.19741 26.6281 2.21679 26.5373 2.25444C26.4466 2.29209 26.3642 2.34726 26.2948 2.41681L25.8523 2.85181C25.6401 3.05855 25.3719 3.19854 25.081 3.25447C24.79 3.3104 24.4891 3.2798 24.2153 3.16648C23.9416 3.05315 23.7071 2.86206 23.5408 2.61685C23.3745 2.37163 23.2838 2.08305 23.2798 1.78681V1.16431C23.2792 0.965571 23.2 0.77514 23.0595 0.634613C22.919 0.494085 22.7286 0.414882 22.5298 0.414307H19.4698C19.2711 0.414882 19.0807 0.494085 18.9402 0.634613C18.7996 0.77514 18.7204 0.965571 18.7198 1.16431C18.7801 1.98919 18.649 2.83081 17.7898 3.18176C16.9473 3.54765 16.2429 3.03125 15.7049 2.41676C15.6355 2.34723 15.5531 2.29206 15.4624 2.25442C15.3716 2.21678 15.2744 2.19741 15.1761 2.19742C15.0779 2.19742 14.9806 2.2168 14.8899 2.25445C14.7992 2.29209 14.7168 2.34727 14.6474 2.41681L12.4874 4.57681C12.4169 4.64565 12.3609 4.7279 12.3227 4.8187C12.2844 4.9095 12.2647 5.00703 12.2647 5.10556C12.2647 5.20408 12.2844 5.30161 12.3227 5.39241C12.3609 5.48322 12.4169 5.56546 12.4874 5.63431C13.1082 6.17964 13.6136 6.87649 13.2523 7.71931C12.9076 8.57743 12.0509 8.71023 11.2349 8.64925C11.0361 8.64987 10.8457 8.72909 10.7052 8.86963C10.5647 9.01017 10.4855 9.2006 10.4849 9.39934V12.4593C10.4854 12.6581 10.5647 12.8485 10.7052 12.989C10.8457 13.1295 11.0362 13.2087 11.2349 13.2093ZM26.4523 10.9294C26.1973 18.1467 15.8007 18.1437 15.5474 10.9292C15.802 3.71258 26.1987 3.71442 26.4523 10.9294Z" fill="white"/>
<path d="M24.9523 10.9293C24.781 5.70829 17.2194 5.70706 17.0474 10.9292C17.2136 16.1514 24.7853 16.1526 24.9523 10.9293Z" fill="white"/>
<path d="M1.03488 21.6993C1.20498 21.8239 1.33138 21.999 1.39603 22.1997C1.46068 22.4004 1.46028 22.6164 1.39488 22.8168C1.2318 23.317 1.23144 23.8561 1.39387 24.3565C1.5563 24.857 1.87315 25.2931 2.29892 25.6022C2.72468 25.9113 3.23746 26.0776 3.76361 26.0771C4.28976 26.0765 4.80221 25.9093 5.22736 25.5993C5.39709 25.475 5.60198 25.408 5.81234 25.408C6.0227 25.408 6.2276 25.475 6.39735 25.5992C6.82429 25.9032 7.336 26.0653 7.86011 26.0626C8.38422 26.0599 8.89422 25.8924 9.31796 25.584C9.7417 25.2755 10.0577 24.8416 10.2214 24.3437C10.385 23.8458 10.388 23.309 10.2298 22.8093C10.1646 22.6093 10.1651 22.3937 10.2312 22.1939C10.2973 21.9942 10.4256 21.8209 10.5973 21.6993C11.0169 21.3863 11.3276 20.9495 11.486 20.4506C11.6443 19.9517 11.6421 19.4157 11.4798 18.918C11.3175 18.4204 11.0033 17.9862 10.5813 17.6765C10.1593 17.3668 9.65075 17.1973 9.12734 17.1918C8.91973 17.1931 8.71706 17.1285 8.54857 17.0072C8.38008 16.8859 8.25446 16.7142 8.18984 16.5169C8.02421 16.0188 7.70615 15.5854 7.28066 15.2779C6.85517 14.9705 6.34379 14.8046 5.81885 14.8038C5.29392 14.8029 4.782 14.9672 4.35553 15.2732C3.92905 15.5793 3.6096 16.0117 3.44237 16.5093C3.37688 16.7081 3.25024 16.8812 3.08055 17.0037C2.91086 17.1263 2.70678 17.1921 2.49746 17.1918C1.97364 17.1967 1.46462 17.3662 1.04234 17.6761C0.620063 17.9861 0.305883 18.421 0.144207 18.9192C-0.0174696 19.4175 -0.0184641 19.954 0.141363 20.4529C0.301191 20.9517 0.613757 21.3877 1.03488 21.6993Z" fill="white"/>
<path d="M41.2497 29.2968H29.6772C29.263 29.2968 28.9272 29.6326 28.9272 30.0468V41.6193C28.9272 42.0335 29.263 42.3693 29.6772 42.3693H41.2497C41.6639 42.3693 41.9997 42.0335 41.9997 41.6193V30.0468C41.9997 29.6326 41.6639 29.2968 41.2497 29.2968Z" fill="white"/>
<path d="M30.5022 18.9168C30.3324 19.4163 30.329 19.9575 30.4926 20.4591C30.6562 20.9608 30.978 21.3959 31.4097 21.6993C31.5798 21.8238 31.7062 21.999 31.7708 22.1996C31.8355 22.4003 31.8351 22.6162 31.7697 22.8167C31.613 23.316 31.6171 23.852 31.7814 24.3489C31.9457 24.8458 32.2619 25.2786 32.6854 25.5861C33.1089 25.8935 33.6183 26.0602 34.1417 26.0626C34.665 26.065 35.1759 25.9029 35.6022 25.5993C35.7719 25.475 35.9768 25.408 36.1872 25.408C36.3975 25.408 36.6024 25.4749 36.7722 25.5992C37.1991 25.9032 37.7108 26.0653 38.235 26.0626C38.7591 26.0599 39.2691 25.8924 39.6928 25.5839C40.1165 25.2755 40.4326 24.8416 40.5962 24.3437C40.7599 23.8458 40.7628 23.309 40.6047 22.8093C40.5394 22.6093 40.5399 22.3936 40.606 22.1939C40.6721 21.9942 40.8004 21.8209 40.9721 21.6993C41.3916 21.3863 41.7024 20.9495 41.8608 20.4506C42.0191 19.9517 42.017 19.4157 41.8547 18.918C41.6924 18.4204 41.3781 17.9862 40.9561 17.6765C40.5341 17.3668 40.0256 17.1973 39.5022 17.1918C39.2918 17.192 39.0869 17.1252 38.917 17.0012C38.7471 16.8772 38.6211 16.7023 38.5572 16.5019C38.3893 16.006 38.07 15.5753 37.6444 15.2705C37.2187 14.9657 36.7081 14.8022 36.1845 14.803C35.661 14.8038 35.1509 14.9689 34.7262 15.275C34.3015 15.5811 33.9835 16.0128 33.8172 16.5093C33.7517 16.7081 33.6251 16.8811 33.4554 17.0037C33.2856 17.1263 33.0816 17.1921 32.8722 17.1918C32.344 17.1851 31.8277 17.3495 31.4005 17.6604C30.9734 17.9713 30.6583 18.412 30.5022 18.9168Z" fill="white"/>
</g>
<defs>
<clipPath id="clip0_401_161">
<rect width="42" height="42" fill="white" transform="translate(0 0.391785)"/>
</clipPath>
</defs>
</svg>
