<svg width="42" height="39" viewBox="0 0 42 39" fill="none" xmlns="http://www.w3.org/2000/svg">
<path d="M41.6701 35.376L38.563 33.2601C38.3141 33.0906 38.02 33 37.7188 33H35.5626C33.3465 35.6324 30.4955 37.7052 27.2495 39H37.7188C38.02 39 38.3141 38.9094 38.563 38.7399L41.6701 36.624C42.1102 36.3244 42.1102 35.6756 41.6701 35.376Z" fill="white"/>
<path d="M3.00018 20.7624L6.06931 18.1323C6.7359 11.5386 12.1717 6.34753 18.8615 6.03232L16.6809 3.48834C16.4392 3.20856 16.4392 2.79254 16.6809 2.51276L18.8046 0C8.77963 0.354401 0.63501 8.29459 0 18.2456L3.00018 20.7624Z" fill="white"/>
<path d="M18.238 3.00055L20.8679 6.06931C27.4617 6.7359 32.6527 12.1721 32.9677 18.8622L35.5121 16.6813C35.7919 16.4396 36.2079 16.4396 36.4877 16.6813L39 18.8046C38.6456 8.78 30.7057 0.635193 20.7551 0L18.238 3.00055Z" fill="white"/>
<path d="M2.51251 22.3195L0.0297852 20.1915C0.180664 24.4516 1.69238 28.3596 4.15103 31.5H13.3439C9.16803 29.3486 6.27634 25.0832 6.0448 20.1281L3.4881 22.3195C3.20831 22.5612 2.7923 22.5612 2.51251 22.3195Z" fill="white"/>
<path d="M20.7621 36.0003L18.1909 33H1.5C0.671631 33 0 33.6715 0 34.5V37.5C0 38.3285 0.671631 39 1.5 39H18.1913L20.7621 36.0003Z" fill="white"/>
<path d="M35.9999 18.2384L32.9306 20.8687C32.2635 27.4622 26.8278 32.6526 20.1379 32.9677L22.3192 35.5125C22.5609 35.7923 22.5609 36.2083 22.3192 36.4881L20.1963 39C30.2206 38.6451 38.3015 30.7054 38.9366 20.7551L35.9999 18.2384Z" fill="white"/>
<path d="M19.5 10.5C14.5294 10.5 10.5 14.5294 10.5 19.5C10.5 24.4706 14.5294 28.5 19.5 28.5C24.4706 28.5 28.5 24.4706 28.5 19.5C28.5 14.5294 24.4706 10.5 19.5 10.5ZM23.8931 16.136L19.3931 23.636C19.2744 23.8337 19.0708 23.9663 18.8416 23.9941C18.8108 23.9978 18.78 24 18.75 24C18.5522 24 18.3611 23.9216 18.2197 23.7803L15.2197 20.7803C14.9268 20.4873 14.9268 20.0127 15.2197 19.7197C15.5127 19.4268 15.9873 19.4268 16.2803 19.7197L18.6013 22.0408L22.6069 15.364C22.8208 15.0095 23.2808 14.8938 23.636 15.1069C23.9912 15.3201 24.1062 15.7808 23.8931 16.136Z" fill="white"/>
</svg>
