<svg width="42" height="42" viewBox="0 0 42 42" fill="none" xmlns="http://www.w3.org/2000/svg">
<g clip-path="url(#clip0_401_218)">
<path d="M34.8655 30.2997C35.3225 30.3656 35.7143 30.5635 36.0408 30.8273L38.5873 24.7595C38.1302 24.6935 37.7384 24.4956 37.3467 24.2318L34.8655 30.2997Z" fill="white"/>
<path d="M24.2227 37.4229C24.4838 37.8186 24.6144 38.2143 24.745 38.676L30.8827 36.1038C30.6215 35.774 30.4909 35.3123 30.3603 34.9166L24.2227 37.4229Z" fill="white"/>
<path d="M11.0984 35.9718L17.4319 38.61C17.4972 38.1483 17.6931 37.7526 17.9543 37.3569L11.6207 34.6527C11.4902 35.1804 11.2943 35.5761 11.0984 35.9718Z" fill="white"/>
<path d="M7.31137 30.2997L4.7649 24.0999C4.43842 24.3637 4.11195 24.5616 3.5896 24.6935L6.07078 30.6954C6.46255 30.4976 6.91961 30.2997 7.31137 30.2997Z" fill="white"/>
<path d="M7.31137 11.6344C6.91961 11.5684 6.46255 11.4365 6.07078 11.2386L3.5896 17.3065C4.04666 17.4384 4.43842 17.6363 4.7649 17.9001L7.31137 11.6344Z" fill="white"/>
<path d="M11.5556 7.14943L17.8891 4.51123C17.6279 4.1155 17.4973 3.71977 17.3667 3.32404L11.0332 5.96224C11.2944 6.35797 11.4903 6.81966 11.5556 7.14943Z" fill="white"/>
<path d="M30.8827 5.89629L24.8103 3.32404C24.745 3.78572 24.5492 4.18145 24.3533 4.51123L30.4256 7.08348C30.4909 6.62179 30.6215 6.22606 30.8827 5.89629Z" fill="white"/>
<path d="M34.8655 11.6344L37.412 17.8342C37.7384 17.6363 38.1302 17.4384 38.5873 17.3065L36.0408 11.1068C35.7143 11.3706 35.2572 11.5684 34.8655 11.6344Z" fill="white"/>
<path d="M29.1196 28.1232C30.6866 26.3424 31.6661 24.0999 31.7966 21.5936H35.649C35.5837 21.1979 35.5837 20.7362 35.649 20.2745H31.7966C31.6661 17.7682 30.6866 15.5258 29.1196 13.745L31.8619 10.9749C31.4702 10.711 31.209 10.3813 30.9478 10.0515L28.2055 12.8216C26.4425 11.2387 24.2225 10.2494 21.7413 10.1174V6.29205C21.5455 6.35801 21.2843 6.35801 21.0884 6.35801C20.8925 6.35801 20.6313 6.35801 20.4354 6.29205V10.1174C17.9543 10.2494 15.7343 11.2387 13.9713 12.8216L11.0331 9.85363C10.8372 10.1834 10.576 10.5132 10.1843 10.843L13.0572 13.745C11.4901 15.5258 10.5107 17.7682 10.3801 20.2745H6.2666C6.3319 20.7362 6.3319 21.132 6.2666 21.5936H10.3801C10.5107 24.0999 11.5554 26.3424 13.0572 28.1232L10.1843 31.0252C10.5107 31.289 10.8372 31.6188 11.0331 32.0145L13.9713 29.0466C15.7343 30.6295 17.9543 31.6188 20.4354 31.7507V35.6421C20.6313 35.5761 20.8272 35.5761 21.0884 35.5761C21.3496 35.5761 21.5455 35.5761 21.7413 35.6421V31.7507C24.2225 31.6188 26.4425 30.5635 28.2055 29.0466L30.9478 31.8167C31.209 31.4869 31.5355 31.1571 31.8619 30.8933L29.1196 28.1232ZM28.989 25.7488C28.9237 24.9573 28.4666 24.2318 27.8137 23.8361C26.7037 23.2425 25.5937 22.7149 24.4837 22.3851C24.1572 22.3191 23.896 22.4511 23.7002 22.7149L21.5455 26.6062H20.6966L18.6072 22.7808C18.4766 22.517 18.1502 22.3851 17.889 22.4511C16.779 22.7808 15.669 23.2425 14.559 23.8361C13.8407 24.2318 13.3837 24.9573 13.3184 25.7488V26.2105C12.339 24.6935 11.7513 22.9127 11.7513 21C11.7513 15.7236 16.0607 11.4366 21.219 11.4366C26.4425 11.4366 30.6866 15.7236 30.6866 21C30.6866 22.9127 30.099 24.7595 29.1196 26.2105L28.989 25.7488Z" fill="white"/>
<path d="M21.0885 13.8109C18.9991 13.8109 17.3667 15.5257 17.3667 17.5704C17.3667 19.7469 19.0643 22.3191 21.0885 22.3191C23.1126 22.3191 24.8102 19.7469 24.8102 17.5704C24.8102 15.5257 23.1779 13.8109 21.0885 13.8109Z" fill="white"/>
<path d="M4.89549 20.3405C4.56902 19.2192 3.6549 18.4937 2.5449 18.4937C1.17372 18.4937 0.0637207 19.6149 0.0637207 21C0.0637207 22.451 1.23902 23.5063 2.5449 23.5063C4.11196 23.5063 5.35255 21.9893 4.89549 20.3405Z" fill="white"/>
<path d="M7.24607 31.6188C6.13607 31.8826 5.35254 32.8719 5.35254 34.0591C5.35254 35.4442 6.46254 36.5654 7.83372 36.5654C9.2049 36.5654 10.3149 35.4442 10.3149 34.0591C10.3149 32.3443 8.68254 31.2231 7.24607 31.6188Z" fill="white"/>
<path d="M9.79255 9.39191C11.0331 7.74304 9.85784 5.36865 7.83372 5.36865C6.46254 5.36865 5.35254 6.48989 5.35254 7.87495C5.41783 10.2493 8.35607 11.3046 9.79255 9.39191Z" fill="white"/>
<path d="M21.0884 5.03889C22.4595 5.03889 23.5695 3.91766 23.5695 2.5326C23.5695 1.14754 22.4595 0.0263062 21.0884 0.0263062C19.7172 0.0263062 18.6072 1.14754 18.6072 2.5326C18.6072 3.91766 19.7172 5.03889 21.0884 5.03889Z" fill="white"/>
<path d="M21.0884 36.9612C19.7172 36.9612 18.6072 38.0824 18.6072 39.4675C18.6072 40.8525 19.7172 41.9738 21.0884 41.9738C22.4595 41.9738 23.5695 40.8525 23.5695 39.4675C23.5695 38.0824 22.4595 36.9612 21.0884 36.9612Z" fill="white"/>
<path d="M34.082 31.5529C32.7108 31.5529 31.6008 32.6741 31.6008 34.0591C31.6008 35.4442 32.7108 36.5654 34.082 36.5654C35.4532 36.5654 36.5632 35.4442 36.5632 34.0591C36.4979 32.6741 35.4532 31.5529 34.082 31.5529Z" fill="white"/>
<path d="M34.9961 10.1834C35.9102 9.78764 36.5632 8.86427 36.5632 7.87495C36.5632 6.48989 35.4532 5.36865 34.082 5.36865C32.7108 5.36865 31.6008 6.48989 31.6008 7.87495C31.6008 9.58978 33.2985 10.8429 34.9961 10.1834Z" fill="white"/>
<path d="M38.4568 18.6916C37.5427 19.0874 36.9551 19.9448 36.9551 21.0001C36.9551 22.3851 38.0651 23.5063 39.4363 23.5063C40.8074 23.5063 41.9174 22.3851 41.9174 21.0001C41.8521 19.2193 40.0239 18.0321 38.4568 18.6916Z" fill="white"/>
</g>
<defs>
<clipPath id="clip0_401_218">
<rect width="42" height="42" fill="white"/>
</clipPath>
</defs>
</svg>
