<svg width="42" height="46" viewBox="0 0 42 46" fill="none" xmlns="http://www.w3.org/2000/svg">
<g clip-path="url(#clip0_401_501)">
<path fill-rule="evenodd" clip-rule="evenodd" d="M21 0C18.5639 0 16.5889 1.98645 16.5889 4.43684C16.5889 6.88723 18.5639 8.87368 21 8.87368C23.4362 8.87368 25.4112 6.88723 25.4112 4.43684C25.4112 1.98645 23.4362 0 21 0ZM21 14.9131C15.526 14.9131 11.0892 19.3758 11.0892 24.8819C11.0892 30.3878 15.5259 34.8504 21 34.8504C26.4741 34.8504 30.9109 30.3879 30.9109 24.8819C30.9109 19.3758 26.4741 14.9131 21 14.9131ZM21 19.4094C24.0051 19.4094 26.4407 21.8592 26.4407 24.8818C26.4407 27.9044 24.0051 30.3542 21 30.3542C17.995 30.3542 15.5595 27.9044 15.5595 24.8818C15.5594 21.8592 17.995 19.4094 21 19.4094ZM8.67874 3.61166C11.1149 3.61166 13.0899 5.59811 13.0899 8.0485C13.0899 10.4989 11.1149 12.4853 8.67874 12.4853C6.24255 12.4853 4.26762 10.4989 4.26762 8.0485C4.26762 5.59811 6.24255 3.61166 8.67874 3.61166ZM33.3215 3.61166C35.7577 3.61166 37.7327 5.59811 37.7327 8.0485C37.7327 10.4989 35.7577 12.4853 33.3215 12.4853C30.8853 12.4853 28.9104 10.4989 28.9104 8.0485C28.9104 5.59811 30.8853 3.61166 33.3215 3.61166ZM31.822 21.2553C31.0536 18.9346 29.5683 16.9439 27.6304 15.5484C29.158 14.2246 31.1468 13.4242 33.3215 13.4242C37.4174 13.4242 40.8538 16.2634 41.7923 20.0918C41.9382 20.6867 41.4951 21.2553 40.886 21.2553H31.822ZM41.9959 24.8818V27.7398L38.5166 29.0868C38.0754 30.9515 37.3405 32.7323 36.3414 34.3643L37.8557 37.7937L33.8372 41.8356L30.4288 40.3129C28.8059 41.3182 27.0347 42.0575 25.1804 42.5012L23.8416 46H18.1587L16.8195 42.5003C14.9656 42.0566 13.1951 41.3174 11.5725 40.3125L8.16298 41.8356L4.14451 37.7937L5.65838 34.3654C4.65887 32.733 3.92406 30.9514 3.48268 29.0865L0.00415039 27.7398V24.8818H9.59583C9.59583 31.2168 14.7017 36.3524 20.9999 36.3524C27.2983 36.3524 32.4042 31.2168 32.4042 24.8818H41.9959ZM15.6936 14.7269C17.2787 13.8871 19.0839 13.4111 21 13.4111C22.9162 13.4111 24.7214 13.887 26.3064 14.7268C26.8352 14.2253 27.4162 13.781 28.0388 13.4026C26.4512 11.2258 23.8898 9.81246 21 9.81246C18.1103 9.81246 15.5489 11.2258 13.9613 13.4027C14.5839 13.7812 15.1648 14.2253 15.6936 14.7269ZM1.11416 21.2553C0.50507 21.2553 0.0620171 20.6866 0.207897 20.0918C1.14636 16.2633 4.5828 13.4241 8.67874 13.4241C10.8534 13.4241 12.8421 14.2245 14.3697 15.5483C12.4317 16.9437 10.9466 18.9348 10.1781 21.2553H1.11416Z" fill="white"/>
</g>
<defs>
<clipPath id="clip0_401_501">
<rect width="42" height="46" fill="white"/>
</clipPath>
</defs>
</svg>
