<svg width="42" height="42" viewBox="0 0 42 42" fill="none" xmlns="http://www.w3.org/2000/svg">
<g clip-path="url(#clip0_401_605)">
<path fill-rule="evenodd" clip-rule="evenodd" d="M38.5329 25.3798C34.61 25.3798 32.6417 30.1325 35.4154 32.9062C35.9263 33.4171 35.9263 34.2459 35.4154 34.7569L32.5982 37.5741C32.0873 38.085 31.2585 38.085 30.7475 37.5741C27.9738 34.8003 23.2212 36.7687 23.2212 40.6916C23.2212 41.4146 22.6352 42.0001 21.9127 42.0001H17.9287C17.2062 42.0001 16.6202 41.4146 16.6202 40.6916C16.6202 36.7638 11.8711 34.7968 9.09394 37.5741C8.58302 38.085 7.75423 38.085 7.24332 37.5741L4.42609 34.7569C3.91518 34.246 3.91518 33.4172 4.42609 32.9062C7.19983 30.1325 5.23161 25.3798 1.30865 25.3798C0.585636 25.3798 0 24.7938 0 24.0714V20.0874C0 19.3648 0.585636 18.7788 1.30856 18.7788C5.23152 18.7788 7.19974 14.0263 4.426 11.2525C3.91509 10.7416 3.91509 9.91281 4.426 9.4019L7.24323 6.58466C7.75414 6.07375 8.58294 6.07375 9.09385 6.58466C11.8676 9.35841 16.6201 7.39018 16.6201 3.46721C16.6201 2.74428 17.2061 2.15865 17.9286 2.15865H21.9126C22.6351 2.15865 23.2211 2.74428 23.2211 3.46721C23.2211 4.09808 23.3446 4.67812 23.5625 5.1963L10.8636 8.599C10.1398 8.7929 9.7305 9.55756 9.97287 10.267C10.4625 11.7 11.0836 12.3571 11.8222 12.6104C12.2656 12.7625 12.7063 12.7566 13.1645 12.6801L12.5592 15.9623C11.1794 17.6209 10.3492 19.7531 10.3492 22.0793C10.3492 27.1774 14.3351 31.3439 19.3605 31.634C19.3317 31.7674 19.3165 31.9058 19.3165 32.0477V33.4057C19.3165 33.744 19.5908 34.0182 19.929 34.0182H27.6069C27.9451 34.0182 28.2194 33.744 28.2194 33.4057V32.0477C28.2194 31.1489 27.6049 30.3619 26.7381 30.1389C26.644 29.7629 26.5625 29.3974 26.4919 29.0379C28.3391 27.2929 29.4921 24.8209 29.4921 22.0792C29.4921 21.6552 29.4641 21.2378 29.4107 20.8283L32.2201 19.3551C33.3279 18.7743 34.0522 17.8081 34.2985 16.5817L34.424 15.9572C35.0367 17.5394 36.5297 18.7787 38.5328 18.7787C39.2558 18.7787 39.8413 19.3647 39.8413 20.0873V24.0714C39.8413 24.7938 39.2558 25.3798 38.5329 25.3798ZM27.2141 13.4076L25.0396 13.9903C26.0041 14.6019 26.8517 15.3813 27.5414 16.2874L27.7029 16.1929C28.0792 15.9729 28.2743 15.5964 28.2423 15.1624L28.1622 14.0788C28.1269 13.5997 27.6826 13.2823 27.2141 13.4076ZM35.9844 0.564222C35.2751 0.754272 34.8516 1.48787 35.0417 2.19715L37.4432 11.1599C37.6333 11.8692 38.3668 12.2927 39.0762 12.1027L41.0117 11.5841C41.7211 11.394 42.1446 10.6604 41.9545 9.95113L39.5529 0.988335C39.3628 0.278972 38.6292 -0.144528 37.9199 0.0456095L35.9844 0.564222ZM19.3094 11.5078C19.4773 11.2158 19.85 11.1151 20.1421 11.2829C20.4341 11.4507 20.5348 11.8235 20.367 12.1155L18.4827 15.3793C18.1866 15.8922 18.1187 16.4193 18.2719 16.991L19.9322 23.1875C20.052 23.6347 20.5227 23.8664 20.9501 23.6891C22.0976 23.213 22.297 22.6325 21.9789 21.4452L20.9715 17.6857C20.831 17.1613 20.9032 16.6396 21.1787 16.1721L22.3131 14.2464C22.676 13.6304 23.226 13.2099 23.9169 13.0247L26.8983 12.2259C28.0991 11.9042 29.2911 12.7538 29.3824 13.9928L29.4625 15.0764C29.5287 15.9738 29.0964 16.7916 28.3202 17.2457L26.4649 18.3311C25.678 18.7854 24.7391 19.4462 25.0181 20.4874C25.1314 20.9102 25.2597 21.2444 25.4267 21.3755C25.5853 21.5 25.8955 21.2833 26.0446 21.2159L31.6555 18.2739C32.4346 17.8654 32.929 17.205 33.1023 16.3427L34.0796 11.4777C34.2375 10.6915 34.8243 10.1242 35.5958 9.93486L35.8313 9.87711L34.1559 3.62436L24.7552 6.14331C24.5148 6.20771 24.3205 6.3051 24.1251 6.4591L16.872 12.1739C16.3895 12.554 16.1252 13.0438 16.0727 13.6558L15.519 20.102C15.4773 20.5879 15.8744 20.9751 16.359 20.9178C16.9441 20.8486 17.5805 20.6022 17.8162 20.0171L17.09 17.3068C16.8538 16.4253 16.9691 15.5616 17.4252 14.7716L19.3094 11.5078ZM20.5416 32.7932H26.9945V32.0477C26.9945 31.6389 26.6578 31.3022 26.249 31.3022H21.2871C20.8783 31.3022 20.5416 31.6389 20.5416 32.0477V32.7932ZM23.7763 20.5303C23.5196 20.5303 23.276 20.5715 23.0368 20.6662L23.1608 21.1294C23.4522 22.2168 23.441 23.3111 22.5749 24.1175C22.9143 24.3715 23.34 24.5124 23.768 24.5124C24.8278 24.5124 25.7028 23.6815 25.7564 22.6238C24.5401 22.8116 23.9475 21.533 23.7763 20.5303ZM24.8722 25.5427C24.1644 25.8015 23.3714 25.8009 22.664 25.5413C22.6015 27.0864 22.4247 28.5688 22.0715 30.0772H25.4643C25.1111 28.5686 24.9346 27.0886 24.8722 25.5427ZM21.4122 7.03905L11.1795 9.78086C11.1346 9.79285 11.1161 9.831 11.131 9.87457C11.476 10.8844 11.8326 11.3197 12.2194 11.4524C12.5544 11.5673 13.0031 11.4822 13.5114 11.352C13.6312 11.0545 13.7775 10.7777 13.9488 10.5227C14.1364 10.2426 14.5156 10.1676 14.7958 10.3552C15.0759 10.5428 15.1508 10.922 14.9632 11.2022C14.6877 11.6126 14.5191 12.0682 14.4298 12.5529L13.4372 17.9345C13.4295 17.977 13.4573 18.0165 13.5009 18.0206C13.7935 18.0486 14.0944 18.0582 14.3006 17.9846C14.394 17.9513 14.4664 17.8792 14.4931 17.7403L14.8525 13.5553C14.9339 12.6065 15.3678 11.8016 16.1159 11.2122L21.4122 7.03905Z" fill="white"/>
</g>
<defs>
<clipPath id="clip0_401_605">
<rect width="42" height="42" fill="white"/>
</clipPath>
</defs>
</svg>
