<svg width="42" height="42" viewBox="0 0 42 42" fill="none" xmlns="http://www.w3.org/2000/svg">
<g clip-path="url(#clip0_401_555)">
<path d="M39 21C37.895 21 36.938 21.6078 36.4175 22.5H31.5C31.1016 22.5 30.7207 22.6582 30.4395 22.9395L27.8789 25.5H24V28.5H28.5C28.8984 28.5 29.2793 28.3418 29.5605 28.0605L32.1211 25.5H36.4175C36.938 26.3922 37.895 27 39 27C40.6538 27 42 25.6538 42 24C42 22.3462 40.6538 21 39 21Z" fill="white"/>
<path d="M39 36C37.895 36 36.938 36.6078 36.4175 37.5H32.1211L29.5605 34.9395C29.2793 34.6582 28.8984 34.5 28.5 34.5H24V37.5H27.8789L30.4395 40.0605C30.7207 40.3418 31.1016 40.5 31.5 40.5H36.4175C36.938 41.3922 37.895 42 39 42C40.6538 42 42 40.6538 42 39C42 37.3462 40.6538 36 39 36Z" fill="white"/>
<path d="M39 28.5C37.895 28.5 36.938 29.1078 36.4175 30H24V33H36.4175C36.938 33.8922 37.895 34.5 39 34.5C40.6538 34.5 42 33.1538 42 31.5C42 29.8462 40.6538 28.5 39 28.5Z" fill="white"/>
<path d="M18 4.50004L9.7717 0.219864C9.29672 -0.0732879 8.70328 -0.0732879 8.2283 0.219864L0 4.50004L9 9.00004L18 4.50004Z" fill="white"/>
<path d="M0.667969 15.5735L8.25 19.5V10.2L0 6.12823V14.3255C0 14.827 0.250671 15.2953 0.667969 15.5735Z" fill="white"/>
<path d="M18 6.12823L9.75 10.2V19.5L17.332 15.5735C17.7493 15.2953 18 14.827 18 14.3255V6.12823Z" fill="white"/>
<path d="M3.75 33H0.75C0.335816 33 0 33.3357 0 33.75V42H4.5V33.75C4.5 33.3357 4.16418 33 3.75 33Z" fill="white"/>
<path d="M9.75 28.5H6.75C6.33582 28.5 6 28.8357 6 29.25V42H10.5V29.25C10.5 28.8357 10.1642 28.5 9.75 28.5Z" fill="white"/>
<path d="M15.75 22.5H12.75C12.3358 22.5 12 22.8357 12 23.25V42H16.5V23.25C16.5 22.8357 16.1642 22.5 15.75 22.5Z" fill="white"/>
<path d="M21.75 18H18.75C18.3358 18 18 18.3357 18 18.75V42H22.5V18.75C22.5 18.3357 22.1642 18 21.75 18Z" fill="white"/>
<path d="M32.25 19.5C35.3224 19.5 38.063 18.0659 39.8514 15.8343L31.752 10.0385C31.5557 9.89763 31.4385 9.66875 31.4385 9.42659V0.00628662C26.4412 0.421661 22.5 4.62081 22.5 9.73256C22.5 15.1186 26.8736 19.5 32.25 19.5Z" fill="white"/>
<path d="M42 9.73256C42 4.57916 37.9937 0.356384 32.9385 6.10352e-05V9.04061L40.6965 14.5907C41.5209 13.1579 42 11.5018 42 9.73256Z" fill="white"/>
</g>
<defs>
<clipPath id="clip0_401_555">
<rect width="42" height="42" fill="white"/>
</clipPath>
</defs>
</svg>
