<svg width="42" height="32" viewBox="0 0 42 32" fill="none" xmlns="http://www.w3.org/2000/svg">
<g clip-path="url(#clip0_401_614)">
<path d="M15.9961 14.7692C16.6745 14.7692 17.2266 15.3214 17.2266 16C17.2266 16.6786 16.6745 17.2308 15.9961 17.2308C15.3177 17.2308 14.7656 16.6786 14.7656 16C14.7656 15.3214 15.3177 14.7692 15.9961 14.7692Z" fill="white"/>
<path d="M17.2266 9.96921V12.5194C16.8418 12.3823 16.4276 12.3077 15.9961 12.3077C13.9609 12.3077 12.3047 13.9643 12.3047 16C12.3047 18.0357 13.9609 19.6923 15.9961 19.6923C16.4276 19.6923 16.8418 19.6176 17.2266 19.4806V22.0307C16.8238 22.1128 16.412 22.1538 15.9961 22.1538C12.6041 22.1538 9.84375 19.3928 9.84375 16C9.84375 12.6072 12.6041 9.84613 15.9961 9.84613C16.412 9.84613 16.8238 9.88716 17.2266 9.96921Z" fill="white"/>
<path d="M7.38281 16C7.38281 20.7508 11.2465 24.6154 15.9961 24.6154C16.4104 24.6154 16.8213 24.5867 17.2266 24.5276V32H13.5352C12.8559 32 12.3047 31.4486 12.3047 30.7692V29.0265C11.2982 28.7401 10.3277 28.3348 9.40324 27.8154L8.16539 29.0544C7.68469 29.5352 6.90621 29.5352 6.42551 29.0544L2.94492 25.5729C2.46405 25.0919 2.46594 24.3117 2.94492 23.8326L4.18359 22.5936C3.66352 21.6697 3.2591 20.6991 2.97281 19.6923H1.23047C0.55125 19.6923 0 19.1409 0 18.4615V13.5385C0 12.8591 0.55125 12.3077 1.23047 12.3077H2.97281C3.2591 11.3009 3.66352 10.3303 4.18359 9.40554L2.94492 8.16738C2.46594 7.68829 2.46405 6.90806 2.94492 6.42708L6.42551 2.94564C6.90621 2.46482 7.68469 2.46482 8.16539 2.94564L9.40406 4.18462C10.3277 3.66441 11.2982 3.2599 12.3047 2.97354V1.23077C12.3047 0.551385 12.8559 0 13.5352 0H17.2266V7.47241C16.8213 7.41333 16.4104 7.38462 15.9961 7.38462C11.2465 7.38462 7.38281 11.2492 7.38281 16Z" fill="white"/>
<path d="M34.6172 0.72041V7.38462H41.2798L34.6172 0.72041ZM23.3789 7.38462H28.4648C29.1441 7.38462 29.6953 7.936 29.6953 8.61539C29.6953 9.29477 29.1441 9.84615 28.4648 9.84615H23.3789C22.6997 9.84615 22.1484 9.29477 22.1484 8.61539C22.1484 7.936 22.6997 7.38462 23.3789 7.38462ZM35.8477 24.6154H23.3789C22.6997 24.6154 22.1484 24.064 22.1484 23.3846C22.1484 22.7052 22.6997 22.1538 23.3789 22.1538H35.8477C36.5269 22.1538 37.0781 22.7052 37.0781 23.3846C37.0781 24.064 36.5269 24.6154 35.8477 24.6154ZM35.8477 19.6923H23.3789C22.6997 19.6923 22.1484 19.1409 22.1484 18.4615C22.1484 17.7822 22.6997 17.2308 23.3789 17.2308H35.8477C36.5269 17.2308 37.0781 17.7822 37.0781 18.4615C37.0781 19.1409 36.5269 19.6923 35.8477 19.6923ZM35.8477 14.7692H23.3789C22.6997 14.7692 22.1484 14.2178 22.1484 13.5385C22.1484 12.8591 22.6997 12.3077 23.3789 12.3077H35.8477C36.5269 12.3077 37.0781 12.8591 37.0781 13.5385C37.0781 14.2178 36.5269 14.7692 35.8477 14.7692ZM33.3867 9.84615C32.7075 9.84615 32.1562 9.29477 32.1562 8.61539V0H19.6875V32H40.7695C41.4487 32 42 31.4486 42 30.7692V9.84615H33.3867Z" fill="white"/>
</g>
<defs>
<clipPath id="clip0_401_614">
<rect width="42" height="32" fill="white"/>
</clipPath>
</defs>
</svg>
