<svg width="42" height="41" viewBox="0 0 42 41" fill="none" xmlns="http://www.w3.org/2000/svg">
<g clip-path="url(#clip0_401_725)">
<path fill-rule="evenodd" clip-rule="evenodd" d="M41.2685 10.1876C41.4004 10.0889 41.5772 10.0728 41.7251 10.1459C41.8728 10.2191 41.9663 10.369 41.9663 10.533V40.5032C41.9663 40.6179 41.9203 40.7279 41.8387 40.809C41.757 40.8902 41.6461 40.9357 41.5306 40.9357H1.44323C1.25588 40.9357 1.08945 40.8168 1.03002 40.6404C0.970597 40.464 1.03142 40.2696 1.18112 40.1578L41.2685 10.1876ZM35.6876 22.1288V22.7406C35.6876 23.1226 36 23.4326 36.3847 23.4326C36.7695 23.4326 37.0818 23.1226 37.0818 22.7406V20.4147C37.0818 20.0325 36.7698 19.7227 36.3847 19.7227H34.0416C33.6568 19.7227 33.3445 20.0327 33.3445 20.4147C33.3445 20.7966 33.6568 21.1067 34.0416 21.1067H34.7375L15.771 35.2865C15.4636 35.5162 15.402 35.9504 15.6335 36.2555C15.865 36.5606 16.3024 36.6217 16.6097 36.392L35.6876 22.1288ZM37.1215 27.4956V28.183C37.1215 28.5649 37.4339 28.875 37.8186 28.875C38.2033 28.875 38.5157 28.5649 38.5157 28.183V25.857C38.5157 25.4748 38.2036 25.165 37.8186 25.165H35.4754C35.0907 25.165 34.7783 25.4751 34.7783 25.857C34.7783 26.2389 35.0907 26.549 35.4754 26.549H36.0702L21.8768 37.1604C21.5695 37.3901 21.5079 37.8243 21.7393 38.1294C21.9709 38.4345 22.4083 38.4955 22.7155 38.2658L37.1215 27.4956ZM9.3198 26.9367H12.9405C12.8171 27.4159 12.3773 27.7746 11.8582 27.7746H10.4044C9.88523 27.7746 9.4437 27.4159 9.3198 26.9367ZM8.17255 24.7146H14.0898C13.9661 25.1952 13.5244 25.5527 13.0051 25.5527H9.25749C8.73615 25.5527 8.29576 25.1952 8.17255 24.7146ZM7.01903 22.0602H15.2413L15.2411 22.2197C15.2411 22.8313 14.7381 23.3306 14.1243 23.3306H8.13822C7.52216 23.3306 7.01903 22.8313 7.01903 22.2197V22.0602ZM9.24573 20.6762H7.01903C6.68904 15.0823 4.24529 15.3091 4.24529 11.5134C4.24529 7.73836 7.32828 4.67798 11.1313 4.67798C14.9342 4.67798 18.0172 7.73836 18.0172 11.5134C18.0172 15.3091 15.5734 15.0823 15.2435 20.6762H13.0168V13.8432H13.9211C15.1836 13.8432 16.2175 12.817 16.2175 11.5638C16.2175 10.3076 15.1833 9.28209 13.9211 9.28209C12.6559 9.28209 11.6226 10.3079 11.6226 11.5638V12.4592H10.6399V11.5638C10.6399 10.3079 9.60656 9.28209 8.34133 9.28209C7.07916 9.28209 6.04502 10.3076 6.04502 11.5638C6.04502 12.817 7.0789 13.8432 8.34133 13.8432H9.24573V20.6762ZM11.6226 20.6762H10.6399V13.8432H11.6226V20.6762ZM13.0168 12.4592V11.5638C13.0168 11.0697 13.4233 10.6661 13.9211 10.6661C14.4174 10.6661 14.8233 11.0699 14.8233 11.5638C14.8233 12.0562 14.4171 12.4592 13.9211 12.4592H13.0168ZM9.24573 12.4592H8.34133C7.84535 12.4592 7.43921 12.0562 7.43921 11.5638C7.43921 11.0699 7.84509 10.6661 8.34133 10.6661C8.83915 10.6661 9.24573 11.0697 9.24573 11.5638V12.4592ZM11.8284 2.36667C11.8284 2.74856 11.516 3.05865 11.1313 3.05865C10.7465 3.05865 10.4342 2.74856 10.4342 2.36667V0.756253C10.4342 0.374365 10.7465 0.06427 11.1313 0.06427C11.516 0.06427 11.8284 0.374365 11.8284 0.756253V2.36667ZM6.54074 3.4024C6.73287 3.73325 6.6182 4.15674 6.2849 4.34747C5.95152 4.5382 5.52498 4.42437 5.33285 4.09351L4.52282 2.69848C4.33077 2.36754 4.44536 1.94404 4.77874 1.7534C5.11204 1.56267 5.53866 1.6765 5.7308 2.00736L6.54074 3.4024ZM2.48495 6.9239C2.81807 7.11506 2.93222 7.53864 2.73965 7.86932C2.54717 8.19992 2.12037 8.31323 1.78733 8.12215L0.381987 7.31582C0.0488626 7.12466 -0.0652868 6.70108 0.127286 6.3704C0.319771 6.03972 0.746568 5.92649 1.07961 6.11757L2.48495 6.9239ZM16.9269 4.09421C16.7344 4.42489 16.3077 4.5382 15.9745 4.34704C15.6415 4.15597 15.5273 3.7323 15.7198 3.40162L16.5321 2.00658C16.7247 1.67599 17.1514 1.56267 17.4845 1.75383C17.8177 1.94491 17.9317 2.36849 17.7392 2.69917L16.9269 4.09421ZM20.4757 8.1219C20.1426 8.31323 19.7158 8.20026 19.5231 7.86975C19.3303 7.53916 19.4441 7.11549 19.7771 6.92416L21.1801 6.11783C21.5131 5.92649 21.9399 6.03946 22.1327 6.36997C22.3254 6.70047 22.2116 7.12423 21.8787 7.31556L20.4757 8.1219Z" fill="white"/>
</g>
<defs>
<clipPath id="clip0_401_725">
<rect width="42" height="41" fill="white"/>
</clipPath>
</defs>
</svg>
