<svg width="42" height="42" viewBox="0 0 42 42" fill="none" xmlns="http://www.w3.org/2000/svg">
<g clip-path="url(#clip0_401_346)">
<path fill-rule="evenodd" clip-rule="evenodd" d="M15.6937 34.3375H6.71099C5.28299 34.3375 4.11408 33.1685 4.11408 31.7405V22.4H6.28469V29.9641H27.3394C27.1843 30.1916 27.0962 30.4647 27.0962 30.7526V32.3984C27.0962 32.9775 27.4529 33.4968 27.9934 33.7049L28.3647 33.8478C28.4254 34.0137 28.4928 34.1771 28.5666 34.3375H26.3085V38.4632H30.2601C31.4772 38.4632 32.4743 39.2586 32.4743 40.2305V42H9.52796V40.2305C9.52796 39.2586 10.525 38.4632 11.7421 38.4632H15.6937V34.3375ZM22.2239 0C26.2626 0 29.5416 3.27897 29.5416 7.31771C29.5416 11.3565 26.2626 14.6355 22.2239 14.6355C18.185 14.6355 14.9061 11.3565 14.9061 7.31771C14.9061 3.27897 18.185 0 22.2239 0ZM25.18 6.37368L21.5762 4.29301C21.239 4.09833 20.8233 4.09833 20.4861 4.29301C20.1488 4.48779 19.941 4.84767 19.941 5.23714V9.39838C19.941 9.78784 20.1488 10.1477 20.4861 10.3424C20.8233 10.5372 21.239 10.5372 21.5762 10.3424L25.18 8.26184C25.5173 8.06715 25.725 7.70726 25.725 7.31771C25.725 6.92825 25.5173 6.56836 25.18 6.37368ZM20.3764 22.9089C22.2326 23.6155 24.4135 23.2214 25.9078 21.727C26.181 21.4539 26.6246 21.4539 26.8978 21.727C27.1709 22.0002 27.1709 22.4437 26.8978 22.717C24.9631 24.6517 22.1218 25.1331 19.736 24.1613C19.6988 24.3581 19.5779 24.5375 19.3896 24.6428C19.0524 24.8313 18.6256 24.7104 18.4371 24.3732L17.4338 22.5776C17.3118 22.3593 17.3155 22.0925 17.4436 21.8777C17.5717 21.6629 17.8047 21.5327 18.0547 21.5362L20.1113 21.5651C20.4977 21.5705 20.8069 21.8886 20.8015 22.2749C20.7974 22.5601 20.623 22.8034 20.3764 22.9089ZM9.94473 2.22897C9.83185 2.0636 9.79037 1.85115 9.84909 1.6436C9.95435 1.27181 10.3415 1.05542 10.7133 1.16069L12.6924 1.72086C12.933 1.78902 13.119 1.9803 13.1804 2.22276C13.2417 2.46522 13.169 2.72195 12.9897 2.89625L11.515 4.33011C11.2381 4.59944 10.7945 4.59323 10.5252 4.3162C10.3262 4.11163 10.2777 3.81614 10.3775 3.5672C8.71325 4.31358 7.51179 5.90984 7.32673 7.80229C7.2891 8.18676 6.94645 8.46842 6.56189 8.4308C6.17741 8.39326 5.89575 8.05052 5.93337 7.66605C6.17339 5.21132 7.76046 3.14904 9.94473 2.22897ZM36.5782 5.17711C36.7437 5.06424 36.9561 5.02276 37.1636 5.08147C37.5353 5.18674 37.7517 5.57392 37.6465 5.94571L37.0863 7.92479C37.0182 8.16541 36.8269 8.35144 36.5844 8.41278C36.342 8.47411 36.0853 8.4014 35.9109 8.22211L34.477 6.74739C34.2077 6.47045 34.2139 6.02691 34.4909 5.75759C34.6955 5.5587 34.9909 5.51005 35.2398 5.6098C34.4269 3.79767 32.6062 2.53418 30.4928 2.53418C30.1065 2.53418 29.7928 2.22058 29.7928 1.83418C29.7928 1.44786 30.1065 1.13417 30.4928 1.13417C33.2289 1.13417 35.5783 2.8028 36.5782 5.17711ZM0 16.7556V10.8974C0 10.4585 0.360762 10.0977 0.79975 10.0977H11.702C12.141 10.0977 12.5017 10.4585 12.5017 10.8974V16.4648L10.2726 13.4838C10.1543 13.3256 9.97465 13.2247 9.77804 13.206C9.58134 13.1874 9.38595 13.2527 9.24009 13.3859L5.98588 16.3564L4.22082 14.3681C3.97819 14.0948 3.56597 14.0542 3.27469 14.2748L0 16.7556ZM6.00723 14.4868C6.49075 14.4868 6.88511 14.0926 6.88511 13.609C6.88511 13.1255 6.49075 12.7275 6.00723 12.7275C5.51994 12.7275 5.12566 13.1255 5.12566 13.609C5.12566 14.0926 5.51994 14.4868 6.00723 14.4868ZM12.5017 18.8026V20.1966C12.5017 20.6392 12.141 21 11.702 21H0.79975C0.360762 21 0 20.6392 0 20.1966V18.5119L3.60378 15.7818L4.9518 17.3003L4.33387 17.8643C4.04854 18.1248 4.02833 18.5679 4.28881 18.8533C4.54921 19.1386 4.9924 19.1588 5.27774 18.8983L9.61371 14.9404L12.5017 18.8026ZM38.9527 10.1211C39.0059 10.1412 39.0537 10.1692 39.0978 10.2063L41.8756 12.5499C41.9197 12.5871 41.9527 12.6274 41.9765 12.6724H39.2007C39.0647 12.6724 38.9527 12.5778 38.9527 12.4632V10.1211ZM36.4183 24.5284H37.8859V25.3539C37.8331 25.3703 37.7807 25.3898 37.7292 25.4127L37.3662 25.5742C37.1978 25.4958 37.0263 25.4247 36.8519 25.361L36.7094 24.9899C36.6421 24.8149 36.5423 24.6592 36.4183 24.5284ZM30.5459 13.4564H28.4114C29.0423 12.8206 29.576 12.0881 29.9881 11.2835H30.5459V13.4564ZM13.9017 11.2835H14.4595C14.8718 12.0881 15.4054 12.8206 16.0362 13.4564H13.9017V11.2835ZM35.7904 26.5014C36.3274 26.629 36.8395 26.8412 37.3102 27.1312L38.298 26.692L39.4614 27.8554L39.0239 28.8432C39.3139 29.314 39.5261 29.826 39.6537 30.3647L40.6614 30.7526V32.3984L39.6537 32.7862C39.5261 33.3232 39.3123 33.8353 39.0239 34.306L39.4614 35.2937L38.298 36.4572L37.3102 36.0197C36.8412 36.3097 36.3274 36.5219 35.7904 36.6495L35.4025 37.6572H33.7568L33.3689 36.6495C32.8303 36.5219 32.3181 36.3081 31.8475 36.0197L30.8597 36.4572L29.6962 35.2937L30.1353 34.306C29.8454 33.8369 29.6332 33.3232 29.5039 32.7862L28.4962 32.3984V30.7526L29.5039 30.3647C29.6332 29.826 29.8454 29.314 30.1353 28.8432L29.6962 27.8554L30.8597 26.692L31.8475 27.1312C32.3181 26.8412 32.8303 26.629 33.3672 26.5014L33.7568 25.4921H35.4025L35.7904 26.5014ZM34.5789 28.704C32.9928 28.704 31.7083 29.9885 31.7083 31.5746C31.7083 33.1607 32.9928 34.4468 34.5789 34.4468C36.165 34.4468 37.451 33.1607 37.451 31.5746C37.451 29.9885 36.165 28.704 34.5789 28.704ZM42 14.0722V22.866C42 23.0104 41.882 23.1284 41.7376 23.1284H32.2094C32.064 23.1284 31.9459 23.0104 31.9459 22.866V10.3611C31.9459 10.2157 32.064 10.0977 32.2094 10.0977H37.5529C37.5527 10.1055 37.5527 10.1133 37.5527 10.1211V12.4632C37.5527 13.2773 38.2357 14.0724 39.2007 14.0724H41.9765C41.9844 14.0724 41.9922 14.0723 42 14.0722ZM34.4714 13.4961H36.3927C36.779 13.4961 37.0927 13.1824 37.0927 12.7961C37.0927 12.4098 36.779 12.0961 36.3927 12.0961H34.4714C34.0851 12.0961 33.7714 12.4098 33.7714 12.7961C33.7714 13.1824 34.0851 13.4961 34.4714 13.4961ZM34.4714 18.5854H39.4745C39.8608 18.5854 40.1745 18.2717 40.1745 17.8854C40.1745 17.4991 39.8608 17.1854 39.4745 17.1854H34.4714C34.0851 17.1854 33.7714 17.4991 33.7714 17.8854C33.7714 18.2717 34.0851 18.5854 34.4714 18.5854ZM34.4714 16.0408H39.4745C39.8608 16.0408 40.1745 15.7271 40.1745 15.3408C40.1745 14.9544 39.8608 14.6408 39.4745 14.6408H34.4714C34.0851 14.6408 33.7714 14.9544 33.7714 15.3408C33.7714 15.7271 34.0851 16.0408 34.4714 16.0408ZM34.4714 21.1301H39.4745C39.8608 21.1301 40.1745 20.8164 40.1745 20.4301C40.1745 20.0437 39.8608 19.7301 39.4745 19.7301H34.4714C34.0851 19.7301 33.7714 20.0437 33.7714 20.4301C33.7714 20.8164 34.0851 21.1301 34.4714 21.1301Z" fill="white"/>
</g>
<defs>
<clipPath id="clip0_401_346">
<rect width="42" height="42" fill="white"/>
</clipPath>
</defs>
</svg>
