<svg width="42" height="42" viewBox="0 0 42 42" fill="none" xmlns="http://www.w3.org/2000/svg">
<path d="M41.1092 20.6955L31.9217 17.57C31.6487 17.4755 31.3513 17.4755 31.0783 17.57L21.8907 20.6955C21.357 20.8758 21 21.3745 21 21.938V28.9695C21 37.5515 30.5795 41.7235 30.9873 41.8968C31.1518 41.965 31.325 42 31.5 42C31.675 42 31.8482 41.965 32.0127 41.895C32.4205 41.7218 42 37.5515 42 28.9695V21.938C42 21.3745 41.643 20.8758 41.1092 20.6955ZM37.2505 27.3315L32.438 33.4565C31.8255 34.2388 30.6775 34.3525 29.9233 33.705L26.8608 31.08C26.1258 30.4518 26.04 29.3458 26.6718 28.6125C27.3 27.8793 28.406 27.7953 29.1375 28.4235L30.814 29.8603L34.4977 25.172C35.0945 24.4125 36.1935 24.2778 36.9548 24.878C37.716 25.4713 37.849 26.572 37.2505 27.3315Z" fill="white"/>
<path d="M33.25 0H5.25C2.35025 0 0 2.35025 0 5.25C0 8.14975 2.35025 10.5 5.25 10.5H33.25C36.1497 10.5 38.5 8.14975 38.5 5.25C38.5 2.35025 36.1497 0 33.25 0ZM5.25 7C4.284 7 3.5 6.216 3.5 5.25C3.5 4.284 4.284 3.5 5.25 3.5C6.216 3.5 7 4.284 7 5.25C7 6.216 6.216 7 5.25 7ZM12.25 7C11.284 7 10.5 6.216 10.5 5.25C10.5 4.284 11.284 3.5 12.25 3.5C13.216 3.5 14 4.284 14 5.25C14 6.216 13.216 7 12.25 7Z" fill="white"/>
<path d="M5.25 14C2.345 14 0 16.345 0 19.25C0 22.155 2.345 24.5 5.25 24.5H17.5V21.945C17.5 19.88 18.8125 18.0425 20.7725 17.3775L29.9425 14.2625C30.45 14.0875 30.975 14 31.5 14H5.25ZM5.25 21C4.2875 21 3.5 20.2125 3.5 19.25C3.5 18.2875 4.2875 17.5 5.25 17.5C6.2125 17.5 7 18.2875 7 19.25C7 20.2125 6.2125 21 5.25 21ZM12.25 21C11.2875 21 10.5 20.2125 10.5 19.25C10.5 18.2875 11.2875 17.5 12.25 17.5C13.2125 17.5 14 18.2875 14 19.25C14 20.2125 13.2125 21 12.25 21Z" fill="white"/>
<path d="M17.5 28.9625V28H5.25C2.345 28 0 30.345 0 33.25C0 36.155 2.345 38.5 5.25 38.5H20.9475C18.935 35.945 17.5 32.7425 17.5 28.9625ZM5.25 35C4.2875 35 3.5 34.2125 3.5 33.25C3.5 32.2875 4.2875 31.5 5.25 31.5C6.2125 31.5 7 32.2875 7 33.25C7 34.2125 6.2125 35 5.25 35ZM12.25 35C11.2875 35 10.5 34.2125 10.5 33.25C10.5 32.2875 11.2875 31.5 12.25 31.5C13.2125 31.5 14 32.2875 14 33.25C14 34.2125 13.2125 35 12.25 35Z" fill="white"/>
</svg>
