<svg width="42" height="42" viewBox="0 0 42 42" fill="none" xmlns="http://www.w3.org/2000/svg">
<g clip-path="url(#clip0_401_99)">
<path d="M21 6.65747C13.0915 6.65747 6.65747 13.0915 6.65747 21C6.65747 28.9085 13.0915 35.3426 21 35.3426C28.9085 35.3426 35.3426 28.9085 35.3426 21C35.3426 13.0915 28.9085 6.65747 21 6.65747ZM18.4104 8.28144C18.6276 8.23747 18.8496 8.19842 19.0703 8.16527C19.1876 8.14774 19.3069 8.1775 19.4022 8.24798C19.4975 8.31847 19.5608 8.42392 19.5784 8.54113C19.5959 8.65834 19.5661 8.77771 19.4957 8.87298C19.4252 8.96825 19.3197 9.03162 19.2025 9.04915C18.997 9.0798 18.79 9.11626 18.5879 9.15719C18.4724 9.17908 18.353 9.15459 18.2554 9.08904C18.1579 9.02348 18.0901 8.92213 18.0667 8.80694C18.0434 8.69175 18.0664 8.57201 18.1307 8.47365C18.195 8.37529 18.2955 8.30623 18.4104 8.28144ZM16.2728 9.87619C14.7563 10.5243 13.3877 11.4747 12.2508 12.6694C11.1138 13.8641 10.2323 15.2779 9.66002 16.8247C9.61908 16.9359 9.53564 17.0263 9.42805 17.076C9.32046 17.1257 9.19754 17.1306 9.08632 17.0896C8.97511 17.0487 8.88471 16.9653 8.83503 16.8577C8.78534 16.7501 8.78042 16.6272 8.82136 16.5159C9.43599 14.855 10.3827 13.3367 11.6037 12.0538C12.8246 10.7708 14.2943 9.75024 15.9229 9.05424C15.977 9.03001 16.0355 9.01683 16.0948 9.01545C16.1542 9.01407 16.2132 9.02453 16.2685 9.04622C16.3237 9.0679 16.3741 9.10038 16.4167 9.14176C16.4592 9.18313 16.4931 9.23257 16.5163 9.28718C16.5396 9.3418 16.5517 9.4005 16.552 9.45986C16.5523 9.51921 16.5408 9.57803 16.5181 9.63288C16.4954 9.68774 16.462 9.73752 16.4199 9.77932C16.3778 9.82113 16.3277 9.85412 16.2727 9.87637L16.2728 9.87619ZM24.6345 18.6587C24.6345 18.7772 24.5874 18.8908 24.5036 18.9746C24.4198 19.0584 24.3061 19.1055 24.1876 19.1055C24.0691 19.1055 23.9555 19.0584 23.8717 18.9746C23.7879 18.8908 23.7408 18.7772 23.7408 18.6587V18.2387C23.7409 17.9346 23.6597 17.636 23.5056 17.3738C23.3516 17.1116 23.1303 16.8953 22.8646 16.7474C22.599 16.5994 22.2986 16.525 21.9946 16.5321C21.6906 16.5391 21.3939 16.6272 21.1354 16.7873C20.5648 17.1416 20.2733 17.8607 20.3816 18.5488C20.4705 19.1135 20.5384 19.7316 20.5717 20.308H21.7826C21.8412 20.308 21.8993 20.3196 21.9536 20.342C22.0078 20.3645 22.057 20.3974 22.0985 20.4389C22.14 20.4804 22.1729 20.5296 22.1954 20.5838C22.2178 20.638 22.2294 20.6961 22.2294 20.7548C22.2294 20.8135 22.2178 20.8716 22.1954 20.9258C22.1729 20.98 22.14 21.0293 22.0985 21.0708C22.057 21.1122 22.0078 21.1452 21.9536 21.1676C21.8993 21.1901 21.8412 21.2016 21.7826 21.2016H20.6005C20.603 21.5126 20.5975 21.824 20.584 22.1357C20.5439 23.0235 20.1597 23.8607 19.513 24.4701C19.9162 24.5771 20.2985 24.7512 20.6439 24.9852C21.0574 25.2644 21.5376 25.4287 22.0354 25.4615C22.5333 25.4942 23.0309 25.3942 23.4774 25.1717L23.9579 24.9319C24.0638 24.8801 24.1859 24.8722 24.2976 24.91C24.4092 24.9478 24.5015 25.0282 24.5541 25.1337C24.6068 25.2392 24.6156 25.3612 24.5787 25.4732C24.5417 25.5851 24.4621 25.678 24.357 25.7315L23.8766 25.9712C23.2883 26.2644 22.6327 26.3961 21.9768 26.3529C21.3209 26.3097 20.6882 26.0932 20.1434 25.7255C19.8386 25.5183 19.496 25.3734 19.135 25.299C18.7741 25.2247 18.402 25.2224 18.0402 25.2922C17.9975 25.3036 17.9544 25.3144 17.911 25.3241C17.8535 25.3376 17.794 25.3395 17.7358 25.3298C17.6776 25.3201 17.622 25.2989 17.572 25.2676C17.522 25.2363 17.4787 25.1953 17.4446 25.1472C17.4106 25.0991 17.3864 25.0446 17.3734 24.9871C17.3605 24.9295 17.3591 24.87 17.3692 24.8119C17.3794 24.7538 17.401 24.6983 17.4328 24.6486C17.4645 24.5989 17.5058 24.5559 17.5542 24.5222C17.6026 24.4886 17.6573 24.4648 17.7149 24.4523C18.2569 24.3302 18.7438 24.0336 19.1008 23.608C19.4579 23.1824 19.6654 22.6513 19.6914 22.0964C19.7046 21.7979 19.7098 21.4997 19.707 21.2016H18.2486C18.1301 21.2016 18.0164 21.1545 17.9326 21.0708C17.8488 20.987 17.8018 20.8733 17.8018 20.7548C17.8018 20.6363 17.8488 20.5227 17.9326 20.4389C18.0164 20.3551 18.1301 20.308 18.2486 20.308H19.6757C19.6435 19.7784 19.5802 19.2067 19.4986 18.6877C19.3342 17.644 19.7873 16.5723 20.6637 16.0282C21.0575 15.7841 21.5095 15.6497 21.9727 15.6388C22.436 15.628 22.8937 15.7411 23.2986 15.9665C23.7034 16.1919 24.0407 16.5214 24.2755 16.9209C24.5103 17.3204 24.634 17.7754 24.634 18.2387L24.6345 18.6587Z" fill="white"/>
<path d="M39.8576 20.5532H41.9945C41.8976 15.2909 39.8137 10.26 36.1613 6.47048L34.6502 7.9815C34.609 8.02417 34.5597 8.05821 34.5052 8.08163C34.4506 8.10505 34.392 8.11737 34.3327 8.11789C34.2734 8.11841 34.2145 8.1071 34.1596 8.08463C34.1047 8.06217 34.0548 8.02899 34.0129 7.98704C33.9709 7.94509 33.9377 7.8952 33.9153 7.84029C33.8928 7.78538 33.8815 7.72654 33.882 7.66722C33.8825 7.60789 33.8949 7.54926 33.9183 7.49475C33.9417 7.44023 33.9757 7.39093 34.0184 7.34971L35.5294 5.8387C31.7399 2.18619 26.709 0.10233 21.4467 0.00543213V2.14234C21.4467 2.26084 21.3997 2.37449 21.3159 2.45828C21.2321 2.54207 21.1184 2.58915 20.9999 2.58915C20.8814 2.58915 20.7678 2.54207 20.684 2.45828C20.6002 2.37449 20.5531 2.26084 20.5531 2.14234V0.00543213C15.2908 0.10233 10.2599 2.18619 6.47042 5.8387L7.98144 7.34971C8.02411 7.39093 8.05815 7.44023 8.08157 7.49475C8.10499 7.54926 8.11731 7.60789 8.11783 7.66722C8.11834 7.72654 8.10704 7.78538 8.08457 7.84029C8.06211 7.8952 8.02893 7.94509 7.98698 7.98704C7.94503 8.02899 7.89514 8.06217 7.84023 8.08463C7.78532 8.1071 7.72648 8.11841 7.66715 8.11789C7.60783 8.11737 7.5492 8.10505 7.49468 8.08163C7.44017 8.05821 7.39087 8.02417 7.34965 7.9815L5.83855 6.47048C2.18611 10.26 0.102289 15.2909 0.00537109 20.5532H2.14228C2.26078 20.5532 2.37443 20.6002 2.45822 20.684C2.54201 20.7678 2.58909 20.8815 2.58909 21C2.58909 21.1185 2.54201 21.2321 2.45822 21.3159C2.37443 21.3997 2.26078 21.4468 2.14228 21.4468H0.00537109C0.102289 26.7091 2.18611 31.7399 5.83855 35.5295L7.34965 34.0185C7.39087 33.9758 7.44017 33.9417 7.49468 33.9183C7.5492 33.8949 7.60783 33.8826 7.66715 33.8821C7.72648 33.8816 7.78532 33.8929 7.84023 33.9153C7.89514 33.9378 7.94503 33.971 7.98698 34.0129C8.02893 34.0549 8.06211 34.1048 8.08457 34.1597C8.10704 34.2146 8.11834 34.2734 8.11783 34.3327C8.11731 34.3921 8.10499 34.4507 8.08157 34.5052C8.05815 34.5597 8.02411 34.609 7.98144 34.6502L6.47042 36.1613C10.2599 39.8138 15.2908 41.8976 20.5531 41.9945V39.8576C20.5531 39.7391 20.6002 39.6255 20.684 39.5417C20.7678 39.4579 20.8814 39.4108 20.9999 39.4108C21.1184 39.4108 21.2321 39.4579 21.3159 39.5417C21.3997 39.6255 21.4467 39.7391 21.4467 39.8576V41.9945C26.709 41.8976 31.7399 39.8138 35.5294 36.1613L34.0184 34.6502C33.9757 34.609 33.9417 34.5597 33.9183 34.5052C33.8949 34.4507 33.8825 34.3921 33.882 34.3327C33.8815 34.2734 33.8928 34.2146 33.9153 34.1597C33.9377 34.1048 33.9709 34.0549 34.0129 34.0129C34.0548 33.971 34.1047 33.9378 34.1596 33.9153C34.2145 33.8929 34.2734 33.8816 34.3327 33.8821C34.392 33.8826 34.4506 33.8949 34.5052 33.9183C34.5597 33.9417 34.609 33.9758 34.6502 34.0185L36.1613 35.5295C39.8137 31.7399 41.8976 26.7091 41.9945 21.4468H39.8576C39.7391 21.4468 39.6254 21.3997 39.5416 21.3159C39.4578 21.2321 39.4108 21.1185 39.4108 21C39.4108 20.8815 39.4578 20.7678 39.5416 20.684C39.6254 20.6002 39.7391 20.5532 39.8576 20.5532ZM20.9999 38.7383C11.219 38.7383 3.26162 30.7809 3.26162 21C3.26162 11.2191 11.219 3.26168 20.9999 3.26168C30.7808 3.26168 38.7382 11.2191 38.7382 21C38.7382 30.7809 30.7808 38.7383 20.9999 38.7383Z" fill="white"/>
<path d="M21 4.15533C11.7118 4.15533 4.15527 11.7118 4.15527 21C4.15527 30.2882 11.7118 37.8447 21 37.8447C30.2881 37.8447 37.8446 30.2882 37.8446 21C37.8446 11.7118 30.2881 4.15533 21 4.15533ZM21 36.2362C12.5987 36.2362 5.76378 29.4013 5.76378 21C5.76378 12.5988 12.5987 5.76385 21 5.76385C29.4012 5.76385 36.2361 12.5988 36.2361 21C36.2361 29.4013 29.4012 36.2362 21 36.2362Z" fill="white"/>
</g>
<defs>
<clipPath id="clip0_401_99">
<rect width="42" height="42" fill="white"/>
</clipPath>
</defs>
</svg>
