<svg width="42" height="42" viewBox="0 0 42 42" fill="none" xmlns="http://www.w3.org/2000/svg">
<g clip-path="url(#clip0_401_284)">
<path d="M31.8617 1.88906H8.37262V1.76562C8.37262 0.793154 9.16586 0 10.1383 0H35.1111C36.0835 0 36.8768 0.793154 36.8768 1.76562V17.8109H34.9877V5.015C34.9877 3.29173 33.585 1.88906 31.8617 1.88906ZM8.65294 10.123H5.12324V5.015C5.12324 4.04254 5.91647 3.24939 6.88894 3.24939H31.8617C32.8341 3.24939 33.6273 4.04254 33.6273 5.015V17.8109H15.2991L14.1253 16.453H30.3536C30.7292 16.453 31.0337 16.1485 31.0337 15.7729C31.0337 15.3973 30.7292 15.0927 30.3536 15.0927H12.9492L10.5546 12.3228H30.3534C30.729 12.3228 31.0336 12.0183 31.0336 11.6427C31.0336 11.2671 30.729 10.9625 30.3534 10.9625H9.37867L8.65294 10.123ZM8.39711 8.19264H30.3535C30.7291 8.19264 31.0337 7.88809 31.0337 7.51247C31.0337 7.13685 30.7291 6.83231 30.3535 6.83231H8.39711C8.02149 6.83231 7.71695 7.13685 7.71695 7.51247C7.71695 7.88809 8.02149 8.19264 8.39711 8.19264ZM39.0607 14.8987H38.2371V17.8109H41.9997C41.985 16.2068 40.6682 14.8987 39.0607 14.8987ZM42 19.1712V39.0606C42 40.6773 40.6773 42 39.0607 42H2.93932C1.32266 42 0 40.6773 0 39.0606V14.4227C0 12.806 1.32266 11.4833 2.93932 11.4833H8.03076L14.677 19.1713L42 19.1712ZM29.9138 29.0982H28.4211C28.2246 28.1133 27.8372 27.1972 27.2988 26.3905L28.3548 25.3346L26.2512 23.2309L25.1952 24.287C24.3884 23.7486 23.4725 23.361 22.4874 23.1647V21.672H19.5125V23.1647C18.5275 23.3611 17.6115 23.7484 16.8048 24.2869L15.7488 23.2309L13.6452 25.3345L14.7011 26.3905C14.1628 27.1973 13.7751 28.1132 13.5788 29.0982H12.0862V32.0731H13.5788C13.7752 33.0581 14.1627 33.9742 14.7011 34.7809L13.6452 35.8368L15.7488 37.9405L16.8048 36.8845C17.6116 37.4229 18.5275 37.8104 19.5125 38.0068V39.4994H22.4874V38.0068C23.4724 37.8103 24.3884 37.4229 25.1952 36.8845L26.251 37.9405L28.3547 35.8369L27.2987 34.7809C27.8371 33.9742 28.2246 33.0583 28.421 32.0732H29.9137L29.9138 29.0982ZM21.0001 33.0475C19.7079 33.0475 18.5417 33.8131 18.0142 34.9851C18.8653 35.564 19.8931 35.9023 21.0001 35.9023C22.107 35.9023 23.1349 35.564 23.986 34.9851C23.4584 33.8131 22.2922 33.0475 21.0001 33.0475ZM22.4553 30.2318C22.4553 29.4281 21.8039 28.7765 21.0001 28.7765C20.1962 28.7765 19.5448 29.428 19.5448 30.2318C19.5448 31.0356 20.1962 31.687 21.0001 31.687C21.804 31.687 22.4553 31.0357 22.4553 30.2318ZM21 25.2689C18.0637 25.2689 15.6833 27.6493 15.6833 30.5856C15.6833 31.909 16.167 33.1194 16.9671 34.0499C17.4258 33.2396 18.121 32.581 18.9549 32.1669C18.4774 31.6624 18.1845 30.9813 18.1845 30.2318C18.1845 28.677 19.4452 27.4162 21.0001 27.4162C22.5549 27.4162 23.8156 28.677 23.8156 30.2318C23.8156 30.9813 23.5227 31.6624 23.0452 32.1669C23.879 32.581 24.5743 33.2397 25.033 34.0499C25.8331 33.1194 26.3167 31.909 26.3167 30.5856C26.3167 27.6493 23.9363 25.2689 21 25.2689Z" fill="white"/>
</g>
<defs>
<clipPath id="clip0_401_284">
<rect width="42" height="42" fill="white"/>
</clipPath>
</defs>
</svg>
