<svg width="42" height="43" viewBox="0 0 42 43" fill="none" xmlns="http://www.w3.org/2000/svg">
<g clip-path="url(#clip0_401_627)">
<path d="M14.4288 15.5991L16.246 15.9586L17.5547 19.1279L16.523 20.6716C16.3549 20.9229 16.3868 21.2506 16.6001 21.4647L18.9812 23.8537C19.1946 24.0678 19.5211 24.0998 19.7716 23.9312L21.3102 22.8959L24.4689 24.2089L24.8272 26.0323C24.8856 26.3293 25.139 26.5383 25.4408 26.5383H28.8082C29.1099 26.5383 29.3633 26.3293 29.4217 26.0323L29.78 24.209L32.9387 22.8959L34.4773 23.9312C34.7279 24.0998 35.0543 24.0678 35.2676 23.8537L37.6488 21.4647C37.8621 21.2506 37.894 20.923 37.7259 20.6716L36.6942 19.1279L38.0029 15.9586L39.8201 15.5991C40.1161 15.5405 40.3244 15.2862 40.3244 14.9835V11.6048C40.3244 11.302 40.1161 11.0479 39.8201 10.9893L38.0029 10.6299L36.6943 7.4605L37.726 5.9168C37.8941 5.66542 37.8622 5.33776 37.6489 5.12371L35.2676 2.73462C35.0543 2.52057 34.7279 2.48858 34.4773 2.65722L32.9388 3.69241L29.78 2.37936L29.4217 0.556073C29.3633 0.259029 29.1099 0.0500488 28.8082 0.0500488H25.4408C25.139 0.0500488 24.8857 0.259029 24.8273 0.556073L24.469 2.37936L21.3103 3.69241L19.7717 2.65722C19.5212 2.48866 19.1948 2.52066 18.9813 2.73462L16.6001 5.12371C16.3868 5.33776 16.3549 5.66533 16.523 5.9168L17.5547 7.4605L16.246 10.6299L14.4289 10.9893C14.1328 11.0479 13.9245 11.302 13.9245 11.6048V14.9835C13.9245 15.2862 14.1328 15.5405 14.4289 15.5991H14.4288ZM35.0441 11.5335C35.2259 11.5335 35.3973 11.6115 35.513 11.7512L37.1611 13.7455C37.3722 14.0017 37.337 14.3809 37.0826 14.5932C36.8268 14.8058 36.4488 14.7697 36.2372 14.5144L35.734 13.9054C35.4205 18.3963 31.679 21.9538 27.124 21.9538C23.9957 21.9538 21.104 20.2484 19.5804 17.5035C19.4192 17.2138 19.523 16.8465 19.8126 16.6848C20.1014 16.5231 20.4674 16.6272 20.6286 16.9177C21.9407 19.2821 24.4299 20.75 27.1241 20.75C31.0684 20.75 34.305 17.6506 34.5417 13.7516L33.953 14.4986C33.7472 14.7593 33.37 14.8033 33.1106 14.5968C32.8507 14.3904 32.8061 14.0119 33.0118 13.7516L34.5801 11.7623C34.6925 11.6193 34.8632 11.5353 35.0441 11.5335ZM22.3286 13.2942C22.3286 10.6366 24.4758 8.48226 27.1245 8.48226C29.7733 8.48226 31.9205 10.6366 31.9205 13.2942C31.9205 15.9518 29.7733 18.1062 27.1245 18.1062C24.4758 18.1062 22.3286 15.9518 22.3286 13.2942ZM17.1668 11.9953C17.4222 11.7826 17.8002 11.8179 18.0117 12.0745L18.515 12.6826C18.8277 8.19167 22.57 4.63462 27.1241 4.63462C30.2537 4.63462 33.1436 6.33914 34.6686 9.08418C34.8297 9.37477 34.726 9.74122 34.4364 9.9029C34.1476 10.0654 33.7815 9.96052 33.6204 9.67078C32.3078 7.30673 29.819 5.83854 27.1241 5.83854C23.1802 5.83854 19.9436 8.93789 19.7073 12.8365L20.2961 12.09C20.5018 11.8292 20.879 11.7857 21.1389 11.9913C21.3984 12.1974 21.443 12.5771 21.2372 12.8374L19.6685 14.8267C19.5566 14.9693 19.3859 15.0527 19.205 15.0552H19.1979C19.019 15.0552 18.8501 14.9752 18.736 14.8367L17.088 12.8428C16.8769 12.587 16.912 12.2069 17.1669 11.9955L17.1668 11.9953ZM29.5705 12.3554L26.699 15.2364C26.3718 15.5643 25.8204 15.4907 25.5888 15.0895L24.5678 13.3153C24.3726 12.9771 24.4876 12.544 24.8247 12.3481C25.1618 12.1522 25.5934 12.2676 25.7887 12.6059L26.3496 13.5807L28.5707 11.3522C28.8468 11.0752 29.2945 11.0752 29.5706 11.3522C29.8466 11.6292 29.8466 12.0783 29.5706 12.3553L29.5705 12.3554ZM41.5471 29.2923C40.6496 30.4758 35.5055 33.609 32.5458 35.182C29.9461 36.5638 28.1317 37.37 25.1711 37.4356C23.0523 37.4826 20.7428 37.2023 18.8077 37.0861C16.2922 36.9351 13.9433 36.9551 11.8249 37.9552C11.7993 37.9275 11.7732 37.8999 11.7463 37.8728L5.0598 31.1642C5.05328 31.1576 5.0466 31.1513 5.04008 31.1449C14.7787 19.6024 15.4334 28.547 27.0367 28.547C29.0101 28.4722 29.4937 30.8306 27.852 31.4299C27.3001 31.6314 26.5563 31.7265 25.7481 31.7464C23.6372 31.7982 21.2085 31.3013 20.248 30.7998C19.9094 30.6232 19.4333 30.7604 19.2574 31.1001C19.0814 31.4398 19.1612 31.9083 19.6401 32.1581C20.7499 32.7375 23.482 33.3135 25.81 33.2564C30.3579 33.1144 35.7817 29.1258 39.2143 27.1375C41.1733 26.0028 42.8313 27.5982 41.5471 29.2923ZM10.7095 38.9132C11.2616 39.4671 11.2616 40.3736 10.7095 40.9276L8.69417 42.9497L0 34.2266L2.0154 32.2045C2.56748 31.6506 3.47091 31.6506 4.02308 32.2045L10.7096 38.9132H10.7095Z" fill="white"/>
</g>
<defs>
<clipPath id="clip0_401_627">
<rect width="42" height="43" fill="white"/>
</clipPath>
</defs>
</svg>
