<svg width="42" height="50" viewBox="0 0 42 50" fill="none" xmlns="http://www.w3.org/2000/svg">
<g clip-path="url(#clip0_401_72)">
<path fill-rule="evenodd" clip-rule="evenodd" d="M20.9999 7.78374C23.1686 7.78374 24.9266 6.05615 24.9266 3.92513C24.9266 1.794 23.1686 0.0664062 20.9999 0.0664062C18.8314 0.0664062 17.0734 1.794 17.0734 3.92513C17.0735 6.05627 18.8314 7.78374 20.9999 7.78374ZM15.3022 39.5767L20.1714 36.8139C20.2043 36.7953 20.2233 36.7632 20.2233 36.7258V32.1934C20.2233 32.156 20.2044 32.124 20.1716 32.1053C20.1386 32.0867 20.101 32.0867 20.068 32.1053L15.6358 34.6201C15.3848 34.7618 15.0868 34.7498 14.8545 34.614L10.433 32.1054C10.4001 32.0867 10.3624 32.0868 10.3294 32.1054C10.2964 32.1242 10.2776 32.1563 10.2776 32.1935V36.726C10.2776 36.7633 10.2964 36.7954 10.3293 36.814L15.1986 39.5768C15.2316 39.5954 15.2693 39.5954 15.3022 39.5767ZM26.3643 34.6199L21.9321 32.1052C21.8992 32.0865 21.8615 32.0866 21.8285 32.1052C21.7956 32.124 21.7768 32.156 21.7768 32.1933V36.7257C21.7768 36.7631 21.7956 36.7952 21.8285 36.8138L26.6979 39.5765C26.7308 39.5953 26.7686 39.5953 26.8014 39.5765L31.6708 36.8138C31.7037 36.7951 31.7225 36.7631 31.7225 36.7257V32.1934C31.7225 32.156 31.7037 32.124 31.6708 32.1053C31.6378 32.0867 31.6001 32.0866 31.5672 32.1053L27.1457 34.6139C26.9133 34.7497 26.6153 34.7617 26.3643 34.6199ZM16.8608 27.4729L20.9482 29.792C20.9811 29.8107 21.0189 29.8107 21.0518 29.792L25.9211 27.0293C25.954 27.0106 25.973 26.9786 25.973 26.9412V22.4087C25.973 22.3714 25.9541 22.3393 25.9211 22.3207C25.8881 22.302 25.8504 22.3019 25.8176 22.3207L21.3968 24.8289C21.1632 24.9653 20.8635 24.977 20.6117 24.8336L16.1825 22.3207C16.1496 22.3019 16.112 22.302 16.079 22.3207C16.0461 22.3394 16.0271 22.3715 16.0271 22.4087V26.9412C16.0271 26.9786 16.046 27.0106 16.079 27.0293L16.8608 27.4729ZM41.9128 27.5747V31.292C41.9128 31.8558 41.5588 32.3346 41.0132 32.5087L38.7078 33.2448C38.6722 33.2563 38.6471 33.2831 38.6388 33.3191C38.1801 35.3119 37.3814 37.178 36.3047 38.8544C36.2847 38.8855 36.283 38.922 36.3 38.9548L37.401 41.0783C37.6614 41.5806 37.5672 42.1652 37.1616 42.5639L34.4136 45.2644C34.0079 45.663 33.4131 45.7556 32.902 45.4997L30.7412 44.4177C30.7077 44.401 30.6707 44.4026 30.6389 44.4223C28.9328 45.4803 27.0341 46.2655 25.0062 46.7162C24.9696 46.7243 24.9422 46.7488 24.9306 46.784L24.1816 49.0494C24.0044 49.5856 23.517 49.9335 22.9433 49.9335H19.057C18.4833 49.9335 17.9961 49.5856 17.8188 49.0494L17.0698 46.784C17.0582 46.749 17.0308 46.7243 16.9942 46.7162C14.9664 46.2653 13.0674 45.4804 11.3615 44.4224C11.3298 44.4027 11.2928 44.4011 11.2593 44.4178L9.09844 45.4998C8.58736 45.7557 7.9924 45.6631 7.58668 45.2645L4.83868 42.564C4.43308 42.1653 4.33888 41.5808 4.59928 41.0784L5.70028 38.955C5.71732 38.9221 5.71564 38.8857 5.6956 38.8545C4.61896 37.1778 3.82 35.3119 3.36136 33.3192C3.35308 33.2833 3.32812 33.2563 3.29236 33.2449L0.987043 32.5089C0.441403 32.3347 0.0874023 31.8558 0.0874023 31.2921V27.5748C0.0874023 27.5188 0.133843 27.473 0.190963 27.473H13.2405C13.288 27.473 13.3282 27.5033 13.3404 27.5484C13.3528 27.5935 13.3334 27.6395 13.2922 27.6629L8.776 30.2251C8.743 30.2438 8.72416 30.2758 8.72416 30.3132V37.6072C8.72416 37.6446 8.743 37.6767 8.77588 37.6953L15.1986 41.3394C15.2315 41.3582 15.2693 41.3582 15.3022 41.3394L20.9482 38.136C20.9811 38.1174 21.0189 38.1174 21.0518 38.136L26.6978 41.3394C26.7306 41.3582 26.7684 41.3582 26.8013 41.3394L33.2241 37.6953C33.257 37.6765 33.2758 37.6446 33.2758 37.6072V30.3132C33.2758 30.2758 33.257 30.2438 33.224 30.2251L28.7078 27.6629C28.6666 27.6395 28.6473 27.5935 28.6595 27.5485C28.6719 27.5033 28.712 27.4731 28.7595 27.4731H41.8092C41.8664 27.4729 41.9128 27.5186 41.9128 27.5747ZM8.1766 6.73362C6.47236 6.73362 5.0908 8.09129 5.0908 9.76605C5.0908 11.4409 6.47236 12.7985 8.1766 12.7985C9.88084 12.7985 11.2624 11.4408 11.2624 9.76605C11.2624 8.09117 9.88084 6.73362 8.1766 6.73362ZM15.206 19.9823C14.8131 16.5251 11.8601 13.8162 8.3056 13.8162C4.48588 13.8162 1.3606 16.9442 1.3606 20.7677V25.8447C1.3606 25.9007 1.40704 25.9465 1.46416 25.9465H14.3704C14.4274 25.9465 14.474 25.9008 14.474 25.8447V20.5269C14.474 20.4895 14.4928 20.4574 14.5257 20.4388L15.1548 20.0819C15.1911 20.0611 15.2105 20.0234 15.206 19.9823ZM33.8235 6.73362C35.5277 6.73362 36.9093 8.09129 36.9093 9.76605C36.9093 11.4409 35.5277 12.7985 33.8235 12.7985C32.1192 12.7985 30.7377 11.4408 30.7377 9.76605C30.7377 8.09117 32.1192 6.73362 33.8235 6.73362ZM26.7941 19.9823C27.187 16.5251 30.14 13.8162 33.6946 13.8162C37.5143 13.8162 40.6396 16.9442 40.6396 20.7677V25.8447C40.6396 25.9007 40.5932 25.9465 40.536 25.9465H27.6298C27.5728 25.9465 27.5262 25.9008 27.5262 25.8447V20.5269C27.5262 20.4895 27.5074 20.4574 27.4745 20.4388L26.8454 20.0819C26.8089 20.0611 26.7894 20.0235 26.7941 19.9823ZM12.8692 13.5091C14.4646 10.7067 17.5168 8.80155 21 8.80155C24.4832 8.80155 27.5354 10.7067 29.1309 13.5091C29.1575 13.5558 29.1429 13.6144 29.0974 13.6438C27.2003 14.8698 25.8275 16.8268 25.366 19.0873C25.3593 19.1204 25.3385 19.1461 25.3072 19.16C25.2759 19.174 25.2426 19.1723 25.2128 19.1554L21.0519 16.7947C21.019 16.7761 20.9813 16.7761 20.9483 16.7947L16.7874 19.1554C16.7577 19.1723 16.7244 19.174 16.693 19.16C16.6616 19.1461 16.6409 19.1205 16.6342 19.0873C16.1727 16.8268 14.7999 14.8698 12.9028 13.6438C12.8573 13.6144 12.8427 13.5558 12.8692 13.5091Z" fill="white"/>
</g>
<defs>
<clipPath id="clip0_401_72">
<rect width="42" height="50" fill="white"/>
</clipPath>
</defs>
</svg>
