<svg width="651" height="25" viewBox="0 0 651 25" fill="none" xmlns="http://www.w3.org/2000/svg">
<path d="M3.95384 1.79741V19.252H0.791903V1.79741H3.95384ZM7.24148 19.252V6.16104H10.1903V8.38548H10.3438C10.6165 7.63548 11.0682 7.05025 11.6989 6.62979C12.3295 6.20366 13.0824 5.99059 13.9574 5.99059C14.8438 5.99059 15.5909 6.2065 16.1989 6.63832C16.8125 7.06445 17.2443 7.64684 17.4943 8.38548H17.6307C17.9205 7.6582 18.4091 7.07866 19.0966 6.64684C19.7898 6.20934 20.6108 5.99059 21.5597 5.99059C22.7642 5.99059 23.7472 6.37127 24.5085 7.13263C25.2699 7.894 25.6506 9.00479 25.6506 10.465V19.252H22.5568V10.9423C22.5568 10.1298 22.3409 9.53604 21.9091 9.16104C21.4773 8.78036 20.9489 8.59002 20.3239 8.59002C19.5795 8.59002 18.9972 8.82298 18.5767 9.28888C18.1619 9.74911 17.9545 10.3485 17.9545 11.0872V19.252H14.929V10.8145C14.929 10.1383 14.7244 9.59854 14.3153 9.19513C13.9119 8.79173 13.3835 8.59002 12.7301 8.59002C12.2869 8.59002 11.8835 8.70366 11.5199 8.93093C11.1563 9.15252 10.8665 9.46786 10.6506 9.87695C10.4347 10.2804 10.3267 10.752 10.3267 11.2917V19.252H7.24148ZM34.4737 24.4338C33.3658 24.4338 32.4141 24.2832 31.6186 23.9821C30.8232 23.6866 30.1839 23.2889 29.701 22.7889C29.218 22.2889 28.8828 21.7349 28.6953 21.127L31.4737 20.4537C31.5987 20.7093 31.7805 20.9622 32.0192 21.2122C32.2578 21.4679 32.5788 21.6781 32.9822 21.8429C33.3913 22.0133 33.9055 22.0985 34.5249 22.0985C35.3999 22.0985 36.1243 21.8855 36.6982 21.4593C37.272 21.0389 37.5589 20.3457 37.5589 19.3798V16.8997H37.4055C37.2464 17.2179 37.0135 17.5446 36.7067 17.8798C36.4055 18.215 36.005 18.4963 35.505 18.7235C35.0107 18.9508 34.3885 19.0645 33.6385 19.0645C32.6328 19.0645 31.7209 18.8287 30.9027 18.3571C30.0902 17.8798 29.4425 17.1696 28.9595 16.2264C28.4822 15.2775 28.2436 14.09 28.2436 12.6639C28.2436 11.2264 28.4822 10.0133 28.9595 9.02468C29.4425 8.03036 30.093 7.27752 30.9112 6.76616C31.7294 6.24911 32.6413 5.99059 33.647 5.99059C34.4141 5.99059 35.0447 6.12127 35.5391 6.38263C36.0391 6.63832 36.4368 6.94798 36.7322 7.31161C37.0277 7.66957 37.2521 8.00763 37.4055 8.32582H37.576V6.16104H40.6186V19.465C40.6186 20.5843 40.3516 21.5105 39.8175 22.2434C39.2834 22.9764 38.5533 23.5247 37.6271 23.8883C36.701 24.252 35.6499 24.4338 34.4737 24.4338ZM34.4993 16.644C35.1527 16.644 35.7095 16.4849 36.1697 16.1667C36.63 15.8485 36.9794 15.3912 37.218 14.7946C37.4567 14.198 37.576 13.4821 37.576 12.6468C37.576 11.823 37.4567 11.1014 37.218 10.4821C36.9851 9.86275 36.6385 9.38263 36.1783 9.04173C35.7237 8.69513 35.1641 8.52184 34.4993 8.52184C33.8118 8.52184 33.2379 8.70082 32.7777 9.05877C32.3175 9.41673 31.9709 9.9082 31.7379 10.5332C31.505 11.1525 31.3885 11.8571 31.3885 12.6468C31.3885 13.448 31.505 14.1497 31.7379 14.752C31.9766 15.3485 32.326 15.8145 32.7862 16.1497C33.2521 16.4792 33.8232 16.644 34.4993 16.644ZM50.8459 1.79741V19.252H47.6839V4.87411H47.5817L43.4993 7.48207V4.58434L47.8374 1.79741H50.8459ZM70.3885 7.68661H67.201C67.1101 7.16388 66.9425 6.70082 66.6982 6.29741C66.4538 5.88832 66.1499 5.54173 65.7862 5.25763C65.4226 4.97354 65.0078 4.76048 64.5419 4.61843C64.0817 4.4707 63.5845 4.39684 63.0504 4.39684C62.1016 4.39684 61.2607 4.63548 60.5277 5.11275C59.7947 5.58434 59.2209 6.27752 58.8061 7.19229C58.3913 8.10138 58.1839 9.21218 58.1839 10.5247C58.1839 11.8599 58.3913 12.9849 58.8061 13.8997C59.2266 14.8088 59.8004 15.4963 60.5277 15.9622C61.2607 16.4224 62.0987 16.6525 63.0419 16.6525C63.5646 16.6525 64.0533 16.5843 64.5078 16.448C64.968 16.3059 65.38 16.0985 65.7436 15.8258C66.1129 15.5531 66.4226 15.2179 66.6726 14.8201C66.9283 14.4224 67.1044 13.9679 67.201 13.4565L70.3885 13.4735C70.2692 14.3031 70.0107 15.0815 69.6129 15.8088C69.2209 16.536 68.7067 17.1781 68.0703 17.7349C67.4339 18.286 66.6896 18.7179 65.8374 19.0304C64.9851 19.3372 64.0391 19.4906 62.9993 19.4906C61.4652 19.4906 60.0959 19.1355 58.8913 18.4252C57.6868 17.715 56.7379 16.6895 56.0447 15.3485C55.3516 14.0076 55.005 12.3997 55.005 10.5247C55.005 8.644 55.3544 7.03604 56.0533 5.70082C56.7521 4.35991 57.7038 3.33434 58.9084 2.62411C60.1129 1.91388 61.4766 1.55877 62.9993 1.55877C63.9709 1.55877 64.8743 1.69513 65.7095 1.96786C66.5447 2.24059 67.2891 2.64116 67.9425 3.16957C68.5959 3.69229 69.1328 4.33434 69.5533 5.0957C69.9794 5.85139 70.2578 6.71502 70.3885 7.68661ZM76.9148 19.5162C76.0852 19.5162 75.3381 19.3684 74.6733 19.073C74.0142 18.7718 73.4915 18.3287 73.1051 17.7434C72.7244 17.1582 72.5341 16.4366 72.5341 15.5787C72.5341 14.84 72.6705 14.2292 72.9432 13.7463C73.2159 13.2633 73.5881 12.877 74.0597 12.5872C74.5313 12.2974 75.0625 12.0787 75.6534 11.9309C76.25 11.7775 76.8665 11.6667 77.5028 11.5985C78.2699 11.519 78.892 11.448 79.3693 11.3855C79.8466 11.3173 80.1932 11.215 80.4091 11.0787C80.6307 10.9366 80.7415 10.7179 80.7415 10.4224V10.3713C80.7415 9.72923 80.5511 9.23207 80.1705 8.87979C79.7898 8.52752 79.2415 8.35138 78.5256 8.35138C77.7699 8.35138 77.1705 8.51616 76.7273 8.8457C76.2898 9.17525 75.9943 9.56445 75.8409 10.0133L72.9602 9.60423C73.1875 8.80877 73.5625 8.144 74.0852 7.60991C74.608 7.07013 75.2472 6.66673 76.0028 6.39968C76.7585 6.12695 77.5938 5.99059 78.5085 5.99059C79.1392 5.99059 79.767 6.06445 80.392 6.21218C81.017 6.35991 81.5881 6.60423 82.1051 6.94513C82.6222 7.28036 83.0369 7.73775 83.3494 8.31729C83.6676 8.89684 83.8267 9.62127 83.8267 10.4906V19.252H80.8608V17.4537H80.7585C80.571 17.8173 80.3068 18.1582 79.9659 18.4764C79.6307 18.7889 79.2074 19.0417 78.696 19.2349C78.1903 19.4224 77.5966 19.5162 76.9148 19.5162ZM77.7159 17.2491C78.3352 17.2491 78.8722 17.127 79.3267 16.8826C79.7813 16.6326 80.1307 16.3031 80.375 15.894C80.625 15.4849 80.75 15.0389 80.75 14.5559V13.0133C80.6534 13.0929 80.4886 13.1667 80.2557 13.2349C80.0284 13.3031 79.7727 13.3627 79.4886 13.4139C79.2045 13.465 78.9233 13.5105 78.6449 13.5502C78.3665 13.59 78.125 13.6241 77.9205 13.6525C77.4602 13.715 77.0483 13.8173 76.6847 13.9593C76.321 14.1014 76.0341 14.3002 75.8239 14.5559C75.6136 14.8059 75.5085 15.1298 75.5085 15.5275C75.5085 16.0957 75.7159 16.5247 76.1307 16.8145C76.5455 17.1042 77.0739 17.2491 77.7159 17.2491ZM86.929 19.252V6.16104H89.9205V8.34286H90.0568C90.2955 7.58718 90.7045 7.00479 91.2841 6.5957C91.8693 6.18093 92.5369 5.97354 93.2869 5.97354C93.4574 5.97354 93.6477 5.98207 93.858 5.99911C94.0739 6.01048 94.2528 6.03036 94.3949 6.05877V8.89684C94.2642 8.85138 94.0568 8.81161 93.7727 8.77752C93.4943 8.73775 93.2244 8.71786 92.9631 8.71786C92.4006 8.71786 91.8949 8.84002 91.446 9.08434C91.0028 9.32298 90.6534 9.65536 90.3977 10.0815C90.142 10.5076 90.0142 10.9991 90.0142 11.5559V19.252H86.929ZM101.701 19.5076C100.388 19.5076 99.255 19.2349 98.3004 18.6895C97.3516 18.1383 96.6214 17.3599 96.1101 16.3542C95.5987 15.3429 95.343 14.1525 95.343 12.7832C95.343 11.4366 95.5987 10.2548 96.1101 9.23775C96.6271 8.21502 97.3487 7.41957 98.2749 6.85138C99.201 6.27752 100.289 5.99059 101.539 5.99059C102.346 5.99059 103.107 6.12127 103.823 6.38263C104.545 6.63832 105.181 7.03604 105.732 7.57582C106.289 8.11559 106.727 8.80309 107.045 9.63832C107.363 10.4679 107.522 11.4565 107.522 12.6042V13.5502H96.7919V11.4707H104.565C104.559 10.8798 104.431 10.3542 104.181 9.894C103.931 9.42809 103.582 9.06161 103.133 8.79457C102.69 8.52752 102.173 8.394 101.582 8.394C100.951 8.394 100.397 8.54741 99.9197 8.85423C99.4425 9.15536 99.0703 9.55309 98.8033 10.0474C98.5419 10.536 98.4084 11.073 98.4027 11.6582V13.4735C98.4027 14.2349 98.5419 14.8883 98.8203 15.4338C99.0987 15.9735 99.4879 16.3883 99.9879 16.6781C100.488 16.9622 101.073 17.1042 101.744 17.1042C102.192 17.1042 102.599 17.0417 102.962 16.9167C103.326 16.786 103.641 16.5957 103.908 16.3457C104.175 16.0957 104.377 15.786 104.513 15.4167L107.394 15.7406C107.212 16.502 106.866 17.1667 106.354 17.7349C105.849 18.2974 105.201 18.7349 104.411 19.0474C103.621 19.3542 102.718 19.5076 101.701 19.5076ZM116.771 13.3883H119.635L121.331 15.5872L122.541 17.019L125.447 20.752H122.379L120.402 18.2463L119.558 17.0531L116.771 13.3883ZM125.865 10.5247C125.865 12.4054 125.513 14.0162 124.808 15.3571C124.109 16.6923 123.155 17.715 121.945 18.4252C120.74 19.1355 119.374 19.4906 117.845 19.4906C116.317 19.4906 114.947 19.1355 113.737 18.4252C112.533 17.7093 111.578 16.6838 110.874 15.3485C110.175 14.0076 109.825 12.3997 109.825 10.5247C109.825 8.644 110.175 7.03604 110.874 5.70082C111.578 4.35991 112.533 3.33434 113.737 2.62411C114.947 1.91388 116.317 1.55877 117.845 1.55877C119.374 1.55877 120.74 1.91388 121.945 2.62411C123.155 3.33434 124.109 4.35991 124.808 5.70082C125.513 7.03604 125.865 8.644 125.865 10.5247ZM122.686 10.5247C122.686 9.20082 122.479 8.08434 122.064 7.17525C121.655 6.26048 121.087 5.57014 120.359 5.10423C119.632 4.63264 118.794 4.39684 117.845 4.39684C116.896 4.39684 116.058 4.63264 115.331 5.10423C114.604 5.57014 114.033 6.26048 113.618 7.17525C113.209 8.08434 113.004 9.20082 113.004 10.5247C113.004 11.8485 113.209 12.9679 113.618 13.8826C114.033 14.7917 114.604 15.4821 115.331 15.9537C116.058 16.4196 116.896 16.6525 117.845 16.6525C118.794 16.6525 119.632 16.4196 120.359 15.9537C121.087 15.4821 121.655 14.7917 122.064 13.8826C122.479 12.9679 122.686 11.8485 122.686 10.5247ZM137.085 13.7463V6.16104H140.17V19.252H137.179V16.9252H137.043C136.747 17.6582 136.261 18.2576 135.585 18.7235C134.915 19.1895 134.088 19.4224 133.105 19.4224C132.247 19.4224 131.489 19.2321 130.83 18.8514C130.176 18.465 129.665 17.9054 129.295 17.1724C128.926 16.4338 128.741 15.5417 128.741 14.4963V6.16104H131.827V14.019C131.827 14.8485 132.054 15.5076 132.509 15.9963C132.963 16.4849 133.56 16.7292 134.298 16.7292C134.753 16.7292 135.193 16.6184 135.619 16.3968C136.045 16.1752 136.395 15.8457 136.668 15.4082C136.946 14.965 137.085 14.411 137.085 13.7463ZM147.11 19.5162C146.281 19.5162 145.533 19.3684 144.869 19.073C144.21 18.7718 143.687 18.3287 143.3 17.7434C142.92 17.1582 142.729 16.4366 142.729 15.5787C142.729 14.84 142.866 14.2292 143.138 13.7463C143.411 13.2633 143.783 12.877 144.255 12.5872C144.727 12.2974 145.258 12.0787 145.849 11.9309C146.445 11.7775 147.062 11.6667 147.698 11.5985C148.465 11.519 149.087 11.448 149.565 11.3855C150.042 11.3173 150.388 11.215 150.604 11.0787C150.826 10.9366 150.937 10.7179 150.937 10.4224V10.3713C150.937 9.72923 150.746 9.23207 150.366 8.87979C149.985 8.52752 149.437 8.35138 148.721 8.35138C147.965 8.35138 147.366 8.51616 146.923 8.8457C146.485 9.17525 146.19 9.56445 146.036 10.0133L143.156 9.60423C143.383 8.80877 143.758 8.144 144.281 7.60991C144.803 7.07013 145.442 6.66673 146.198 6.39968C146.954 6.12695 147.789 5.99059 148.704 5.99059C149.335 5.99059 149.962 6.06445 150.587 6.21218C151.212 6.35991 151.783 6.60423 152.3 6.94513C152.817 7.28036 153.232 7.73775 153.545 8.31729C153.863 8.89684 154.022 9.62127 154.022 10.4906V19.252H151.056V17.4537H150.954C150.766 17.8173 150.502 18.1582 150.161 18.4764C149.826 18.7889 149.403 19.0417 148.891 19.2349C148.386 19.4224 147.792 19.5162 147.11 19.5162ZM147.911 17.2491C148.531 17.2491 149.067 17.127 149.522 16.8826C149.977 16.6326 150.326 16.3031 150.57 15.894C150.82 15.4849 150.945 15.0389 150.945 14.5559V13.0133C150.849 13.0929 150.684 13.1667 150.451 13.2349C150.224 13.3031 149.968 13.3627 149.684 13.4139C149.4 13.465 149.119 13.5105 148.84 13.5502C148.562 13.59 148.32 13.6241 148.116 13.6525C147.656 13.715 147.244 13.8173 146.88 13.9593C146.516 14.1014 146.229 14.3002 146.019 14.5559C145.809 14.8059 145.704 15.1298 145.704 15.5275C145.704 16.0957 145.911 16.5247 146.326 16.8145C146.741 17.1042 147.269 17.2491 147.911 17.2491ZM160.21 1.79741V19.252H157.124V1.79741H160.21ZM163.382 19.252V6.16104H166.467V19.252H163.382ZM164.933 4.30309C164.445 4.30309 164.024 4.14116 163.672 3.81729C163.32 3.48775 163.143 3.09286 163.143 2.63263C163.143 2.16673 163.32 1.77184 163.672 1.44797C164.024 1.11843 164.445 0.953657 164.933 0.953657C165.428 0.953657 165.848 1.11843 166.195 1.44797C166.547 1.77184 166.723 2.16673 166.723 2.63263C166.723 3.09286 166.547 3.48775 166.195 3.81729C165.848 4.14116 165.428 4.30309 164.933 4.30309ZM176.177 6.16104V8.54741H168.651V6.16104H176.177ZM170.509 3.02468H173.594V15.3145C173.594 15.7292 173.657 16.0474 173.782 16.269C173.913 16.4849 174.083 16.6326 174.293 16.7122C174.504 16.7917 174.737 16.8315 174.992 16.8315C175.185 16.8315 175.362 16.8173 175.521 16.7889C175.685 16.7605 175.81 16.7349 175.896 16.7122L176.415 19.1241C176.251 19.1809 176.015 19.2434 175.708 19.3116C175.407 19.3798 175.038 19.4196 174.6 19.4309C173.827 19.4537 173.131 19.3372 172.512 19.0815C171.893 18.8201 171.401 18.4167 171.038 17.8713C170.68 17.3258 170.504 16.644 170.509 15.8258V3.02468ZM180.675 24.161C180.254 24.161 179.865 24.127 179.507 24.0588C179.155 23.9963 178.874 23.9224 178.663 23.8372L179.379 21.4338C179.828 21.5645 180.229 21.627 180.581 21.6213C180.933 21.6156 181.243 21.5048 181.51 21.2889C181.783 21.0787 182.013 20.7264 182.2 20.2321L182.464 19.5247L177.717 6.16104H180.99L184.007 16.0474H184.143L187.169 6.16104H190.45L185.209 20.8372C184.964 21.5304 184.641 22.1241 184.237 22.6184C183.834 23.1184 183.339 23.4991 182.754 23.7605C182.175 24.0275 181.482 24.161 180.675 24.161ZM207.662 7.68661H204.474C204.384 7.16388 204.216 6.70082 203.972 6.29741C203.727 5.88832 203.423 5.54173 203.06 5.25763C202.696 4.97354 202.281 4.76048 201.815 4.61843C201.355 4.4707 200.858 4.39684 200.324 4.39684C199.375 4.39684 198.534 4.63548 197.801 5.11275C197.068 5.58434 196.494 6.27752 196.08 7.19229C195.665 8.10138 195.457 9.21218 195.457 10.5247C195.457 11.8599 195.665 12.9849 196.08 13.8997C196.5 14.8088 197.074 15.4963 197.801 15.9622C198.534 16.4224 199.372 16.6525 200.315 16.6525C200.838 16.6525 201.327 16.5843 201.781 16.448C202.241 16.3059 202.653 16.0985 203.017 15.8258C203.386 15.5531 203.696 15.2179 203.946 14.8201C204.202 14.4224 204.378 13.9679 204.474 13.4565L207.662 13.4735C207.543 14.3031 207.284 15.0815 206.886 15.8088C206.494 16.536 205.98 17.1781 205.344 17.7349C204.707 18.286 203.963 18.7179 203.111 19.0304C202.259 19.3372 201.313 19.4906 200.273 19.4906C198.739 19.4906 197.369 19.1355 196.165 18.4252C194.96 17.715 194.011 16.6895 193.318 15.3485C192.625 14.0076 192.278 12.3997 192.278 10.5247C192.278 8.644 192.628 7.03604 193.327 5.70082C194.026 4.35991 194.977 3.33434 196.182 2.62411C197.386 1.91388 198.75 1.55877 200.273 1.55877C201.244 1.55877 202.148 1.69513 202.983 1.96786C203.818 2.24059 204.563 2.64116 205.216 3.16957C205.869 3.69229 206.406 4.33434 206.827 5.0957C207.253 5.85139 207.531 6.71502 207.662 7.68661ZM216.131 19.5076C214.853 19.5076 213.745 19.2264 212.808 18.6639C211.87 18.1014 211.143 17.3145 210.626 16.3031C210.114 15.2917 209.859 14.1099 209.859 12.7576C209.859 11.4054 210.114 10.2207 210.626 9.20366C211.143 8.18661 211.87 7.39684 212.808 6.83434C213.745 6.27184 214.853 5.99059 216.131 5.99059C217.41 5.99059 218.518 6.27184 219.455 6.83434C220.393 7.39684 221.117 8.18661 221.629 9.20366C222.146 10.2207 222.404 11.4054 222.404 12.7576C222.404 14.1099 222.146 15.2917 221.629 16.3031C221.117 17.3145 220.393 18.1014 219.455 18.6639C218.518 19.2264 217.41 19.5076 216.131 19.5076ZM216.148 17.036C216.842 17.036 217.421 16.8457 217.887 16.465C218.353 16.0787 218.7 15.5616 218.927 14.9139C219.16 14.2662 219.276 13.5446 219.276 12.7491C219.276 11.948 219.16 11.2235 218.927 10.5758C218.7 9.92241 218.353 9.40252 217.887 9.01616C217.421 8.62979 216.842 8.43661 216.148 8.43661C215.438 8.43661 214.847 8.62979 214.376 9.01616C213.91 9.40252 213.56 9.92241 213.327 10.5758C213.1 11.2235 212.987 11.948 212.987 12.7491C212.987 13.5446 213.1 14.2662 213.327 14.9139C213.56 15.5616 213.91 16.0787 214.376 16.465C214.847 16.8457 215.438 17.036 216.148 17.036ZM225.023 19.252V6.16104H227.972V8.38548H228.125C228.398 7.63548 228.849 7.05025 229.48 6.62979C230.111 6.20366 230.864 5.99059 231.739 5.99059C232.625 5.99059 233.372 6.2065 233.98 6.63832C234.594 7.06445 235.026 7.64684 235.276 8.38548H235.412C235.702 7.6582 236.19 7.07866 236.878 6.64684C237.571 6.20934 238.392 5.99059 239.341 5.99059C240.545 5.99059 241.528 6.37127 242.29 7.13263C243.051 7.894 243.432 9.00479 243.432 10.465V19.252H240.338V10.9423C240.338 10.1298 240.122 9.53604 239.69 9.16104C239.259 8.78036 238.73 8.59002 238.105 8.59002C237.361 8.59002 236.778 8.82298 236.358 9.28888C235.943 9.74911 235.736 10.3485 235.736 11.0872V19.252H232.71V10.8145C232.71 10.1383 232.506 9.59854 232.097 9.19513C231.693 8.79173 231.165 8.59002 230.511 8.59002C230.068 8.59002 229.665 8.70366 229.301 8.93093C228.938 9.15252 228.648 9.46786 228.432 9.87695C228.216 10.2804 228.108 10.752 228.108 11.2917V19.252H225.023ZM246.562 19.252V6.16104H249.511V8.38548H249.664C249.937 7.63548 250.388 7.05025 251.019 6.62979C251.65 6.20366 252.403 5.99059 253.278 5.99059C254.164 5.99059 254.911 6.2065 255.519 6.63832C256.133 7.06445 256.565 7.64684 256.815 8.38548H256.951C257.241 7.6582 257.729 7.07866 258.417 6.64684C259.11 6.20934 259.931 5.99059 260.88 5.99059C262.085 5.99059 263.067 6.37127 263.829 7.13263C264.59 7.894 264.971 9.00479 264.971 10.465V19.252H261.877V10.9423C261.877 10.1298 261.661 9.53604 261.229 9.16104C260.798 8.78036 260.269 8.59002 259.644 8.59002C258.9 8.59002 258.317 8.82298 257.897 9.28888C257.482 9.74911 257.275 10.3485 257.275 11.0872V19.252H254.249V10.8145C254.249 10.1383 254.045 9.59854 253.636 9.19513C253.232 8.79173 252.704 8.59002 252.05 8.59002C251.607 8.59002 251.204 8.70366 250.84 8.93093C250.477 9.15252 250.187 9.46786 249.971 9.87695C249.755 10.2804 249.647 10.752 249.647 11.2917V19.252H246.562ZM268.101 19.252V6.16104H271.186V19.252H268.101ZM269.652 4.30309C269.163 4.30309 268.743 4.14116 268.391 3.81729C268.038 3.48775 267.862 3.09286 267.862 2.63263C267.862 2.16673 268.038 1.77184 268.391 1.44797C268.743 1.11843 269.163 0.953657 269.652 0.953657C270.146 0.953657 270.567 1.11843 270.913 1.44797C271.266 1.77184 271.442 2.16673 271.442 2.63263C271.442 3.09286 271.266 3.48775 270.913 3.81729C270.567 4.14116 270.146 4.30309 269.652 4.30309ZM284.705 9.62127L281.893 9.92809C281.813 9.644 281.674 9.37695 281.475 9.12695C281.282 8.87695 281.021 8.67525 280.691 8.52184C280.362 8.36843 279.958 8.29173 279.481 8.29173C278.839 8.29173 278.299 8.43093 277.862 8.70934C277.43 8.98775 277.217 9.34854 277.222 9.79173C277.217 10.1724 277.356 10.4821 277.64 10.7207C277.93 10.9593 278.407 11.1554 279.072 11.3088L281.305 11.786C282.543 12.0531 283.464 12.4764 284.066 13.0559C284.674 13.6355 284.981 14.394 284.987 15.3315C284.981 16.1554 284.739 16.8826 284.262 17.5133C283.79 18.1383 283.134 18.627 282.293 18.9792C281.452 19.3315 280.487 19.5076 279.396 19.5076C277.793 19.5076 276.504 19.1724 275.526 18.502C274.549 17.8258 273.967 16.8855 273.779 15.6809L276.788 15.3912C276.924 15.9821 277.214 16.4281 277.657 16.7292C278.1 17.0304 278.677 17.1809 279.387 17.1809C280.12 17.1809 280.708 17.0304 281.151 16.7292C281.6 16.4281 281.825 16.0559 281.825 15.6127C281.825 15.2377 281.68 14.9281 281.39 14.6838C281.106 14.4395 280.663 14.252 280.06 14.1213L277.827 13.6525C276.572 13.3912 275.643 12.9508 275.04 12.3315C274.438 11.7065 274.14 10.9167 274.146 9.96218C274.14 9.15536 274.359 8.4565 274.802 7.86559C275.251 7.269 275.873 6.80877 276.668 6.48491C277.469 6.15536 278.393 5.99059 279.438 5.99059C280.972 5.99059 282.18 6.31729 283.06 6.9707C283.947 7.62411 284.495 8.50763 284.705 9.62127ZM297.877 9.62127L295.065 9.92809C294.985 9.644 294.846 9.37695 294.647 9.12695C294.454 8.87695 294.192 8.67525 293.863 8.52184C293.533 8.36843 293.13 8.29173 292.653 8.29173C292.011 8.29173 291.471 8.43093 291.033 8.70934C290.602 8.98775 290.388 9.34854 290.394 9.79173C290.388 10.1724 290.528 10.4821 290.812 10.7207C291.102 10.9593 291.579 11.1554 292.244 11.3088L294.477 11.786C295.715 12.0531 296.636 12.4764 297.238 13.0559C297.846 13.6355 298.153 14.394 298.158 15.3315C298.153 16.1554 297.911 16.8826 297.434 17.5133C296.962 18.1383 296.306 18.627 295.465 18.9792C294.624 19.3315 293.658 19.5076 292.567 19.5076C290.965 19.5076 289.675 19.1724 288.698 18.502C287.721 17.8258 287.138 16.8855 286.951 15.6809L289.96 15.3912C290.096 15.9821 290.386 16.4281 290.829 16.7292C291.272 17.0304 291.849 17.1809 292.559 17.1809C293.292 17.1809 293.88 17.0304 294.323 16.7292C294.772 16.4281 294.996 16.0559 294.996 15.6127C294.996 15.2377 294.852 14.9281 294.562 14.6838C294.278 14.4395 293.835 14.252 293.232 14.1213L290.999 13.6525C289.744 13.3912 288.815 12.9508 288.212 12.3315C287.61 11.7065 287.312 10.9167 287.317 9.96218C287.312 9.15536 287.531 8.4565 287.974 7.86559C288.423 7.269 289.045 6.80877 289.84 6.48491C290.641 6.15536 291.565 5.99059 292.61 5.99059C294.144 5.99059 295.352 6.31729 296.232 6.9707C297.119 7.62411 297.667 8.50763 297.877 9.62127ZM300.702 19.252V6.16104H303.788V19.252H300.702ZM302.254 4.30309C301.765 4.30309 301.344 4.14116 300.992 3.81729C300.64 3.48775 300.464 3.09286 300.464 2.63263C300.464 2.16673 300.64 1.77184 300.992 1.44797C301.344 1.11843 301.765 0.953657 302.254 0.953657C302.748 0.953657 303.168 1.11843 303.515 1.44797C303.867 1.77184 304.043 2.16673 304.043 2.63263C304.043 3.09286 303.867 3.48775 303.515 3.81729C303.168 4.14116 302.748 4.30309 302.254 4.30309ZM312.67 19.5076C311.392 19.5076 310.284 19.2264 309.347 18.6639C308.409 18.1014 307.682 17.3145 307.165 16.3031C306.653 15.2917 306.398 14.1099 306.398 12.7576C306.398 11.4054 306.653 10.2207 307.165 9.20366C307.682 8.18661 308.409 7.39684 309.347 6.83434C310.284 6.27184 311.392 5.99059 312.67 5.99059C313.949 5.99059 315.057 6.27184 315.994 6.83434C316.932 7.39684 317.656 8.18661 318.168 9.20366C318.685 10.2207 318.943 11.4054 318.943 12.7576C318.943 14.1099 318.685 15.2917 318.168 16.3031C317.656 17.3145 316.932 18.1014 315.994 18.6639C315.057 19.2264 313.949 19.5076 312.67 19.5076ZM312.688 17.036C313.381 17.036 313.96 16.8457 314.426 16.465C314.892 16.0787 315.239 15.5616 315.466 14.9139C315.699 14.2662 315.815 13.5446 315.815 12.7491C315.815 11.948 315.699 11.2235 315.466 10.5758C315.239 9.92241 314.892 9.40252 314.426 9.01616C313.96 8.62979 313.381 8.43661 312.688 8.43661C311.977 8.43661 311.386 8.62979 310.915 9.01616C310.449 9.40252 310.099 9.92241 309.866 10.5758C309.639 11.2235 309.526 11.948 309.526 12.7491C309.526 13.5446 309.639 14.2662 309.866 14.9139C310.099 15.5616 310.449 16.0787 310.915 16.465C311.386 16.8457 311.977 17.036 312.688 17.036ZM324.647 11.5815V19.252H321.562V6.16104H324.511V8.38548H324.664C324.965 7.65252 325.445 7.07013 326.104 6.63832C326.769 6.2065 327.59 5.99059 328.567 5.99059C329.471 5.99059 330.258 6.18377 330.928 6.57013C331.604 6.9565 332.127 7.51616 332.496 8.24911C332.871 8.98207 333.056 9.87127 333.05 10.9167V19.252H329.965V11.394C329.965 10.519 329.738 9.83434 329.283 9.34002C328.835 8.8457 328.212 8.59854 327.417 8.59854C326.877 8.59854 326.397 8.71786 325.977 8.9565C325.562 9.18945 325.235 9.52752 324.996 9.9707C324.763 10.4139 324.647 10.9508 324.647 11.5815ZM336.323 19.252V1.79741H342.869C344.21 1.79741 345.335 2.03036 346.244 2.49627C347.158 2.96218 347.849 3.61559 348.315 4.4565C348.786 5.29173 349.022 6.26616 349.022 7.37979C349.022 8.49911 348.783 9.4707 348.306 10.2946C347.835 11.1127 347.138 11.7463 346.218 12.1951C345.298 12.6383 344.167 12.8599 342.826 12.8599H338.164V10.2349H342.4C343.184 10.2349 343.826 10.127 344.326 9.91104C344.826 9.68945 345.195 9.36843 345.434 8.94798C345.678 8.52184 345.8 7.99911 345.8 7.37979C345.8 6.76048 345.678 6.23207 345.434 5.79457C345.19 5.35138 344.817 5.01616 344.317 4.78888C343.817 4.55593 343.173 4.43945 342.383 4.43945H339.485V19.252H336.323ZM345.34 11.3429L349.661 19.252H346.133L341.888 11.3429H345.34ZM357.404 19.5076C356.092 19.5076 354.958 19.2349 354.004 18.6895C353.055 18.1383 352.325 17.3599 351.813 16.3542C351.302 15.3429 351.046 14.1525 351.046 12.7832C351.046 11.4366 351.302 10.2548 351.813 9.23775C352.33 8.21502 353.052 7.41957 353.978 6.85138C354.904 6.27752 355.992 5.99059 357.242 5.99059C358.049 5.99059 358.81 6.12127 359.526 6.38263C360.248 6.63832 360.884 7.03604 361.435 7.57582C361.992 8.11559 362.43 8.80309 362.748 9.63832C363.066 10.4679 363.225 11.4565 363.225 12.6042V13.5502H352.495V11.4707H360.268C360.262 10.8798 360.134 10.3542 359.884 9.894C359.634 9.42809 359.285 9.06161 358.836 8.79457C358.393 8.52752 357.876 8.394 357.285 8.394C356.654 8.394 356.1 8.54741 355.623 8.85423C355.146 9.15536 354.773 9.55309 354.506 10.0474C354.245 10.536 354.112 11.073 354.106 11.6582V13.4735C354.106 14.2349 354.245 14.8883 354.523 15.4338C354.802 15.9735 355.191 16.3883 355.691 16.6781C356.191 16.9622 356.776 17.1042 357.447 17.1042C357.896 17.1042 358.302 17.0417 358.665 16.9167C359.029 16.786 359.344 16.5957 359.612 16.3457C359.879 16.0957 360.08 15.786 360.217 15.4167L363.097 15.7406C362.915 16.502 362.569 17.1667 362.058 17.7349C361.552 18.2974 360.904 18.7349 360.114 19.0474C359.325 19.3542 358.421 19.5076 357.404 19.5076ZM371.528 24.4338C370.42 24.4338 369.469 24.2832 368.673 23.9821C367.878 23.6866 367.239 23.2889 366.756 22.7889C366.273 22.2889 365.938 21.7349 365.75 21.127L368.528 20.4537C368.653 20.7093 368.835 20.9622 369.074 21.2122C369.313 21.4679 369.634 21.6781 370.037 21.8429C370.446 22.0133 370.96 22.0985 371.58 22.0985C372.455 22.0985 373.179 21.8855 373.753 21.4593C374.327 21.0389 374.614 20.3457 374.614 19.3798V16.8997H374.46C374.301 17.2179 374.068 17.5446 373.761 17.8798C373.46 18.215 373.06 18.4963 372.56 18.7235C372.065 18.9508 371.443 19.0645 370.693 19.0645C369.688 19.0645 368.776 18.8287 367.957 18.3571C367.145 17.8798 366.497 17.1696 366.014 16.2264C365.537 15.2775 365.298 14.09 365.298 12.6639C365.298 11.2264 365.537 10.0133 366.014 9.02468C366.497 8.03036 367.148 7.27752 367.966 6.76616C368.784 6.24911 369.696 5.99059 370.702 5.99059C371.469 5.99059 372.099 6.12127 372.594 6.38263C373.094 6.63832 373.491 6.94798 373.787 7.31161C374.082 7.66957 374.307 8.00763 374.46 8.32582H374.631V6.16104H377.673V19.465C377.673 20.5843 377.406 21.5105 376.872 22.2434C376.338 22.9764 375.608 23.5247 374.682 23.8883C373.756 24.252 372.705 24.4338 371.528 24.4338ZM371.554 16.644C372.207 16.644 372.764 16.4849 373.224 16.1667C373.685 15.8485 374.034 15.3912 374.273 14.7946C374.511 14.198 374.631 13.4821 374.631 12.6468C374.631 11.823 374.511 11.1014 374.273 10.4821C374.04 9.86275 373.693 9.38263 373.233 9.04173C372.778 8.69513 372.219 8.52184 371.554 8.52184C370.866 8.52184 370.293 8.70082 369.832 9.05877C369.372 9.41673 369.026 9.9082 368.793 10.5332C368.56 11.1525 368.443 11.8571 368.443 12.6468C368.443 13.448 368.56 14.1497 368.793 14.752C369.031 15.3485 369.381 15.8145 369.841 16.1497C370.307 16.4792 370.878 16.644 371.554 16.644ZM389.179 13.7463V6.16104H392.264V19.252H389.273V16.9252H389.136C388.841 17.6582 388.355 18.2576 387.679 18.7235C387.009 19.1895 386.182 19.4224 385.199 19.4224C384.341 19.4224 383.582 19.2321 382.923 18.8514C382.27 18.465 381.759 17.9054 381.389 17.1724C381.02 16.4338 380.835 15.5417 380.835 14.4963V6.16104H383.92V14.019C383.92 14.8485 384.148 15.5076 384.602 15.9963C385.057 16.4849 385.653 16.7292 386.392 16.7292C386.847 16.7292 387.287 16.6184 387.713 16.3968C388.139 16.1752 388.489 15.8457 388.761 15.4082C389.04 14.965 389.179 14.411 389.179 13.7463ZM398.522 1.79741V19.252H395.437V1.79741H398.522ZM405.462 19.5162C404.632 19.5162 403.885 19.3684 403.22 19.073C402.561 18.7718 402.038 18.3287 401.652 17.7434C401.271 17.1582 401.081 16.4366 401.081 15.5787C401.081 14.84 401.217 14.2292 401.49 13.7463C401.763 13.2633 402.135 12.877 402.607 12.5872C403.078 12.2974 403.609 12.0787 404.2 11.9309C404.797 11.7775 405.413 11.6667 406.05 11.5985C406.817 11.519 407.439 11.448 407.916 11.3855C408.393 11.3173 408.74 11.215 408.956 11.0787C409.178 10.9366 409.288 10.7179 409.288 10.4224V10.3713C409.288 9.72923 409.098 9.23207 408.717 8.87979C408.337 8.52752 407.788 8.35138 407.072 8.35138C406.317 8.35138 405.717 8.51616 405.274 8.8457C404.837 9.17525 404.541 9.56445 404.388 10.0133L401.507 9.60423C401.734 8.80877 402.109 8.144 402.632 7.60991C403.155 7.07013 403.794 6.66673 404.55 6.39968C405.305 6.12695 406.141 5.99059 407.055 5.99059C407.686 5.99059 408.314 6.06445 408.939 6.21218C409.564 6.35991 410.135 6.60423 410.652 6.94513C411.169 7.28036 411.584 7.73775 411.896 8.31729C412.214 8.89684 412.374 9.62127 412.374 10.4906V19.252H409.408V17.4537H409.305C409.118 17.8173 408.854 18.1582 408.513 18.4764C408.178 18.7889 407.754 19.0417 407.243 19.2349C406.737 19.4224 406.143 19.5162 405.462 19.5162ZM406.263 17.2491C406.882 17.2491 407.419 17.127 407.874 16.8826C408.328 16.6326 408.678 16.3031 408.922 15.894C409.172 15.4849 409.297 15.0389 409.297 14.5559V13.0133C409.2 13.0929 409.036 13.1667 408.803 13.2349C408.575 13.3031 408.32 13.3627 408.036 13.4139C407.751 13.465 407.47 13.5105 407.192 13.5502C406.913 13.59 406.672 13.6241 406.467 13.6525C406.007 13.715 405.595 13.8173 405.232 13.9593C404.868 14.1014 404.581 14.3002 404.371 14.5559C404.161 14.8059 404.055 15.1298 404.055 15.5275C404.055 16.0957 404.263 16.5247 404.678 16.8145C405.092 17.1042 405.621 17.2491 406.263 17.2491ZM422.013 6.16104V8.54741H414.487V6.16104H422.013ZM416.345 3.02468H419.43V15.3145C419.43 15.7292 419.493 16.0474 419.618 16.269C419.749 16.4849 419.919 16.6326 420.129 16.7122C420.339 16.7917 420.572 16.8315 420.828 16.8315C421.021 16.8315 421.197 16.8173 421.357 16.7889C421.521 16.7605 421.646 16.7349 421.732 16.7122L422.251 19.1241C422.087 19.1809 421.851 19.2434 421.544 19.3116C421.243 19.3798 420.874 19.4196 420.436 19.4309C419.663 19.4537 418.967 19.3372 418.348 19.0815C417.729 18.8201 417.237 18.4167 416.874 17.8713C416.516 17.3258 416.339 16.644 416.345 15.8258V3.02468ZM430.248 19.5076C428.935 19.5076 427.802 19.2349 426.847 18.6895C425.898 18.1383 425.168 17.3599 424.657 16.3542C424.146 15.3429 423.89 14.1525 423.89 12.7832C423.89 11.4366 424.146 10.2548 424.657 9.23775C425.174 8.21502 425.896 7.41957 426.822 6.85138C427.748 6.27752 428.836 5.99059 430.086 5.99059C430.893 5.99059 431.654 6.12127 432.37 6.38263C433.092 6.63832 433.728 7.03604 434.279 7.57582C434.836 8.11559 435.273 8.80309 435.592 9.63832C435.91 10.4679 436.069 11.4565 436.069 12.6042V13.5502H425.339V11.4707H433.112C433.106 10.8798 432.978 10.3542 432.728 9.894C432.478 9.42809 432.129 9.06161 431.68 8.79457C431.237 8.52752 430.719 8.394 430.129 8.394C429.498 8.394 428.944 8.54741 428.467 8.85423C427.989 9.15536 427.617 9.55309 427.35 10.0474C427.089 10.536 426.955 11.073 426.95 11.6582V13.4735C426.95 14.2349 427.089 14.8883 427.367 15.4338C427.646 15.9735 428.035 16.3883 428.535 16.6781C429.035 16.9622 429.62 17.1042 430.29 17.1042C430.739 17.1042 431.146 17.0417 431.509 16.9167C431.873 16.786 432.188 16.5957 432.455 16.3457C432.722 16.0957 432.924 15.786 433.06 15.4167L435.941 15.7406C435.759 16.502 435.413 17.1667 434.901 17.7349C434.396 18.2974 433.748 18.7349 432.958 19.0474C432.168 19.3542 431.265 19.5076 430.248 19.5076ZM443.537 19.4821C442.509 19.4821 441.588 19.2179 440.776 18.6895C439.963 18.161 439.321 17.394 438.849 16.3883C438.378 15.3826 438.142 14.161 438.142 12.7235C438.142 11.269 438.381 10.0417 438.858 9.04173C439.341 8.03604 439.991 7.27752 440.81 6.76616C441.628 6.24911 442.54 5.99059 443.545 5.99059C444.313 5.99059 444.943 6.12127 445.438 6.38263C445.932 6.63832 446.324 6.94798 446.614 7.31161C446.903 7.66957 447.128 8.00763 447.287 8.32582H447.415V1.79741H450.509V19.252H447.474V17.1895H447.287C447.128 17.5076 446.898 17.8457 446.597 18.2037C446.295 18.5559 445.898 18.8571 445.403 19.1071C444.909 19.3571 444.287 19.4821 443.537 19.4821ZM444.398 16.9508C445.051 16.9508 445.608 16.7747 446.068 16.4224C446.528 16.0645 446.878 15.5673 447.116 14.9309C447.355 14.2946 447.474 13.5531 447.474 12.7065C447.474 11.8599 447.355 11.1241 447.116 10.4991C446.884 9.87411 446.537 9.38832 446.077 9.04173C445.622 8.69513 445.063 8.52184 444.398 8.52184C443.71 8.52184 443.136 8.70082 442.676 9.05877C442.216 9.41673 441.869 9.91104 441.636 10.5417C441.403 11.1724 441.287 11.894 441.287 12.7065C441.287 13.5247 441.403 14.2548 441.636 14.8968C441.875 15.5332 442.224 16.036 442.685 16.4054C443.151 16.769 443.722 16.9508 444.398 16.9508ZM463.418 6.5957C463.339 5.85139 463.004 5.27184 462.413 4.85707C461.827 4.44229 461.066 4.23491 460.129 4.23491C459.469 4.23491 458.904 4.33434 458.433 4.5332C457.961 4.73207 457.6 5.00195 457.35 5.34286C457.1 5.68377 456.972 6.07298 456.967 6.51048C456.967 6.87411 457.049 7.18945 457.214 7.4565C457.384 7.72354 457.614 7.95082 457.904 8.13832C458.194 8.32013 458.515 8.47354 458.867 8.59854C459.219 8.72354 459.575 8.82866 459.933 8.91388L461.569 9.32298C462.228 9.47638 462.862 9.68377 463.469 9.94513C464.083 10.2065 464.631 10.536 465.114 10.9338C465.603 11.3315 465.989 11.8116 466.273 12.3741C466.558 12.9366 466.7 13.5957 466.7 14.3514C466.7 15.3741 466.438 16.2747 465.915 17.0531C465.393 17.8258 464.637 18.4309 463.648 18.8684C462.665 19.3002 461.475 19.5162 460.077 19.5162C458.719 19.5162 457.54 19.3059 456.54 18.8855C455.546 18.465 454.768 17.8514 454.205 17.0446C453.648 16.2377 453.347 15.2548 453.302 14.0957H456.413C456.458 14.7037 456.646 15.2093 456.975 15.6127C457.305 16.0162 457.734 16.3173 458.262 16.5162C458.796 16.715 459.393 16.8145 460.052 16.8145C460.739 16.8145 461.342 16.7122 461.859 16.5076C462.381 16.2974 462.79 16.0076 463.086 15.6383C463.381 15.2633 463.532 14.8258 463.538 14.3258C463.532 13.8713 463.398 13.4963 463.137 13.2008C462.876 12.8997 462.509 12.6497 462.038 12.4508C461.572 12.2463 461.026 12.0645 460.401 11.9054L458.415 11.394C456.978 11.0247 455.842 10.465 455.006 9.71502C454.177 8.95934 453.762 7.9565 453.762 6.7065C453.762 5.67809 454.04 4.77752 454.597 4.00479C455.16 3.23207 455.924 2.63263 456.89 2.2065C457.856 1.77468 458.95 1.55877 460.171 1.55877C461.41 1.55877 462.495 1.77468 463.427 2.2065C464.364 2.63263 465.1 3.22638 465.634 3.98775C466.168 4.74343 466.444 5.61275 466.461 6.5957H463.418ZM475.178 19.5076C473.865 19.5076 472.732 19.2349 471.777 18.6895C470.828 18.1383 470.098 17.3599 469.587 16.3542C469.075 15.3429 468.82 14.1525 468.82 12.7832C468.82 11.4366 469.075 10.2548 469.587 9.23775C470.104 8.21502 470.825 7.41957 471.751 6.85138C472.678 6.27752 473.766 5.99059 475.016 5.99059C475.822 5.99059 476.584 6.12127 477.3 6.38263C478.021 6.63832 478.658 7.03604 479.209 7.57582C479.766 8.11559 480.203 8.80309 480.521 9.63832C480.839 10.4679 480.999 11.4565 480.999 12.6042V13.5502H470.268V11.4707H478.041C478.036 10.8798 477.908 10.3542 477.658 9.894C477.408 9.42809 477.058 9.06161 476.609 8.79457C476.166 8.52752 475.649 8.394 475.058 8.394C474.428 8.394 473.874 8.54741 473.396 8.85423C472.919 9.15536 472.547 9.55309 472.28 10.0474C472.018 10.536 471.885 11.073 471.879 11.6582V13.4735C471.879 14.2349 472.018 14.8883 472.297 15.4338C472.575 15.9735 472.964 16.3883 473.464 16.6781C473.964 16.9622 474.55 17.1042 475.22 17.1042C475.669 17.1042 476.075 17.0417 476.439 16.9167C476.803 16.786 477.118 16.5957 477.385 16.3457C477.652 16.0957 477.854 15.786 477.99 15.4167L480.871 15.7406C480.689 16.502 480.342 17.1667 479.831 17.7349C479.325 18.2974 478.678 18.7349 477.888 19.0474C477.098 19.3542 476.195 19.5076 475.178 19.5076ZM483.609 19.252V6.16104H486.6V8.34286H486.737C486.975 7.58718 487.384 7.00479 487.964 6.5957C488.549 6.18093 489.217 5.97354 489.967 5.97354C490.137 5.97354 490.327 5.98207 490.538 5.99911C490.754 6.01048 490.933 6.03036 491.075 6.05877V8.89684C490.944 8.85138 490.737 8.81161 490.452 8.77752C490.174 8.73775 489.904 8.71786 489.643 8.71786C489.08 8.71786 488.575 8.84002 488.126 9.08434C487.683 9.32298 487.333 9.65536 487.077 10.0815C486.822 10.5076 486.694 10.9991 486.694 11.5559V19.252H483.609ZM505.216 6.16104L500.554 19.252H497.145L492.483 6.16104H495.773L498.781 15.8855H498.918L501.935 6.16104H505.216ZM507.351 19.252V6.16104H510.436V19.252H507.351ZM508.902 4.30309C508.413 4.30309 507.993 4.14116 507.641 3.81729C507.288 3.48775 507.112 3.09286 507.112 2.63263C507.112 2.16673 507.288 1.77184 507.641 1.44797C507.993 1.11843 508.413 0.953657 508.902 0.953657C509.396 0.953657 509.817 1.11843 510.163 1.44797C510.516 1.77184 510.692 2.16673 510.692 2.63263C510.692 3.09286 510.516 3.48775 510.163 3.81729C509.817 4.14116 509.396 4.30309 508.902 4.30309ZM519.319 19.5076C518.012 19.5076 516.89 19.2207 515.952 18.6468C515.021 18.073 514.302 17.2804 513.796 16.269C513.296 15.252 513.046 14.0815 513.046 12.7576C513.046 11.4281 513.302 10.2548 513.813 9.23775C514.325 8.21502 515.046 7.41957 515.978 6.85138C516.915 6.27752 518.023 5.99059 519.302 5.99059C520.364 5.99059 521.305 6.18661 522.123 6.57866C522.947 6.96502 523.603 7.51332 524.092 8.22354C524.58 8.92809 524.859 9.75195 524.927 10.6951H521.978C521.859 10.0645 521.575 9.53888 521.126 9.11843C520.683 8.69229 520.089 8.47923 519.344 8.47923C518.714 8.47923 518.16 8.64968 517.683 8.99059C517.205 9.32582 516.833 9.80877 516.566 10.4395C516.305 11.0701 516.174 11.8258 516.174 12.7065C516.174 13.5985 516.305 14.3656 516.566 15.0076C516.827 15.644 517.194 16.1355 517.665 16.4821C518.143 16.823 518.702 16.9934 519.344 16.9934C519.799 16.9934 520.205 16.9082 520.563 16.7377C520.927 16.5616 521.231 16.3088 521.475 15.9792C521.719 15.6497 521.887 15.2491 521.978 14.7775H524.927C524.853 15.7037 524.58 16.5247 524.109 17.2406C523.637 17.9508 522.995 18.5076 522.183 18.911C521.37 19.3088 520.415 19.5076 519.319 19.5076ZM533.256 19.5076C531.943 19.5076 530.81 19.2349 529.855 18.6895C528.906 18.1383 528.176 17.3599 527.665 16.3542C527.153 15.3429 526.898 14.1525 526.898 12.7832C526.898 11.4366 527.153 10.2548 527.665 9.23775C528.182 8.21502 528.903 7.41957 529.83 6.85138C530.756 6.27752 531.844 5.99059 533.094 5.99059C533.901 5.99059 534.662 6.12127 535.378 6.38263C536.099 6.63832 536.736 7.03604 537.287 7.57582C537.844 8.11559 538.281 8.80309 538.599 9.63832C538.918 10.4679 539.077 11.4565 539.077 12.6042V13.5502H528.347V11.4707H536.119C536.114 10.8798 535.986 10.3542 535.736 9.894C535.486 9.42809 535.136 9.06161 534.688 8.79457C534.244 8.52752 533.727 8.394 533.136 8.394C532.506 8.394 531.952 8.54741 531.474 8.85423C530.997 9.15536 530.625 9.55309 530.358 10.0474C530.097 10.536 529.963 11.073 529.957 11.6582V13.4735C529.957 14.2349 530.097 14.8883 530.375 15.4338C530.653 15.9735 531.043 16.3883 531.543 16.6781C532.043 16.9622 532.628 17.1042 533.298 17.1042C533.747 17.1042 534.153 17.0417 534.517 16.9167C534.881 16.786 535.196 16.5957 535.463 16.3457C535.73 16.0957 535.932 15.786 536.068 15.4167L538.949 15.7406C538.767 16.502 538.42 17.1667 537.909 17.7349C537.403 18.2974 536.756 18.7349 535.966 19.0474C535.176 19.3542 534.273 19.5076 533.256 19.5076ZM552.033 9.62127L549.221 9.92809C549.141 9.644 549.002 9.37695 548.803 9.12695C548.61 8.87695 548.349 8.67525 548.019 8.52184C547.69 8.36843 547.286 8.29173 546.809 8.29173C546.167 8.29173 545.627 8.43093 545.19 8.70934C544.758 8.98775 544.545 9.34854 544.55 9.79173C544.545 10.1724 544.684 10.4821 544.968 10.7207C545.258 10.9593 545.735 11.1554 546.4 11.3088L548.633 11.786C549.871 12.0531 550.792 12.4764 551.394 13.0559C552.002 13.6355 552.309 14.394 552.315 15.3315C552.309 16.1554 552.067 16.8826 551.59 17.5133C551.119 18.1383 550.462 18.627 549.621 18.9792C548.781 19.3315 547.815 19.5076 546.724 19.5076C545.121 19.5076 543.832 19.1724 542.854 18.502C541.877 17.8258 541.295 16.8855 541.107 15.6809L544.116 15.3912C544.252 15.9821 544.542 16.4281 544.985 16.7292C545.428 17.0304 546.005 17.1809 546.715 17.1809C547.448 17.1809 548.036 17.0304 548.479 16.7292C548.928 16.4281 549.153 16.0559 549.153 15.6127C549.153 15.2377 549.008 14.9281 548.718 14.6838C548.434 14.4395 547.991 14.252 547.388 14.1213L545.156 13.6525C543.9 13.3912 542.971 12.9508 542.369 12.3315C541.766 11.7065 541.468 10.9167 541.474 9.96218C541.468 9.15536 541.687 8.4565 542.13 7.86559C542.579 7.269 543.201 6.80877 543.996 6.48491C544.798 6.15536 545.721 5.99059 546.766 5.99059C548.3 5.99059 549.508 6.31729 550.388 6.9707C551.275 7.62411 551.823 8.50763 552.033 9.62127ZM561.924 1.79741V19.252H558.762V4.87411H558.66L554.577 7.48207V4.58434L558.915 1.79741H561.924ZM566.04 16.0133V13.4991L573.447 1.79741H575.543V5.37695H574.265L569.279 13.2775V13.4139H579.617V16.0133H566.04ZM574.367 19.252V15.2463L574.401 14.1213V1.79741H577.384V19.252H574.367ZM585.673 1.79741V19.252H582.511V1.79741H585.673ZM588.96 19.252V6.16104H591.909V8.38548H592.062C592.335 7.63548 592.787 7.05025 593.418 6.62979C594.048 6.20366 594.801 5.99059 595.676 5.99059C596.562 5.99059 597.31 6.2065 597.918 6.63832C598.531 7.06445 598.963 7.64684 599.213 8.38548H599.349C599.639 7.6582 600.128 7.07866 600.815 6.64684C601.509 6.20934 602.33 5.99059 603.278 5.99059C604.483 5.99059 605.466 6.37127 606.227 7.13263C606.989 7.894 607.369 9.00479 607.369 10.465V19.252H604.276V10.9423C604.276 10.1298 604.06 9.53604 603.628 9.16104C603.196 8.78036 602.668 8.59002 602.043 8.59002C601.298 8.59002 600.716 8.82298 600.295 9.28888C599.881 9.74911 599.673 10.3485 599.673 11.0872V19.252H596.648V10.8145C596.648 10.1383 596.443 9.59854 596.034 9.19513C595.631 8.79173 595.102 8.59002 594.449 8.59002C594.006 8.59002 593.602 8.70366 593.239 8.93093C592.875 9.15252 592.585 9.46786 592.369 9.87695C592.153 10.2804 592.045 10.752 592.045 11.2917V19.252H588.96ZM614.266 19.5162C613.437 19.5162 612.69 19.3684 612.025 19.073C611.366 18.7718 610.843 18.3287 610.457 17.7434C610.076 17.1582 609.886 16.4366 609.886 15.5787C609.886 14.84 610.022 14.2292 610.295 13.7463C610.567 13.2633 610.94 12.877 611.411 12.5872C611.883 12.2974 612.414 12.0787 613.005 11.9309C613.602 11.7775 614.218 11.6667 614.854 11.5985C615.621 11.519 616.244 11.448 616.721 11.3855C617.198 11.3173 617.545 11.215 617.761 11.0787C617.982 10.9366 618.093 10.7179 618.093 10.4224V10.3713C618.093 9.72923 617.903 9.23207 617.522 8.87979C617.141 8.52752 616.593 8.35138 615.877 8.35138C615.121 8.35138 614.522 8.51616 614.079 8.8457C613.641 9.17525 613.346 9.56445 613.192 10.0133L610.312 9.60423C610.539 8.80877 610.914 8.144 611.437 7.60991C611.96 7.07013 612.599 6.66673 613.354 6.39968C614.11 6.12695 614.945 5.99059 615.86 5.99059C616.491 5.99059 617.119 6.06445 617.744 6.21218C618.369 6.35991 618.94 6.60423 619.457 6.94513C619.974 7.28036 620.388 7.73775 620.701 8.31729C621.019 8.89684 621.178 9.62127 621.178 10.4906V19.252H618.212V17.4537H618.11C617.923 17.8173 617.658 18.1582 617.317 18.4764C616.982 18.7889 616.559 19.0417 616.048 19.2349C615.542 19.4224 614.948 19.5162 614.266 19.5162ZM615.067 17.2491C615.687 17.2491 616.224 17.127 616.678 16.8826C617.133 16.6326 617.482 16.3031 617.727 15.894C617.977 15.4849 618.102 15.0389 618.102 14.5559V13.0133C618.005 13.0929 617.84 13.1667 617.607 13.2349C617.38 13.3031 617.124 13.3627 616.84 13.4139C616.556 13.465 616.275 13.5105 615.996 13.5502C615.718 13.59 615.477 13.6241 615.272 13.6525C614.812 13.715 614.4 13.8173 614.036 13.9593C613.673 14.1014 613.386 14.3002 613.175 14.5559C612.965 14.8059 612.86 15.1298 612.86 15.5275C612.86 16.0957 613.067 16.5247 613.482 16.8145C613.897 17.1042 614.425 17.2491 615.067 17.2491ZM629.974 24.4338C628.866 24.4338 627.914 24.2832 627.119 23.9821C626.323 23.6866 625.684 23.2889 625.201 22.7889C624.718 22.2889 624.383 21.7349 624.195 21.127L626.974 20.4537C627.099 20.7093 627.281 20.9622 627.519 21.2122C627.758 21.4679 628.079 21.6781 628.482 21.8429C628.891 22.0133 629.406 22.0985 630.025 22.0985C630.9 22.0985 631.624 21.8855 632.198 21.4593C632.772 21.0389 633.059 20.3457 633.059 19.3798V16.8997H632.906C632.746 17.2179 632.513 17.5446 632.207 17.8798C631.906 18.215 631.505 18.4963 631.005 18.7235C630.511 18.9508 629.888 19.0645 629.138 19.0645C628.133 19.0645 627.221 18.8287 626.403 18.3571C625.59 17.8798 624.942 17.1696 624.46 16.2264C623.982 15.2775 623.744 14.09 623.744 12.6639C623.744 11.2264 623.982 10.0133 624.46 9.02468C624.942 8.03036 625.593 7.27752 626.411 6.76616C627.229 6.24911 628.141 5.99059 629.147 5.99059C629.914 5.99059 630.545 6.12127 631.039 6.38263C631.539 6.63832 631.937 6.94798 632.232 7.31161C632.528 7.66957 632.752 8.00763 632.906 8.32582H633.076V6.16104H636.119V19.465C636.119 20.5843 635.852 21.5105 635.317 22.2434C634.783 22.9764 634.053 23.5247 633.127 23.8883C632.201 24.252 631.15 24.4338 629.974 24.4338ZM629.999 16.644C630.653 16.644 631.21 16.4849 631.67 16.1667C632.13 15.8485 632.479 15.3912 632.718 14.7946C632.957 14.198 633.076 13.4821 633.076 12.6468C633.076 11.823 632.957 11.1014 632.718 10.4821C632.485 9.86275 632.138 9.38263 631.678 9.04173C631.224 8.69513 630.664 8.52184 629.999 8.52184C629.312 8.52184 628.738 8.70082 628.278 9.05877C627.817 9.41673 627.471 9.9082 627.238 10.5332C627.005 11.1525 626.888 11.8571 626.888 12.6468C626.888 13.448 627.005 14.1497 627.238 14.752C627.477 15.3485 627.826 15.8145 628.286 16.1497C628.752 16.4792 629.323 16.644 629.999 16.644ZM645.076 19.5076C643.763 19.5076 642.63 19.2349 641.675 18.6895C640.727 18.1383 639.996 17.3599 639.485 16.3542C638.974 15.3429 638.718 14.1525 638.718 12.7832C638.718 11.4366 638.974 10.2548 639.485 9.23775C640.002 8.21502 640.724 7.41957 641.65 6.85138C642.576 6.27752 643.664 5.99059 644.914 5.99059C645.721 5.99059 646.482 6.12127 647.198 6.38263C647.92 6.63832 648.556 7.03604 649.107 7.57582C649.664 8.11559 650.102 8.80309 650.42 9.63832C650.738 10.4679 650.897 11.4565 650.897 12.6042V13.5502H640.167V11.4707H647.94C647.934 10.8798 647.806 10.3542 647.556 9.894C647.306 9.42809 646.957 9.06161 646.508 8.79457C646.065 8.52752 645.548 8.394 644.957 8.394C644.326 8.394 643.772 8.54741 643.295 8.85423C642.817 9.15536 642.445 9.55309 642.178 10.0474C641.917 10.536 641.783 11.073 641.778 11.6582V13.4735C641.778 14.2349 641.917 14.8883 642.195 15.4338C642.474 15.9735 642.863 16.3883 643.363 16.6781C643.863 16.9622 644.448 17.1042 645.119 17.1042C645.567 17.1042 645.974 17.0417 646.337 16.9167C646.701 16.786 647.016 16.5957 647.283 16.3457C647.55 16.0957 647.752 15.786 647.888 15.4167L650.769 15.7406C650.587 16.502 650.241 17.1667 649.729 17.7349C649.224 18.2974 648.576 18.7349 647.786 19.0474C646.996 19.3542 646.093 19.5076 645.076 19.5076Z" fill="black"/>
</svg>
